<svg xmlns="http://www.w3.org/2000/svg" viewBox="0 0 2400 100" width="2400" height="100"><path d="M15.2 85.2c-1.8-4.332 2.25-6.18 2.4-18 .096-7.848-1.644-10.944.6-16.8 1.2174-3.2832 3.2892-6.1836 6-8.4 2.3904-1.9902 5.31-3.2412 8.4-3.6 5.664-.552 10.878 2.358 13.8 6 3.042 3.792 3.318 8.034 3.6 11.4 2.13 25.2 7.2 28.038 3.6 33-7.374 10.074-34.254 6.306-38.4-3.6z" fill="#eae4dd" stroke="#22267a" stroke-width="2"/><path d="M8.6 96.6s0-13.2 9.6-18c9.6-4.8 10.8-7.2 10.8-7.2-1.3782-1.0074-2.5926-2.2218-3.6-3.6-1.8-2.4-4.8-11.4 1.2-15 6-3.6 7.2-2.4 9-3.6 1.8-1.2 4.2-3 4.2-3s4.2 2.4 4.8 7.2c.6 4.8-1.8 13.2-6 16.8 0 0 .6 4.2 6 6.6 5.4 2.4 11.4 4.8 12.6 9C58.4 90 59 96.6 59 96.6m45-45s-5.4-10.2 3-10.8c8.4-.6 16.2-1.8 16.2-1.8s2.4 1.8 1.8 3.6c-.6 1.8 4.8 2.4 4.8 2.4s0 9-5.4 12.6c-5.4 3.6-16.8 7.2-20.4-5.4z" fill="#eae4dd" stroke="#22267a" stroke-width="2"/><path d="M90.308 96.696s0-13.2 9.6-18c9.6-4.8 10.8-7.2 10.8-7.2-1.3782-1.0074-2.5926-2.2218-3.6-3.6 0 0-5.508-11.496-1.908-17.496 3.6-6 9-5.4 9-5.4s12.288-1.248 13.944 7.476C129.8 61.2 125 67.2 124.4 67.8c-.6.6-2.892 3.696-2.892 3.696s-.6 3 4.8 5.4c5.4 2.4 11.4 4.8 12.6 9 1.2 4.2 1.8 10.8 1.8 10.8" fill="#eae4dd" stroke="#22267a" stroke-width="2"/><path d="M113 215.4l-10.71-7.2H46.874l-9.474 7.2c-.636 0-1.2474-.2532-1.6968-.7032C35.2532 214.2474 35 213.636 35 213v-27c0-.636.2532-1.2474.7032-1.6968.4494-.45 1.0608-.7032 1.6968-.7032H113c.636 0 1.2474.2532 1.6968.7032.45.4494.7032 1.0608.7032 1.6968v27c0 .636-.2532 1.2474-.7032 1.6968-.4494.45-1.0608.7032-1.6968.7032z" fill="none" stroke="#22267a" stroke-width="2"/><path d="M44.9 186.6h57c.5568 0 1.0914.2214 1.485.615.3936.3936.615.9282.615 1.485 0 .5568-.2214 1.0914-.615 1.485-.3936.3936-.9282.615-1.485.615h-57c-.5568 0-1.0914-.2214-1.485-.615-.3936-.3936-.615-.9282-.615-1.485 0-.5568.2214-1.0914.615-1.485.3936-.3936.9282-.615 1.485-.615m5.4 6h57c.5568 0 1.0914.2214 1.485.615.3936.3936.615.9282.615 1.485 0 .5568-.2214 1.0914-.615 1.485-.3936.3936-.9282.615-1.485.615h-57c-.5568 0-1.0914-.2214-1.485-.615-.3936-.3936-.615-.9282-.615-1.485 0-.5568.2214-1.0914.615-1.485.3936-.3936.9282-.615 1.485-.615m-5.4 6h57c.5568 0 1.0914.2214 1.485.615.3936.3936.615.9282.615 1.485 0 .5568-.2214 1.0914-.615 1.485-.3936.3936-.9282.615-1.485.615h-57c-.5568 0-1.0914-.2214-1.485-.615-.3936-.3936-.615-.9282-.615-1.485 0-.5568.2214-1.0914.615-1.485.3936-.3936.9282-.615 1.485-.615" fill="#22267a" stroke="#eae4dd" stroke-width=".6"/><path d="M165.2 85.2c-1.8-4.332 2.25-6.18 2.4-18 .096-7.848-1.644-10.944.6-16.8 1.2174-3.2832 3.2892-6.1836 6-8.4 2.3904-1.9902 5.31-3.2412 8.4-3.6 5.664-.552 10.878 2.358 13.8 6 3.042 3.792 3.318 8.034 3.6 11.4 2.13 25.2 7.2 28.038 3.6 33-7.374 10.074-34.254 6.306-38.4-3.6z" fill="#eae4dd" stroke="#22267a" stroke-width="2"/><path d="M158.6 96.6s0-13.2 9.6-18c9.6-4.8 10.8-7.2 10.8-7.2-1.3782-1.0074-2.5926-2.2218-3.6-3.6-1.8-2.4-4.8-11.4 1.2-15 6-3.6 7.2-2.4 9-3.6 1.8-1.2 4.2-3 4.2-3s4.2 2.4 4.8 7.2c.6 4.8-1.8 13.2-6 16.8 0 0 .6 4.2 6 6.6 5.4 2.4 11.4 4.8 12.6 9 1.2 4.2 1.8 10.8 1.8 10.8m45-45s-5.4-10.2 3-10.8c8.4-.6 16.2-1.8 16.2-1.8s2.4 1.8 1.8 3.6c-.6 1.8 4.8 2.4 4.8 2.4s0 9-5.4 12.6c-5.4 3.6-16.8 7.2-20.4-5.4z" fill="#eae4dd" stroke="#22267a" stroke-width="2"/><path d="M240.308 96.696s0-13.2 9.6-18c9.6-4.8 10.8-7.2 10.8-7.2-1.3782-1.0074-2.5926-2.2218-3.6-3.6 0 0-5.508-11.496-1.908-17.496 3.6-6 9-5.4 9-5.4s12.288-1.248 13.944 7.476C279.8 61.2 275 67.2 274.4 67.8c-.6.6-2.892 3.696-2.892 3.696s-.6 3 4.8 5.4c5.4 2.4 11.4 4.8 12.6 9 1.2 4.2 1.8 10.8 1.8 10.8" fill="#eae4dd" stroke="#22267a" stroke-width="2"/><path d="M263 160.84l-10.71-7.2h-55.416l-9.474 7.2c-.636 0-1.2474-.2532-1.6968-.7032-.45-.4494-.7032-1.0608-.7032-1.6968v-27c0-.636.2532-1.2474.7032-1.6968.4494-.45 1.0608-.7032 1.6968-.7032H263c.636 0 1.2474.2532 1.6968.7032.45.4494.7032 1.0608.7032 1.6968v27c0 .636-.2532 1.2474-.7032 1.6968-.4494.45-1.0608.7032-1.6968.7032z" fill="none" stroke="#22267a" stroke-width="2"/><path d="M194.9 132.04h57c.5568 0 1.0914.2214 1.485.615.3936.3936.615.9282.615 1.485 0 .5568-.2214 1.0914-.615 1.485-.3936.3936-.9282.615-1.485.615h-57c-.5568 0-1.0914-.2214-1.485-.615-.3936-.3936-.615-.9282-.615-1.485 0-.5568.2214-1.0914.615-1.485.3936-.3936.9282-.615 1.485-.615m5.4 6h57c.5568 0 1.0914.2214 1.485.615.3936.3936.615.9282.615 1.485 0 .5568-.2214 1.0914-.615 1.485-.3936.3936-.9282.615-1.485.615h-57c-.5568 0-1.0914-.2214-1.485-.615-.3936-.3936-.615-.9282-.615-1.485 0-.5568.2214-1.0914.615-1.485.3936-.3936.9282-.615 1.485-.615m-5.4 6h57c.5568 0 1.0914.2214 1.485.615.3936.3936.615.9282.615 1.485 0 .5568-.2214 1.0914-.615 1.485-.3936.3936-.9282.615-1.485.615h-57c-.5568 0-1.0914-.2214-1.485-.615-.3936-.3936-.615-.9282-.615-1.485 0-.5568.2214-1.0914.615-1.485.3936-.3936.9282-.615 1.485-.615" fill="#22267a" stroke="#eae4dd" stroke-width=".6"/><path d="M315.2 85.2c-1.8-4.332 2.25-6.18 2.4-18 .096-7.848-1.644-10.944.6-16.8 1.2174-3.2832 3.2892-6.1836 6-8.4 2.3904-1.9902 5.31-3.2412 8.4-3.6 5.664-.552 10.878 2.358 13.8 6 3.042 3.792 3.318 8.034 3.6 11.4 2.13 25.2 7.2 28.038 3.6 33-7.374 10.074-34.254 6.306-38.4-3.6z" fill="#eae4dd" stroke="#22267a" stroke-width="2"/><path d="M308.6 96.6s0-13.2 9.6-18c9.6-4.8 10.8-7.2 10.8-7.2-1.3782-1.0074-2.5926-2.2218-3.6-3.6-1.8-2.4-4.8-11.4 1.2-15 6-3.6 7.2-2.4 9-3.6 1.8-1.2 4.2-3 4.2-3s4.2 2.4 4.8 7.2c.6 4.8-1.8 13.2-6 16.8 0 0 .6 4.2 6 6.6 5.4 2.4 11.4 4.8 12.6 9 1.2 4.2 1.8 10.8 1.8 10.8m45-45s-5.4-10.2 3-10.8c8.4-.6 16.2-1.8 16.2-1.8s2.4 1.8 1.8 3.6c-.6 1.8 4.8 2.4 4.8 2.4s0 9-5.4 12.6c-5.4 3.6-16.8 7.2-20.4-5.4z" fill="#eae4dd" stroke="#22267a" stroke-width="2"/><path d="M390.308 96.696s0-13.2 9.6-18c9.6-4.8 10.8-7.2 10.8-7.2-1.3782-1.0074-2.5926-2.2218-3.6-3.6 0 0-5.508-11.496-1.908-17.496 3.6-6 9-5.4 9-5.4s12.288-1.248 13.944 7.476C429.8 61.2 425 67.2 424.4 67.8c-.6.6-2.892 3.696-2.892 3.696s-.6 3 4.8 5.4c5.4 2.4 11.4 4.8 12.6 9 1.2 4.2 1.8 10.8 1.8 10.8" fill="#eae4dd" stroke="#22267a" stroke-width="2"/><path d="M413 116.52l-10.71-7.2h-55.416l-9.474 7.2c-.636 0-1.2474-.2532-1.6968-.7032-.45-.4494-.7032-1.0608-.7032-1.6968v-27c0-.636.2532-1.2474.7032-1.6968.4494-.45 1.0608-.7032 1.6968-.7032H413c.636 0 1.2474.2532 1.6968.7032.45.4494.7032 1.0608.7032 1.6968v27c0 .636-.2532 1.2474-.7032 1.6968-.4494.45-1.0608.7032-1.6968.7032z" fill="none" stroke="#22267a" stroke-width="2"/><path d="M344.9 87.72h57c.5568 0 1.0914.2214 1.485.615.3936.3936.615.9282.615 1.485 0 .5568-.2214 1.0914-.615 1.485-.3936.3936-.9282.615-1.485.615h-57c-.5568 0-1.0914-.2214-1.485-.615-.3936-.3936-.615-.9282-.615-1.485 0-.5568.2214-1.0914.615-1.485.3936-.3936.9282-.615 1.485-.615m5.4 6h57c.5568 0 1.0914.2214 1.485.615.3936.3936.615.9282.615 1.485 0 .5568-.2214 1.0914-.615 1.485-.3936.3936-.9282.615-1.485.615h-57c-.5568 0-1.0914-.2214-1.485-.615-.3936-.3936-.615-.9282-.615-1.485 0-.5568.2214-1.0914.615-1.485.3936-.3936.9282-.615 1.485-.615m-5.4 6h57c.5568 0 1.0914.2214 1.485.615.3936.3936.615.9282.615 1.485 0 .5568-.2214 1.0914-.615 1.485-.3936.3936-.9282.615-1.485.615h-57c-.5568 0-1.0914-.2214-1.485-.615-.3936-.3936-.615-.9282-.615-1.485 0-.5568.2214-1.0914.615-1.485.3936-.3936.9282-.615 1.485-.615" fill="#22267a" stroke="#eae4dd" stroke-width=".6"/><path d="M465.2 85.2c-1.8-4.332 2.25-6.18 2.4-18 .096-7.848-1.644-10.944.6-16.8 1.2174-3.2832 3.2892-6.1836 6-8.4 2.3904-1.9902 5.31-3.2412 8.4-3.6 5.664-.552 10.878 2.358 13.8 6 3.042 3.792 3.318 8.034 3.6 11.4 2.13 25.2 7.2 28.038 3.6 33-7.374 10.074-34.254 6.306-38.4-3.6z" fill="#eae4dd" stroke="#22267a" stroke-width="2"/><path d="M458.6 96.6s0-13.2 9.6-18c9.6-4.8 10.8-7.2 10.8-7.2-1.3782-1.0074-2.5926-2.2218-3.6-3.6-1.8-2.4-4.8-11.4 1.2-15 6-3.6 7.2-2.4 9-3.6 1.8-1.2 4.2-3 4.2-3s4.2 2.4 4.8 7.2c.6 4.8-1.8 13.2-6 16.8 0 0 .6 4.2 6 6.6 5.4 2.4 11.4 4.8 12.6 9 1.2 4.2 1.8 10.8 1.8 10.8m45-45s-5.4-10.2 3-10.8c8.4-.6 16.2-1.8 16.2-1.8s2.4 1.8 1.8 3.6c-.6 1.8 4.8 2.4 4.8 2.4s0 9-5.4 12.6c-5.4 3.6-16.8 7.2-20.4-5.4z" fill="#eae4dd" stroke="#22267a" stroke-width="2"/><path d="M540.308 96.696s0-13.2 9.6-18c9.6-4.8 10.8-7.2 10.8-7.2-1.3782-1.0074-2.5926-2.2218-3.6-3.6 0 0-5.508-11.496-1.908-17.496 3.6-6 9-5.4 9-5.4s12.288-1.248 13.944 7.476C579.8 61.2 575 67.2 574.4 67.8c-.6.6-2.892 3.696-2.892 3.696s-.6 3 4.8 5.4c5.4 2.4 11.4 4.8 12.6 9 1.2 4.2 1.8 10.8 1.8 10.8" fill="#eae4dd" stroke="#22267a" stroke-width="2"/><path d="M563 81.48l-10.71-7.2h-55.416l-9.474 7.2c-.636 0-1.2474-.2532-1.6968-.7032-.45-.4494-.7032-1.0608-.7032-1.6968v-27c0-.636.2532-1.2474.7032-1.6968.4494-.45 1.0608-.7032 1.6968-.7032H563c.636 0 1.2474.2532 1.6968.7032.45.4494.7032 1.0608.7032 1.6968v27c0 .636-.2532 1.2474-.7032 1.6968-.4494.45-1.0608.7032-1.6968.7032z" fill="none" stroke="#22267a" stroke-width="2"/><path d="M494.9 52.68h57c.5568 0 1.0914.2214 1.485.615.3936.3936.615.9282.615 1.485 0 .5568-.2214 1.0914-.615 1.485-.3936.3936-.9282.615-1.485.615h-57c-.5568 0-1.0914-.2214-1.485-.615-.3936-.3936-.615-.9282-.615-1.485 0-.5568.2214-1.0914.615-1.485.3936-.3936.9282-.615 1.485-.615m5.4 6h57c.5568 0 1.0914.2214 1.485.615.3936.3936.615.9282.615 1.485 0 .5568-.2214 1.0914-.615 1.485-.3936.3936-.9282.615-1.485.615h-57c-.5568 0-1.0914-.2214-1.485-.615-.3936-.3936-.615-.9282-.615-1.485 0-.5568.2214-1.0914.615-1.485.3936-.3936.9282-.615 1.485-.615m-5.4 6h57c.5568 0 1.0914.2214 1.485.615.3936.3936.615.9282.615 1.485 0 .5568-.2214 1.0914-.615 1.485-.3936.3936-.9282.615-1.485.615h-57c-.5568 0-1.0914-.2214-1.485-.615-.3936-.3936-.615-.9282-.615-1.485 0-.5568.2214-1.0914.615-1.485.3936-.3936.9282-.615 1.485-.615" fill="#22267a" stroke="#eae4dd" stroke-width=".6"/><g><path d="M615.2 85.2c-1.8-4.332 2.25-6.18 2.4-18 .096-7.848-1.644-10.944.6-16.8 1.2174-3.2832 3.2892-6.1836 6-8.4 2.3904-1.9902 5.31-3.2412 8.4-3.6 5.664-.552 10.878 2.358 13.8 6 3.042 3.792 3.318 8.034 3.6 11.4 2.13 25.2 7.2 28.038 3.6 33-7.374 10.074-34.254 6.306-38.4-3.6z" fill="#eae4dd" stroke="#22267a" stroke-width="2"/><path d="M608.6 96.6s0-13.2 9.6-18c9.6-4.8 10.8-7.2 10.8-7.2-1.3782-1.0074-2.5926-2.2218-3.6-3.6-1.8-2.4-4.8-11.4 1.2-15 6-3.6 7.2-2.4 9-3.6 1.8-1.2 4.2-3 4.2-3s4.2 2.4 4.8 7.2c.6 4.8-1.8 13.2-6 16.8 0 0 .6 4.2 6 6.6 5.4 2.4 11.4 4.8 12.6 9 1.2 4.2 1.8 10.8 1.8 10.8m45-45s-5.4-10.2 3-10.8c8.4-.6 16.2-1.8 16.2-1.8s2.4 1.8 1.8 3.6c-.6 1.8 4.8 2.4 4.8 2.4s0 9-5.4 12.6c-5.4 3.6-16.8 7.2-20.4-5.4z" fill="#eae4dd" stroke="#22267a" stroke-width="2"/><path d="M690.308 96.696s0-13.2 9.6-18c9.6-4.8 10.8-7.2 10.8-7.2-1.3782-1.0074-2.5926-2.2218-3.6-3.6 0 0-5.508-11.496-1.908-17.496 3.6-6 9-5.4 9-5.4s12.288-1.248 13.944 7.476C729.8 61.2 725 67.2 724.4 67.8c-.6.6-2.892 3.696-2.892 3.696s-.6 3 4.8 5.4c5.4 2.4 11.4 4.8 12.6 9 1.2 4.2 1.8 10.8 1.8 10.8" fill="#eae4dd" stroke="#22267a" stroke-width="2"/><path d="M713 54.76l-10.71-7.2h-55.416l-9.474 7.2c-.636 0-1.2474-.2532-1.6968-.7032-.45-.4494-.7032-1.0608-.7032-1.6968v-27c0-.636.2532-1.2474.7032-1.6968.4494-.45 1.0608-.7032 1.6968-.7032H713c.636 0 1.2474.2532 1.6968.7032.45.4494.7032 1.0608.7032 1.6968v27c0 .636-.2532 1.2474-.7032 1.6968-.4494.45-1.0608.7032-1.6968.7032z" fill="none" stroke="#22267a" stroke-width="2"/><path d="M644.9 25.96h57c.5568 0 1.0914.2214 1.485.615.3936.3936.615.9282.615 1.485 0 .5568-.2214 1.0914-.615 1.485-.3936.3936-.9282.615-1.485.615h-57c-.5568 0-1.0914-.2214-1.485-.615-.3936-.3936-.615-.9282-.615-1.485 0-.5568.2214-1.0914.615-1.485.3936-.3936.9282-.615 1.485-.615m5.4 6h57c.5568 0 1.0914.2214 1.485.615.3936.3936.615.9282.615 1.485 0 .5568-.2214 1.0914-.615 1.485-.3936.3936-.9282.615-1.485.615h-57c-.5568 0-1.0914-.2214-1.485-.615-.3936-.3936-.615-.9282-.615-1.485 0-.5568.2214-1.0914.615-1.485.3936-.3936.9282-.615 1.485-.615m-5.4 6h57c.5568 0 1.0914.2214 1.485.615.3936.3936.615.9282.615 1.485 0 .5568-.2214 1.0914-.615 1.485-.3936.3936-.9282.615-1.485.615h-57c-.5568 0-1.0914-.2214-1.485-.615-.3936-.3936-.615-.9282-.615-1.485 0-.5568.2214-1.0914.615-1.485.3936-.3936.9282-.615 1.485-.615" fill="#22267a" stroke="#eae4dd" stroke-width=".6"/></g><g><path d="M765.2 85.2c-1.8-4.332 2.25-6.18 2.4-18 .096-7.848-1.644-10.944.6-16.8 1.2174-3.2832 3.2892-6.1836 6-8.4 2.3904-1.9902 5.31-3.2412 8.4-3.6 5.664-.552 10.878 2.358 13.8 6 3.042 3.792 3.318 8.034 3.6 11.4 2.13 25.2 7.2 28.038 3.6 33-7.374 10.074-34.254 6.306-38.4-3.6z" fill="#eae4dd" stroke="#22267a" stroke-width="2"/><path d="M758.6 96.6s0-13.2 9.6-18c9.6-4.8 10.8-7.2 10.8-7.2-1.3782-1.0074-2.5926-2.2218-3.6-3.6-1.8-2.4-4.8-11.4 1.2-15 6-3.6 7.2-2.4 9-3.6 1.8-1.2 4.2-3 4.2-3s4.2 2.4 4.8 7.2c.6 4.8-1.8 13.2-6 16.8 0 0 .6 4.2 6 6.6 5.4 2.4 11.4 4.8 12.6 9 1.2 4.2 1.8 10.8 1.8 10.8m45-45s-5.4-10.2 3-10.8c8.4-.6 16.2-1.8 16.2-1.8s2.4 1.8 1.8 3.6c-.6 1.8 4.8 2.4 4.8 2.4s0 9-5.4 12.6c-5.4 3.6-16.8 7.2-20.4-5.4z" fill="#eae4dd" stroke="#22267a" stroke-width="2"/><path d="M840.308 96.696s0-13.2 9.6-18c9.6-4.8 10.8-7.2 10.8-7.2-1.3782-1.0074-2.5926-2.2218-3.6-3.6 0 0-5.508-11.496-1.908-17.496 3.6-6 9-5.4 9-5.4s12.288-1.248 13.944 7.476C879.8 61.2 875 67.2 874.4 67.8c-.6.6-2.892 3.696-2.892 3.696s-.6 3 4.8 5.4c5.4 2.4 11.4 4.8 12.6 9 1.2 4.2 1.8 10.8 1.8 10.8" fill="#eae4dd" stroke="#22267a" stroke-width="2"/><path d="M863 35.4l-10.71-7.2h-55.416l-9.474 7.2c-.636 0-1.2474-.2532-1.6968-.7032C785.2532 34.2474 785 33.636 785 33V6c0-.636.2532-1.2474.7032-1.6968.4494-.45 1.0608-.7032 1.6968-.7032H863c.636 0 1.2474.2532 1.6968.7032.45.4494.7032 1.0608.7032 1.6968v27c0 .636-.2532 1.2474-.7032 1.6968-.4494.45-1.0608.7032-1.6968.7032z" fill="none" stroke="#22267a" stroke-width="2"/><path d="M794.9 6.6h57c.5568 0 1.0914.2214 1.485.615.3936.3936.615.9282.615 1.485 0 .5568-.2214 1.0914-.615 1.485-.3936.3936-.9282.615-1.485.615h-57c-.5568 0-1.0914-.2214-1.485-.615-.3936-.3936-.615-.9282-.615-1.485 0-.5568.2214-1.0914.615-1.485.3936-.3936.9282-.615 1.485-.615m5.4 6h57c.5568 0 1.0914.2214 1.485.615.3936.3936.615.9282.615 1.485 0 .5568-.2214 1.0914-.615 1.485-.3936.3936-.9282.615-1.485.615h-57c-.5568 0-1.0914-.2214-1.485-.615-.3936-.3936-.615-.9282-.615-1.485 0-.5568.2214-1.0914.615-1.485.3936-.3936.9282-.615 1.485-.615m-5.4 6h57c.5568 0 1.0914.2214 1.485.615.3936.3936.615.9282.615 1.485 0 .5568-.2214 1.0914-.615 1.485-.3936.3936-.9282.615-1.485.615h-57c-.5568 0-1.0914-.2214-1.485-.615-.3936-.3936-.615-.9282-.615-1.485 0-.5568.2214-1.0914.615-1.485.3936-.3936.9282-.615 1.485-.615" fill="#22267a" stroke="#eae4dd" stroke-width=".6"/></g><g><path d="M915.2 85.2c-1.8-4.332 2.25-6.18 2.4-18 .096-7.848-1.644-10.944.6-16.8 1.2174-3.2832 3.2892-6.1836 6-8.4 2.3904-1.9902 5.31-3.2412 8.4-3.6 5.664-.552 10.878 2.358 13.8 6 3.042 3.792 3.318 8.034 3.6 11.4 2.13 25.2 7.2 28.038 3.6 33-7.374 10.074-34.254 6.306-38.4-3.6z" fill="#eae4dd" stroke="#22267a" stroke-width="2"/><path d="M908.6 96.6s0-13.2 9.6-18c9.6-4.8 10.8-7.2 10.8-7.2-1.3782-1.0074-2.5926-2.2218-3.6-3.6-1.8-2.4-4.8-11.4 1.2-15 6-3.6 7.2-2.4 9-3.6 1.8-1.2 4.2-3 4.2-3s4.2 2.4 4.8 7.2c.6 4.8-1.8 13.2-6 16.8 0 0 .6 4.2 6 6.6 5.4 2.4 11.4 4.8 12.6 9 1.2 4.2 1.8 10.8 1.8 10.8m45-45s-5.4-10.2 3-10.8c8.4-.6 16.2-1.8 16.2-1.8s2.4 1.8 1.8 3.6c-.6 1.8 4.8 2.4 4.8 2.4s0 9-5.4 12.6c-5.4 3.6-16.8 7.2-20.4-5.4z" fill="#eae4dd" stroke="#22267a" stroke-width="2"/><path d="M990.308 96.696s0-13.2 9.6-18c9.6-4.8 10.8-7.2 10.8-7.2-1.3782-1.0074-2.5926-2.2218-3.6-3.6 0 0-5.508-11.496-1.908-17.496 3.6-6 9-5.4 9-5.4s12.288-1.248 13.944 7.476C1029.8 61.2 1025 67.2 1024.4 67.8c-.6.6-2.892 3.696-2.892 3.696s-.6 3 4.8 5.4c5.4 2.4 11.4 4.8 12.6 9 1.2 4.2 1.8 10.8 1.8 10.8" fill="#eae4dd" stroke="#22267a" stroke-width="2"/><path d="M1013 22.44l-10.71-7.2h-55.416l-9.474 7.2c-.636 0-1.2474-.2532-1.6968-.7032-.45-.4494-.7032-1.0608-.7032-1.6968v-27c0-.636.2532-1.2474.7032-1.6968.4494-.45 1.0608-.7032 1.6968-.7032h75.6c.636 0 1.2474.2532 1.6968.7032.45.4494.7032 1.0608.7032 1.6968v27c0 .636-.2532 1.2474-.7032 1.6968-.4494.45-1.0608.7032-1.6968.7032z" fill="none" stroke="#22267a" stroke-width="2"/><path d="M944.9-6.36h57c.5568 0 1.0914.2214 1.485.615.3936.3936.615.9282.615 1.485 0 .5568-.2214 1.0914-.615 1.485-.3936.3936-.9282.615-1.485.615h-57c-.5568 0-1.0914-.2214-1.485-.615-.3936-.3936-.615-.9282-.615-1.485 0-.5568.2214-1.0914.615-1.485.3936-.3936.9282-.615 1.485-.615m5.4 6h57c.5568 0 1.0914.2214 1.485.615.3936.3936.615.9282.615 1.485 0 .5568-.2214 1.0914-.615 1.485-.3936.3936-.9282.615-1.485.615h-57c-.5568 0-1.0914-.2214-1.485-.615-.3936-.3936-.615-.9282-.615-1.485 0-.5568.2214-1.0914.615-1.485.3936-.3936.9282-.615 1.485-.615m-5.4 6h57c.5568 0 1.0914.2214 1.485.615.3936.3936.615.9282.615 1.485 0 .5568-.2214 1.0914-.615 1.485-.3936.3936-.9282.615-1.485.615h-57c-.5568 0-1.0914-.2214-1.485-.615-.3936-.3936-.615-.9282-.615-1.485 0-.5568.2214-1.0914.615-1.485.3936-.3936.9282-.615 1.485-.615" fill="#22267a" stroke="#eae4dd" stroke-width=".6"/></g><g><path d="M1065.2 85.2c-1.8-4.332 2.25-6.18 2.4-18 .096-7.848-1.644-10.944.6-16.8 1.2174-3.2832 3.2892-6.1836 6-8.4 2.3904-1.9902 5.31-3.2412 8.4-3.6 5.664-.552 10.878 2.358 13.8 6 3.042 3.792 3.318 8.034 3.6 11.4 2.13 25.2 7.2 28.038 3.6 33-7.374 10.074-34.254 6.306-38.4-3.6z" fill="#eae4dd" stroke="#22267a" stroke-width="2"/><path d="M1058.6 96.6s0-13.2 9.6-18c9.6-4.8 10.8-7.2 10.8-7.2-1.3782-1.0074-2.5926-2.2218-3.6-3.6-1.8-2.4-4.8-11.4 1.2-15 6-3.6 7.2-2.4 9-3.6 1.8-1.2 4.2-3 4.2-3s4.2 2.4 4.8 7.2c.6 4.8-1.8 13.2-6 16.8 0 0 .6 4.2 6 6.6 5.4 2.4 11.4 4.8 12.6 9 1.2 4.2 1.8 10.8 1.8 10.8m45-45s-5.4-10.2 3-10.8c8.4-.6 16.2-1.8 16.2-1.8s2.4 1.8 1.8 3.6c-.6 1.8 4.8 2.4 4.8 2.4s0 9-5.4 12.6c-5.4 3.6-16.8 7.2-20.4-5.4z" fill="#eae4dd" stroke="#22267a" stroke-width="2"/><path d="M1140.308 96.696s0-13.2 9.6-18c9.6-4.8 10.8-7.2 10.8-7.2-1.3782-1.0074-2.5926-2.2218-3.6-3.6 0 0-5.508-11.496-1.908-17.496 3.6-6 9-5.4 9-5.4s12.288-1.248 13.944 7.476C1179.8 61.2 1175 67.2 1174.4 67.8c-.6.6-2.892 3.696-2.892 3.696s-.6 3 4.8 5.4c5.4 2.4 11.4 4.8 12.6 9 1.2 4.2 1.8 10.8 1.8 10.8" fill="#eae4dd" stroke="#22267a" stroke-width="2"/><path d="M1163 14.92l-10.71-7.2h-55.416l-9.474 7.2c-.636 0-1.2474-.2532-1.6968-.7032-.45-.4494-.7032-1.0608-.7032-1.6968v-27c0-.636.2532-1.2474.7032-1.6968.4494-.45 1.0608-.7032 1.6968-.7032h75.6c.636 0 1.2474.2532 1.6968.7032.45.4494.7032 1.0608.7032 1.6968v27c0 .636-.2532 1.2474-.7032 1.6968-.4494.45-1.0608.7032-1.6968.7032z" fill="none" stroke="#22267a" stroke-width="2"/><path d="M1094.9-13.88h57c.5568 0 1.0914.2214 1.485.615.3936.3936.615.9282.615 1.485 0 .5568-.2214 1.0914-.615 1.485-.3936.3936-.9282.615-1.485.615h-57c-.5568 0-1.0914-.2214-1.485-.615-.3936-.3936-.615-.9282-.615-1.485 0-.5568.2214-1.0914.615-1.485.3936-.3936.9282-.615 1.485-.615m5.4 6h57c.5568 0 1.0914.2214 1.485.615.3936.3936.615.9282.615 1.485 0 .5568-.2214 1.0914-.615 1.485-.3936.3936-.9282.615-1.485.615h-57c-.5568 0-1.0914-.2214-1.485-.615-.3936-.3936-.615-.9282-.615-1.485 0-.5568.2214-1.0914.615-1.485.3936-.3936.9282-.615 1.485-.615m-5.4 6h57c.5568 0 1.0914.2214 1.485.615.3936.3936.615.9282.615 1.485 0 .5568-.2214 1.0914-.615 1.485-.3936.3936-.9282.615-1.485.615h-57c-.5568 0-1.0914-.2214-1.485-.615-.3936-.3936-.615-.9282-.615-1.485 0-.5568.2214-1.0914.615-1.485.3936-.3936.9282-.615 1.485-.615" fill="#22267a" stroke="#eae4dd" stroke-width=".6"/></g><g><path d="M1215.2 85.2c-1.8-4.332 2.25-6.18 2.4-18 .096-7.848-1.644-10.944.6-16.8 1.2174-3.2832 3.2892-6.1836 6-8.4 2.3904-1.9902 5.31-3.2412 8.4-3.6 5.664-.552 10.878 2.358 13.8 6 3.042 3.792 3.318 8.034 3.6 11.4 2.13 25.2 7.2 28.038 3.6 33-7.374 10.074-34.254 6.306-38.4-3.6z" fill="#eae4dd" stroke="#22267a" stroke-width="2"/><path d="M1208.6 96.6s0-13.2 9.6-18c9.6-4.8 10.8-7.2 10.8-7.2-1.3782-1.0074-2.5926-2.2218-3.6-3.6-1.8-2.4-4.8-11.4 1.2-15 6-3.6 7.2-2.4 9-3.6 1.8-1.2 4.2-3 4.2-3s4.2 2.4 4.8 7.2c.6 4.8-1.8 13.2-6 16.8 0 0 .6 4.2 6 6.6 5.4 2.4 11.4 4.8 12.6 9 1.2 4.2 1.8 10.8 1.8 10.8m45-45s-5.4-10.2 3-10.8c8.4-.6 16.2-1.8 16.2-1.8s2.4 1.8 1.8 3.6c-.6 1.8 4.8 2.4 4.8 2.4s0 9-5.4 12.6c-5.4 3.6-16.8 7.2-20.4-5.4z" fill="#eae4dd" stroke="#22267a" stroke-width="2"/><path d="M1290.308 96.696s0-13.2 9.6-18c9.6-4.8 10.8-7.2 10.8-7.2-1.3782-1.0074-2.5926-2.2218-3.6-3.6 0 0-5.508-11.496-1.908-17.496 3.6-6 9-5.4 9-5.4s12.288-1.248 13.944 7.476C1329.8 61.2 1325 67.2 1324.4 67.8c-.6.6-2.892 3.696-2.892 3.696s-.6 3 4.8 5.4c5.4 2.4 11.4 4.8 12.6 9 1.2 4.2 1.8 10.8 1.8 10.8" fill="#eae4dd" stroke="#22267a" stroke-width="2"/><path d="M1313 11.88l-10.71-7.2h-55.416l-9.474 7.2c-.636 0-1.2474-.2532-1.6968-.7032-.45-.4494-.7032-1.0608-.7032-1.6968v-27c0-.636.2532-1.2474.7032-1.6968.4494-.45 1.0608-.7032 1.6968-.7032h75.6c.636 0 1.2474.2532 1.6968.7032.45.4494.7032 1.0608.7032 1.6968v27c0 .636-.2532 1.2474-.7032 1.6968-.4494.45-1.0608.7032-1.6968.7032z" fill="none" stroke="#22267a" stroke-width="2"/><path d="M1244.9-16.92h57c.5568 0 1.0914.2214 1.485.615.3936.3936.615.9282.615 1.485 0 .5568-.2214 1.0914-.615 1.485-.3936.3936-.9282.615-1.485.615h-57c-.5568 0-1.0914-.2214-1.485-.615-.3936-.3936-.615-.9282-.615-1.485 0-.5568.2214-1.0914.615-1.485.3936-.3936.9282-.615 1.485-.615m5.4 6h57c.5568 0 1.0914.2214 1.485.615.3936.3936.615.9282.615 1.485 0 .5568-.2214 1.0914-.615 1.485-.3936.3936-.9282.615-1.485.615h-57c-.5568 0-1.0914-.2214-1.485-.615-.3936-.3936-.615-.9282-.615-1.485 0-.5568.2214-1.0914.615-1.485.3936-.3936.9282-.615 1.485-.615m-5.4 6h57c.5568 0 1.0914.2214 1.485.615.3936.3936.615.9282.615 1.485 0 .5568-.2214 1.0914-.615 1.485-.3936.3936-.9282.615-1.485.615h-57c-.5568 0-1.0914-.2214-1.485-.615-.3936-.3936-.615-.9282-.615-1.485 0-.5568.2214-1.0914.615-1.485.3936-.3936.9282-.615 1.485-.615" fill="#22267a" stroke="#eae4dd" stroke-width=".6"/></g><g><path d="M1365.2 85.2c-1.8-4.332 2.25-6.18 2.4-18 .096-7.848-1.644-10.944.6-16.8 1.2174-3.2832 3.2892-6.1836 6-8.4 2.3904-1.9902 5.31-3.2412 8.4-3.6 5.664-.552 10.878 2.358 13.8 6 3.042 3.792 3.318 8.034 3.6 11.4 2.13 25.2 7.2 28.038 3.6 33-7.374 10.074-34.254 6.306-38.4-3.6z" fill="#eae4dd" stroke="#22267a" stroke-width="2"/><path d="M1358.6 96.6s0-13.2 9.6-18c9.6-4.8 10.8-7.2 10.8-7.2-1.3782-1.0074-2.5926-2.2218-3.6-3.6-1.8-2.4-4.8-11.4 1.2-15 6-3.6 7.2-2.4 9-3.6 1.8-1.2 4.2-3 4.2-3s4.2 2.4 4.8 7.2c.6 4.8-1.8 13.2-6 16.8 0 0 .6 4.2 6 6.6 5.4 2.4 11.4 4.8 12.6 9 1.2 4.2 1.8 10.8 1.8 10.8m45-45s-5.4-10.2 3-10.8c8.4-.6 16.2-1.8 16.2-1.8s2.4 1.8 1.8 3.6c-.6 1.8 4.8 2.4 4.8 2.4s0 9-5.4 12.6c-5.4 3.6-16.8 7.2-20.4-5.4z" fill="#eae4dd" stroke="#22267a" stroke-width="2"/><path d="M1440.308 96.696s0-13.2 9.6-18c9.6-4.8 10.8-7.2 10.8-7.2-1.3782-1.0074-2.5926-2.2218-3.6-3.6 0 0-5.508-11.496-1.908-17.496 3.6-6 9-5.4 9-5.4s12.288-1.248 13.944 7.476C1479.8 61.2 1475 67.2 1474.4 67.8c-.6.6-2.892 3.696-2.892 3.696s-.6 3 4.8 5.4c5.4 2.4 11.4 4.8 12.6 9 1.2 4.2 1.8 10.8 1.8 10.8" fill="#eae4dd" stroke="#22267a" stroke-width="2"/><path d="M1463 12.36l-10.71-7.2h-55.416l-9.474 7.2c-.636 0-1.2474-.2532-1.6968-.7032-.45-.4494-.7032-1.0608-.7032-1.6968v-27c0-.636.2532-1.2474.7032-1.6968.4494-.45 1.0608-.7032 1.6968-.7032h75.6c.636 0 1.2474.2532 1.6968.7032.45.4494.7032 1.0608.7032 1.6968v27c0 .636-.2532 1.2474-.7032 1.6968-.4494.45-1.0608.7032-1.6968.7032z" fill="none" stroke="#22267a" stroke-width="2"/><path d="M1394.9-16.44h57c.5568 0 1.0914.2214 1.485.615.3936.3936.615.9282.615 1.485 0 .5568-.2214 1.0914-.615 1.485-.3936.3936-.9282.615-1.485.615h-57c-.5568 0-1.0914-.2214-1.485-.615-.3936-.3936-.615-.9282-.615-1.485 0-.5568.2214-1.0914.615-1.485.3936-.3936.9282-.615 1.485-.615m5.4 6h57c.5568 0 1.0914.2214 1.485.615.3936.3936.615.9282.615 1.485 0 .5568-.2214 1.0914-.615 1.485-.3936.3936-.9282.615-1.485.615h-57c-.5568 0-1.0914-.2214-1.485-.615-.3936-.3936-.615-.9282-.615-1.485 0-.5568.2214-1.0914.615-1.485.3936-.3936.9282-.615 1.485-.615m-5.4 6h57c.5568 0 1.0914.2214 1.485.615.3936.3936.615.9282.615 1.485 0 .5568-.2214 1.0914-.615 1.485-.3936.3936-.9282.615-1.485.615h-57c-.5568 0-1.0914-.2214-1.485-.615-.3936-.3936-.615-.9282-.615-1.485 0-.5568.2214-1.0914.615-1.485.3936-.3936.9282-.615 1.485-.615" fill="#22267a" stroke="#eae4dd" stroke-width=".6"/></g><g><path d="M1515.2 85.2c-1.8-4.332 2.25-6.18 2.4-18 .096-7.848-1.644-10.944.6-16.8 1.2174-3.2832 3.2892-6.1836 6-8.4 2.3904-1.9902 5.31-3.2412 8.4-3.6 5.664-.552 10.878 2.358 13.8 6 3.042 3.792 3.318 8.034 3.6 11.4 2.13 25.2 7.2 28.038 3.6 33-7.374 10.074-34.254 6.306-38.4-3.6z" fill="#eae4dd" stroke="#22267a" stroke-width="2"/><path d="M1508.6 96.6s0-13.2 9.6-18c9.6-4.8 10.8-7.2 10.8-7.2-1.3782-1.0074-2.5926-2.2218-3.6-3.6-1.8-2.4-4.8-11.4 1.2-15 6-3.6 7.2-2.4 9-3.6 1.8-1.2 4.2-3 4.2-3s4.2 2.4 4.8 7.2c.6 4.8-1.8 13.2-6 16.8 0 0 .6 4.2 6 6.6 5.4 2.4 11.4 4.8 12.6 9 1.2 4.2 1.8 10.8 1.8 10.8m45-45s-5.4-10.2 3-10.8c8.4-.6 16.2-1.8 16.2-1.8s2.4 1.8 1.8 3.6c-.6 1.8 4.8 2.4 4.8 2.4s0 9-5.4 12.6c-5.4 3.6-16.8 7.2-20.4-5.4z" fill="#eae4dd" stroke="#22267a" stroke-width="2"/><path d="M1590.308 96.696s0-13.2 9.6-18c9.6-4.8 10.8-7.2 10.8-7.2-1.3782-1.0074-2.5926-2.2218-3.6-3.6 0 0-5.508-11.496-1.908-17.496 3.6-6 9-5.4 9-5.4s12.288-1.248 13.944 7.476C1629.8 61.2 1625 67.2 1624.4 67.8c-.6.6-2.892 3.696-2.892 3.696s-.6 3 4.8 5.4c5.4 2.4 11.4 4.8 12.6 9 1.2 4.2 1.8 10.8 1.8 10.8" fill="#eae4dd" stroke="#22267a" stroke-width="2"/><path d="M1613 15.4l-10.71-7.2h-55.416l-9.474 7.2c-.636 0-1.2474-.2532-1.6968-.7032-.45-.4494-.7032-1.0608-.7032-1.6968v-27c0-.636.2532-1.2474.7032-1.6968.4494-.45 1.0608-.7032 1.6968-.7032h75.6c.636 0 1.2474.2532 1.6968.7032.45.4494.7032 1.0608.7032 1.6968v27c0 .636-.2532 1.2474-.7032 1.6968-.4494.45-1.0608.7032-1.6968.7032z" fill="none" stroke="#22267a" stroke-width="2"/><path d="M1544.9-13.4h57c.5568 0 1.0914.2214 1.485.615.3936.3936.615.9282.615 1.485 0 .5568-.2214 1.0914-.615 1.485-.3936.3936-.9282.615-1.485.615h-57c-.5568 0-1.0914-.2214-1.485-.615-.3936-.3936-.615-.9282-.615-1.485 0-.5568.2214-1.0914.615-1.485.3936-.3936.9282-.615 1.485-.615m5.4 6h57c.5568 0 1.0914.2214 1.485.615.3936.3936.615.9282.615 1.485 0 .5568-.2214 1.0914-.615 1.485-.3936.3936-.9282.615-1.485.615h-57c-.5568 0-1.0914-.2214-1.485-.615-.3936-.3936-.615-.9282-.615-1.485 0-.5568.2214-1.0914.615-1.485.3936-.3936.9282-.615 1.485-.615m-5.4 6h57c.5568 0 1.0914.2214 1.485.615.3936.3936.615.9282.615 1.485 0 .5568-.2214 1.0914-.615 1.485-.3936.3936-.9282.615-1.485.615h-57c-.5568 0-1.0914-.2214-1.485-.615-.3936-.3936-.615-.9282-.615-1.485 0-.5568.2214-1.0914.615-1.485.3936-.3936.9282-.615 1.485-.615" fill="#22267a" stroke="#eae4dd" stroke-width=".6"/></g><g><path d="M1665.2 85.2c-1.8-4.332 2.25-6.18 2.4-18 .096-7.848-1.644-10.944.6-16.8 1.2174-3.2832 3.2892-6.1836 6-8.4 2.3904-1.9902 5.31-3.2412 8.4-3.6 5.664-.552 10.878 2.358 13.8 6 3.042 3.792 3.318 8.034 3.6 11.4 2.13 25.2 7.2 28.038 3.6 33-7.374 10.074-34.254 6.306-38.4-3.6z" fill="#eae4dd" stroke="#22267a" stroke-width="2"/><path d="M1658.6 96.6s0-13.2 9.6-18c9.6-4.8 10.8-7.2 10.8-7.2-1.3782-1.0074-2.5926-2.2218-3.6-3.6-1.8-2.4-4.8-11.4 1.2-15 6-3.6 7.2-2.4 9-3.6 1.8-1.2 4.2-3 4.2-3s4.2 2.4 4.8 7.2c.6 4.8-1.8 13.2-6 16.8 0 0 .6 4.2 6 6.6 5.4 2.4 11.4 4.8 12.6 9 1.2 4.2 1.8 10.8 1.8 10.8m45-45s-5.4-10.2 3-10.8c8.4-.6 16.2-1.8 16.2-1.8s2.4 1.8 1.8 3.6c-.6 1.8 4.8 2.4 4.8 2.4s0 9-5.4 12.6c-5.4 3.6-16.8 7.2-20.4-5.4z" fill="#eae4dd" stroke="#22267a" stroke-width="2"/><path d="M1740.308 96.696s0-13.2 9.6-18c9.6-4.8 10.8-7.2 10.8-7.2-1.3782-1.0074-2.5926-2.2218-3.6-3.6 0 0-5.508-11.496-1.908-17.496 3.6-6 9-5.4 9-5.4s12.288-1.248 13.944 7.476C1779.8 61.2 1775 67.2 1774.4 67.8c-.6.6-2.892 3.696-2.892 3.696s-.6 3 4.8 5.4c5.4 2.4 11.4 4.8 12.6 9 1.2 4.2 1.8 10.8 1.8 10.8" fill="#eae4dd" stroke="#22267a" stroke-width="2"/><path d="M1763 20.04l-10.71-7.2h-55.416l-9.474 7.2c-.636 0-1.2474-.2532-1.6968-.7032-.45-.4494-.7032-1.0608-.7032-1.6968v-27c0-.636.2532-1.2474.7032-1.6968.4494-.45 1.0608-.7032 1.6968-.7032h75.6c.636 0 1.2474.2532 1.6968.7032.45.4494.7032 1.0608.7032 1.6968v27c0 .636-.2532 1.2474-.7032 1.6968-.4494.45-1.0608.7032-1.6968.7032z" fill="none" stroke="#22267a" stroke-width="2"/><path d="M1694.9-8.76h57c.5568 0 1.0914.2214 1.485.615.3936.3936.615.9282.615 1.485 0 .5568-.2214 1.0914-.615 1.485-.3936.3936-.9282.615-1.485.615h-57c-.5568 0-1.0914-.2214-1.485-.615-.3936-.3936-.615-.9282-.615-1.485 0-.5568.2214-1.0914.615-1.485.3936-.3936.9282-.615 1.485-.615m5.4 6h57c.5568 0 1.0914.2214 1.485.615.3936.3936.615.9282.615 1.485 0 .5568-.2214 1.0914-.615 1.485-.3936.3936-.9282.615-1.485.615h-57c-.5568 0-1.0914-.2214-1.485-.615-.3936-.3936-.615-.9282-.615-1.485 0-.5568.2214-1.0914.615-1.485.3936-.3936.9282-.615 1.485-.615m-5.4 6h57c.5568 0 1.0914.2214 1.485.615.3936.3936.615.9282.615 1.485 0 .5568-.2214 1.0914-.615 1.485-.3936.3936-.9282.615-1.485.615h-57c-.5568 0-1.0914-.2214-1.485-.615-.3936-.3936-.615-.9282-.615-1.485 0-.5568.2214-1.0914.615-1.485.3936-.3936.9282-.615 1.485-.615" fill="#22267a" stroke="#eae4dd" stroke-width=".6"/></g><g><path d="M1815.2 85.2c-1.8-4.332 2.25-6.18 2.4-18 .096-7.848-1.644-10.944.6-16.8 1.2174-3.2832 3.2892-6.1836 6-8.4 2.3904-1.9902 5.31-3.2412 8.4-3.6 5.664-.552 10.878 2.358 13.8 6 3.042 3.792 3.318 8.034 3.6 11.4 2.13 25.2 7.2 28.038 3.6 33-7.374 10.074-34.254 6.306-38.4-3.6z" fill="#eae4dd" stroke="#22267a" stroke-width="2"/><path d="M1808.6 96.6s0-13.2 9.6-18c9.6-4.8 10.8-7.2 10.8-7.2-1.3782-1.0074-2.5926-2.2218-3.6-3.6-1.8-2.4-4.8-11.4 1.2-15 6-3.6 7.2-2.4 9-3.6 1.8-1.2 4.2-3 4.2-3s4.2 2.4 4.8 7.2c.6 4.8-1.8 13.2-6 16.8 0 0 .6 4.2 6 6.6 5.4 2.4 11.4 4.8 12.6 9 1.2 4.2 1.8 10.8 1.8 10.8m45-45s-5.4-10.2 3-10.8c8.4-.6 16.2-1.8 16.2-1.8s2.4 1.8 1.8 3.6c-.6 1.8 4.8 2.4 4.8 2.4s0 9-5.4 12.6c-5.4 3.6-16.8 7.2-20.4-5.4z" fill="#eae4dd" stroke="#22267a" stroke-width="2"/><path d="M1890.308 96.696s0-13.2 9.6-18c9.6-4.8 10.8-7.2 10.8-7.2-1.3782-1.0074-2.5926-2.2218-3.6-3.6 0 0-5.508-11.496-1.908-17.496 3.6-6 9-5.4 9-5.4s12.288-1.248 13.944 7.476C1929.8 61.2 1925 67.2 1924.4 67.8c-.6.6-2.892 3.696-2.892 3.696s-.6 3 4.8 5.4c5.4 2.4 11.4 4.8 12.6 9 1.2 4.2 1.8 10.8 1.8 10.8" fill="#eae4dd" stroke="#22267a" stroke-width="2"/><path d="M1913 25.32l-10.71-7.2h-55.416l-9.474 7.2c-.636 0-1.2474-.2532-1.6968-.7032-.45-.4494-.7032-1.0608-.7032-1.6968v-27c0-.636.2532-1.2474.7032-1.6968.4494-.45 1.0608-.7032 1.6968-.7032h75.6c.636 0 1.2474.2532 1.6968.7032.45.4494.7032 1.0608.7032 1.6968v27c0 .636-.2532 1.2474-.7032 1.6968-.4494.45-1.0608.7032-1.6968.7032z" fill="none" stroke="#22267a" stroke-width="2"/><path d="M1844.9-3.48h57c.5568 0 1.0914.2214 1.485.615.3936.3936.615.9282.615 1.485 0 .5568-.2214 1.0914-.615 1.485-.3936.3936-.9282.615-1.485.615h-57c-.5568 0-1.0914-.2214-1.485-.615-.3936-.3936-.615-.9282-.615-1.485 0-.5568.2214-1.0914.615-1.485.3936-.3936.9282-.615 1.485-.615m5.4 6h57c.5568 0 1.0914.2214 1.485.615.3936.3936.615.9282.615 1.485 0 .5568-.2214 1.0914-.615 1.485-.3936.3936-.9282.615-1.485.615h-57c-.5568 0-1.0914-.2214-1.485-.615-.3936-.3936-.615-.9282-.615-1.485 0-.5568.2214-1.0914.615-1.485.3936-.3936.9282-.615 1.485-.615m-5.4 6h57c.5568 0 1.0914.2214 1.485.615.3936.3936.615.9282.615 1.485 0 .5568-.2214 1.0914-.615 1.485-.3936.3936-.9282.615-1.485.615h-57c-.5568 0-1.0914-.2214-1.485-.615-.3936-.3936-.615-.9282-.615-1.485 0-.5568.2214-1.0914.615-1.485.3936-.3936.9282-.615 1.485-.615" fill="#22267a" stroke="#eae4dd" stroke-width=".6"/></g><g><path d="M1965.2 85.2c-1.8-4.332 2.25-6.18 2.4-18 .096-7.848-1.644-10.944.6-16.8 1.2174-3.2832 3.2892-6.1836 6-8.4 2.3904-1.9902 5.31-3.2412 8.4-3.6 5.664-.552 10.878 2.358 13.8 6 3.042 3.792 3.318 8.034 3.6 11.4 2.13 25.2 7.2 28.038 3.6 33-7.374 10.074-34.254 6.306-38.4-3.6z" fill="#eae4dd" stroke="#22267a" stroke-width="2"/><path d="M1958.6 96.6s0-13.2 9.6-18c9.6-4.8 10.8-7.2 10.8-7.2-1.3782-1.0074-2.5926-2.2218-3.6-3.6-1.8-2.4-4.8-11.4 1.2-15 6-3.6 7.2-2.4 9-3.6 1.8-1.2 4.2-3 4.2-3s4.2 2.4 4.8 7.2c.6 4.8-1.8 13.2-6 16.8 0 0 .6 4.2 6 6.6 5.4 2.4 11.4 4.8 12.6 9 1.2 4.2 1.8 10.8 1.8 10.8m45-45s-5.4-10.2 3-10.8c8.4-.6 16.2-1.8 16.2-1.8s2.4 1.8 1.8 3.6c-.6 1.8 4.8 2.4 4.8 2.4s0 9-5.4 12.6c-5.4 3.6-16.8 7.2-20.4-5.4z" fill="#eae4dd" stroke="#22267a" stroke-width="2"/><path d="M2040.308 96.696s0-13.2 9.6-18c9.6-4.8 10.8-7.2 10.8-7.2-1.3782-1.0074-2.5926-2.2218-3.6-3.6 0 0-5.508-11.496-1.908-17.496 3.6-6 9-5.4 9-5.4s12.288-1.248 13.944 7.476C2079.8 61.2 2075 67.2 2074.4 67.8c-.6.6-2.892 3.696-2.892 3.696s-.6 3 4.8 5.4c5.4 2.4 11.4 4.8 12.6 9 1.2 4.2 1.8 10.8 1.8 10.8" fill="#eae4dd" stroke="#22267a" stroke-width="2"/><path d="M2063 30.28l-10.71-7.2h-55.416l-9.474 7.2c-.636 0-1.2474-.2532-1.6968-.7032-.45-.4494-.7032-1.0608-.7032-1.6968v-27c0-.636.2532-1.2474.7032-1.6968.4494-.45 1.0608-.7032 1.6968-.7032h75.6c.636 0 1.2474.2532 1.6968.7032.45.4494.7032 1.0608.7032 1.6968v27c0 .636-.2532 1.2474-.7032 1.6968-.4494.45-1.0608.7032-1.6968.7032z" fill="none" stroke="#22267a" stroke-width="2"/><path d="M1994.9 1.48h57c.5568 0 1.0914.2214 1.485.615.3936.3936.615.9282.615 1.485 0 .5568-.2214 1.0914-.615 1.485-.3936.3936-.9282.615-1.485.615h-57c-.5568 0-1.0914-.2214-1.485-.615-.3936-.3936-.615-.9282-.615-1.485 0-.5568.2214-1.0914.615-1.485.3936-.3936.9282-.615 1.485-.615m5.4 6h57c.5568 0 1.0914.2214 1.485.615.3936.3936.615.9282.615 1.485 0 .5568-.2214 1.0914-.615 1.485-.3936.3936-.9282.615-1.485.615h-57c-.5568 0-1.0914-.2214-1.485-.615-.3936-.3936-.615-.9282-.615-1.485 0-.5568.2214-1.0914.615-1.485.3936-.3936.9282-.615 1.485-.615m-5.4 6h57c.5568 0 1.0914.2214 1.485.615.3936.3936.615.9282.615 1.485 0 .5568-.2214 1.0914-.615 1.485-.3936.3936-.9282.615-1.485.615h-57c-.5568 0-1.0914-.2214-1.485-.615-.3936-.3936-.615-.9282-.615-1.485 0-.5568.2214-1.0914.615-1.485.3936-.3936.9282-.615 1.485-.615" fill="#22267a" stroke="#eae4dd" stroke-width=".6"/></g><g><path d="M2115.2 85.2c-1.8-4.332 2.25-6.18 2.4-18 .096-7.848-1.644-10.944.6-16.8 1.2174-3.2832 3.2892-6.1836 6-8.4 2.3904-1.9902 5.31-3.2412 8.4-3.6 5.664-.552 10.878 2.358 13.8 6 3.042 3.792 3.318 8.034 3.6 11.4 2.13 25.2 7.2 28.038 3.6 33-7.374 10.074-34.254 6.306-38.4-3.6z" fill="#eae4dd" stroke="#22267a" stroke-width="2"/><path d="M2108.6 96.6s0-13.2 9.6-18c9.6-4.8 10.8-7.2 10.8-7.2-1.3782-1.0074-2.5926-2.2218-3.6-3.6-1.8-2.4-4.8-11.4 1.2-15 6-3.6 7.2-2.4 9-3.6 1.8-1.2 4.2-3 4.2-3s4.2 2.4 4.8 7.2c.6 4.8-1.8 13.2-6 16.8 0 0 .6 4.2 6 6.6 5.4 2.4 11.4 4.8 12.6 9 1.2 4.2 1.8 10.8 1.8 10.8m45-45s-5.4-10.2 3-10.8c8.4-.6 16.2-1.8 16.2-1.8s2.4 1.8 1.8 3.6c-.6 1.8 4.8 2.4 4.8 2.4s0 9-5.4 12.6c-5.4 3.6-16.8 7.2-20.4-5.4z" fill="#eae4dd" stroke="#22267a" stroke-width="2"/><path d="M2190.308 96.696s0-13.2 9.6-18c9.6-4.8 10.8-7.2 10.8-7.2-1.3782-1.0074-2.5926-2.2218-3.6-3.6 0 0-5.508-11.496-1.908-17.496 3.6-6 9-5.4 9-5.4s12.288-1.248 13.944 7.476C2229.8 61.2 2225 67.2 2224.4 67.8c-.6.6-2.892 3.696-2.892 3.696s-.6 3 4.8 5.4c5.4 2.4 11.4 4.8 12.6 9 1.2 4.2 1.8 10.8 1.8 10.8" fill="#eae4dd" stroke="#22267a" stroke-width="2"/><path d="M2213 33.96l-10.71-7.2h-55.416l-9.474 7.2c-.636 0-1.2474-.2532-1.6968-.7032-.45-.4494-.7032-1.0608-.7032-1.6968v-27c0-.636.2532-1.2474.7032-1.6968.4494-.45 1.0608-.7032 1.6968-.7032h75.6c.636 0 1.2474.2532 1.6968.7032.45.4494.7032 1.0608.7032 1.6968v27c0 .636-.2532 1.2474-.7032 1.6968-.4494.45-1.0608.7032-1.6968.7032z" fill="none" stroke="#22267a" stroke-width="2"/><path d="M2144.9 5.16h57c.5568 0 1.0914.2214 1.485.615.3936.3936.615.9282.615 1.485 0 .5568-.2214 1.0914-.615 1.485-.3936.3936-.9282.615-1.485.615h-57c-.5568 0-1.0914-.2214-1.485-.615-.3936-.3936-.615-.9282-.615-1.485 0-.5568.2214-1.0914.615-1.485.3936-.3936.9282-.615 1.485-.615m5.4 6h57c.5568 0 1.0914.2214 1.485.615.3936.3936.615.9282.615 1.485 0 .5568-.2214 1.0914-.615 1.485-.3936.3936-.9282.615-1.485.615h-57c-.5568 0-1.0914-.2214-1.485-.615-.3936-.3936-.615-.9282-.615-1.485 0-.5568.2214-1.0914.615-1.485.3936-.3936.9282-.615 1.485-.615m-5.4 6h57c.5568 0 1.0914.2214 1.485.615.3936.3936.615.9282.615 1.485 0 .5568-.2214 1.0914-.615 1.485-.3936.3936-.9282.615-1.485.615h-57c-.5568 0-1.0914-.2214-1.485-.615-.3936-.3936-.615-.9282-.615-1.485 0-.5568.2214-1.0914.615-1.485.3936-.3936.9282-.615 1.485-.615" fill="#22267a" stroke="#eae4dd" stroke-width=".6"/></g><g><path d="M2265.2 85.2c-1.8-4.332 2.25-6.18 2.4-18 .096-7.848-1.644-10.944.6-16.8 1.2174-3.2832 3.2892-6.1836 6-8.4 2.3904-1.9902 5.31-3.2412 8.4-3.6 5.664-.552 10.878 2.358 13.8 6 3.042 3.792 3.318 8.034 3.6 11.4 2.13 25.2 7.2 28.038 3.6 33-7.374 10.074-34.254 6.306-38.4-3.6z" fill="#eae4dd" stroke="#22267a" stroke-width="2"/><path d="M2258.6 96.6s0-13.2 9.6-18c9.6-4.8 10.8-7.2 10.8-7.2-1.3782-1.0074-2.5926-2.2218-3.6-3.6-1.8-2.4-4.8-11.4 1.2-15 6-3.6 7.2-2.4 9-3.6 1.8-1.2 4.2-3 4.2-3s4.2 2.4 4.8 7.2c.6 4.8-1.8 13.2-6 16.8 0 0 .6 4.2 6 6.6 5.4 2.4 11.4 4.8 12.6 9 1.2 4.2 1.8 10.8 1.8 10.8m45-45s-5.4-10.2 3-10.8c8.4-.6 16.2-1.8 16.2-1.8s2.4 1.8 1.8 3.6c-.6 1.8 4.8 2.4 4.8 2.4s0 9-5.4 12.6c-5.4 3.6-16.8 7.2-20.4-5.4z" fill="#eae4dd" stroke="#22267a" stroke-width="2"/><path d="M2340.308 96.696s0-13.2 9.6-18c9.6-4.8 10.8-7.2 10.8-7.2-1.3782-1.0074-2.5926-2.2218-3.6-3.6 0 0-5.508-11.496-1.908-17.496 3.6-6 9-5.4 9-5.4s12.288-1.248 13.944 7.476C2379.8 61.2 2375 67.2 2374.4 67.8c-.6.6-2.892 3.696-2.892 3.696s-.6 3 4.8 5.4c5.4 2.4 11.4 4.8 12.6 9 1.2 4.2 1.8 10.8 1.8 10.8" fill="#eae4dd" stroke="#22267a" stroke-width="2"/><path d="M2363 35.4l-10.71-7.2h-55.416l-9.474 7.2c-.636 0-1.2474-.2532-1.6968-.7032-.45-.4494-.7032-1.0608-.7032-1.6968V6c0-.636.2532-1.2474.7032-1.6968.4494-.45 1.0608-.7032 1.6968-.7032h75.6c.636 0 1.2474.2532 1.6968.7032.45.4494.7032 1.0608.7032 1.6968v27c0 .636-.2532 1.2474-.7032 1.6968-.4494.45-1.0608.7032-1.6968.7032z" fill="none" stroke="#22267a" stroke-width="2"/><path d="M2294.9 6.6h57c.5568 0 1.0914.2214 1.485.615.3936.3936.615.9282.615 1.485 0 .5568-.2214 1.0914-.615 1.485-.3936.3936-.9282.615-1.485.615h-57c-.5568 0-1.0914-.2214-1.485-.615-.3936-.3936-.615-.9282-.615-1.485 0-.5568.2214-1.0914.615-1.485.3936-.3936.9282-.615 1.485-.615m5.4 6h57c.5568 0 1.0914.2214 1.485.615.3936.3936.615.9282.615 1.485 0 .5568-.2214 1.0914-.615 1.485-.3936.3936-.9282.615-1.485.615h-57c-.5568 0-1.0914-.2214-1.485-.615-.3936-.3936-.615-.9282-.615-1.485 0-.5568.2214-1.0914.615-1.485.3936-.3936.9282-.615 1.485-.615m-5.4 6h57c.5568 0 1.0914.2214 1.485.615.3936.3936.615.9282.615 1.485 0 .5568-.2214 1.0914-.615 1.485-.3936.3936-.9282.615-1.485.615h-57c-.5568 0-1.0914-.2214-1.485-.615-.3936-.3936-.615-.9282-.615-1.485 0-.5568.2214-1.0914.615-1.485.3936-.3936.9282-.615 1.485-.615" fill="#22267a" stroke="#eae4dd" stroke-width=".6"/></g></svg>