<svg xmlns="http://www.w3.org/2000/svg" viewBox="0 0 2400 100" width="2400" height="100"><g fill="#eae4dd" stroke="#22267a"><path d="M111.73 56.715c-.115-3-.72-6.09-.22-9 .565-3.28-.735-5.755-1.915-8.695-6.055 5.11-10.7.115-15.755-1.82l1-2c6.035 1.66 10.755.5 14.195-5.38 1.065-1.815 4.05-2.5 6.155-3.72 3.19.275.65 3.36 2 4.355l7.615-4.32h.45c6.06 1.5 9 6.285 11.345 11.39 1.17 2.545-.345 4.38-3.18 4.59-1.715.13-3.45 0-5.65 0 2.44 4.33 5.37 8.08 4.06 13.03z" stroke-width="2"/><path d="M121.545 40.465l5 .715c-.085-.5 0-1.18-.295-1.445-1.295-1.14-2.675-1.605-4.705.73zm-9.815 16.25l20.12-1.535c.45 4.195.965 8.385 1.32 12.59.195 2.295 1.155 3.665 3.34 4.62 1.705.75 4.205 1.32 3.585 4.24l-3.36 3.37-17.4 5.22h-4.425c-2.78-2.36-2.85-5.78-3-8.91-.305-6.52-.145-13.065-.18-19.595zm13.545-30.57h-.45c-.66-1.06-2.12-2.745-1.855-3.08 1.38-1.75.965-3.625 1.04-5.5.075-1.73-3.595-5.575-5.28-5.295-.269.061-.5225.1765-.7445.34-.222.1635-.4075.3715-.5455.61-1.12 2.155-2.14 4.365-3.195 6.555-1.2-1.39-1.39-4.14-.61-5.5 1.175-2.04 1.625-4.84 4.435-5.245 2.135-.31 3.925-1.55 6.64-.6 2.615.915 2.87 3.5 5.13 4.43 1.445.59.795 7.76-.5 9.05-1.34 1.39-2.705 2.82-4.065 4.235z" stroke-width="2"/><path d="M114.245 19.77c1.055-2.19 2.075-4.4 3.195-6.555.138-.2385.3235-.4465.5455-.61.222-.1635.4755-.279.7445-.34 1.685-.265 5.355 3.565 5.27 5.295-.075 1.88.34 3.755-1.04 5.5-.265.335 1.195 2 1.855 3.08l-7.615 4.32c-1.365-1 1.175-4.08-2-4.355l1.075-1c-.71-1.835-1.37-3.605-2.03-5.335zm.665 65.445h4.425q-.32 4.795-.64 9.585l-2.7-.875c-.19-1.07-.385-2.135-.58-3.205q-.25-2.745-.505-5.505zM136.735 80l3.36-3.37c2.165 1.675 3.7 4.38 7 4.23.225 0 .5.555.72.855-1.925-.32-2.915.5-2.95 2.445zM116 93.93l2.7.875.375.92c-.06 2.905-2.645 2.5-4.32 3.18-.88.36-1.94.285-2.92.41l-.5-1.085.59-.92z" stroke-width="2"/><path d="M144.86 84.16c.035-1.96 1.025-2.765 2.95-2.445 1.69 2.625.345 4.88-1 8.055zm-23.315-43.695c2.03-2.335 3.41-1.87 4.685-.73.295.265.21.95.295 1.445zm-33.575-4.65l-.67-2.125c2.565-3.055 4.85-2.61 7.525 1.475l-1 2z" stroke-width="2"/><g><path d="M54 35.86c-1.47.615-2.925 1.705-4.415 1.76-4.31.155-8.64-.105-13.41-.21 0 3.3.115 7.5-.045 11.68-.08 2.07-.67 4.12-1 6.175-5.165 1.405-9.905-.21-14.615-2.05-.175-4.07-.72-8.17-.45-12.215.81-12.28 2.335-8.87-6.64-17-2.84-2.58-4.5-6.445-6.735-9.725.56-.69 1.12-1.385 1.685-2.075 2.305 2 4.445 4.215 6.965 5.87 2.8235 1.8595 5.856 3.38 9.035 4.53 1 .365 2.655-1.055 4-1.66.685.525 1.415 1.06 2.125 1.615 1.36 1.135 2.69 2.3 4.035 3.45.335.315.675.625 1 .935v.115h.115c.235.065.57.06.69.215 4.3 5.72 10.595 6.21 16.97 6.5.235.675.455 1.385.69 2.09z" stroke-width="2"/><path d="M20.5 53.215c4.71 1.84 9.45 3.455 14.615 2.05 1.16 6.84 2.5 13.655 3.39 20.53.35 2.69-.245 5.5-.5 8.26-.36 3.725-.825 7.435-1.245 11.15l-4.31 1c-1.145-6.09-2.84-12.145-1.03-18.42.0835-.6325-.041-1.275-.355-1.83-1.16-2.37-2.39-4.705-3.835-7.525-3.6 10.105-12.465 14.195-20.315 19.39l-2.6-3.18C8 80.27 11.71 75.915 15.355 71.5c.845-1 1.715-2.215 2-3.465 1.17-4.915 2.105-9.875 3.145-14.82zm15.415-43.02c1.555 2.89 2.81 5.805 1.035 9.08-.79.575.765 3.705-2.025 2-1.835-1.125-3.4-2.69-5.09-4.055-.145-.97-.26-1.95-.45-2.91-.595-3.03.345-3.95 3.38-3.585 1.015.125 2.1-.335 3.15-.53z" stroke-width="2"/><path d="M35.5 9.5c.069.097.104.214.101.333-.0035.119-.0455.234-.1195.327-.074.0935-.1765.16-.2915.19-.7815.2665-1.6045.3915-2.43.37-3.035-.365-4 .555-3.38 3.585.19.96.305 1.94.45 2.91l-1.235-.795c-.115-.0715-.252-.0985-.385-.075-.1335.023-.2535.0945-.3375.2005-.084.106-.1255.2395-.1175.3745l.065 1.32-.07.08c-2.115-1.82-2.75-4.045-2.04-6.7.625-2.395 2.415-3.26 4.625-3.5 1.955-.215 3.91-.335 5.165 1.38z" stroke-width="2"/><path d="M29.835 17.225c1.69 1.365 3.255 2.93 5.09 4.055 2.79 1.7 1.235-1.43 2.025-2 1.59 1.76 1.255 4.54-.66 5.635-.605.345-2.685-.77-3.28-.4-1.345-1.155-1.175-.82-2.535-1.955-.685-.57-1.415-1.09-2.125-1.63 2-1.38-.5-1.71-.605-2.605l.07-.08 2-1zm2.58 78.99l4.31-1 4.62 2-1 2.28-5.535-.11-2.5-2.165c.055-.335.08-.67.105-1.005zM4.28 84.65l2.6 3.18c.205 1.58.405 3.16.635 4.95-3.23 1.16-3.39-1.865-4.415-3.365-1.245-1.83-1.455-3.735 1.18-4.765zM54 35.86c-.225-.705-.445-1.415-.67-2.125 2.565-3.055 4.85-2.61 7.5 1.5l-1 2zM8.34 12.185c-.565.69-1.125 1.385-1.685 2.075-2.305.085-4.18-.45-4.89-3.7 2.3 1.655 5.08-2.06 6.575 1.625zm27.32 14.85h-.115v-.115l.12-.03z" stroke-width="2"/><path d="M29 17.66l-.415.205c-.1075.055-.2305.072-.349.049-.1185-.023-.226-.0855-.305-.1765-.079-.0915-.125-.207-.131-.3275v-.5c-.008-.135.0335-.2685.1175-.3745.084-.106.204-.1775.3375-.2005.133-.0235.27.0035.385.075l.42.27c.1175.069.2055.179.247.309.041.13.0325.2705-.0245.3945-.0565.124-.1575.2225-.2825.2765z" stroke-width="2"/></g></g><g fill="#eae4dd" stroke="#22267a"><path d="M261.549107 56.504812c-.115-3-.72-6.09-.22-9 .565-3.28-.735-5.755-1.915-8.695-6.055 5.11-10.7.115-15.755-1.82l1-2c6.035 1.66 10.755.5 14.195-5.38 1.065-1.815 4.05-2.5 6.155-3.72 3.19.275.65 3.36 2 4.355l7.615-4.32h.45c6.06 1.5 9 6.285 11.345 11.39 1.17 2.545-.345 4.38-3.18 4.59-1.715.13-3.45 0-5.65 0 2.44 4.33 5.37 8.08 4.06 13.03z" stroke-width="2"/><path d="M271.364107 40.254812l5 .715c-.085-.5 0-1.18-.295-1.445-1.295-1.14-2.675-1.605-4.705.73zm-9.815 16.25l20.12-1.535c.45 4.195.965 8.385 1.32 12.59.195 2.295 1.155 3.665 3.34 4.62 1.705.75 4.205 1.32 3.585 4.24l-3.36 3.37-17.4 5.22h-4.425c-2.78-2.36-2.85-5.78-3-8.91-.305-6.52-.145-13.065-.18-19.595zm13.545-30.57h-.45c-.66-1.06-2.12-2.745-1.855-3.08 1.38-1.75.965-3.625 1.04-5.5.075-1.73-3.595-5.575-5.28-5.295-.269.061-.5225.1765-.7445.34-.222.1635-.4075.3715-.5455.61-1.12 2.155-2.14 4.365-3.195 6.555-1.2-1.39-1.39-4.14-.61-5.5 1.175-2.04 1.625-4.84 4.435-5.245 2.135-.31 3.925-1.55 6.64-.6 2.615.915 2.87 3.5 5.13 4.43 1.445.59.795 7.76-.5 9.05-1.34 1.39-2.705 2.82-4.065 4.235z" stroke-width="2"/><path d="M264.064107 19.559812c1.055-2.19 2.075-4.4 3.195-6.555.138-.2385.3235-.4465.5455-.61.222-.1635.4755-.279.7445-.34 1.685-.265 5.355 3.565 5.27 5.295-.075 1.88.34 3.755-1.04 5.5-.265.335 1.195 2 1.855 3.08l-7.615 4.32c-1.365-1 1.175-4.08-2-4.355l1.075-1c-.71-1.835-1.37-3.605-2.03-5.335zm.665 65.445h4.425q-.32 4.795-.64 9.585l-2.7-.875c-.19-1.07-.385-2.135-.58-3.205q-.25-2.745-.505-5.505zm21.825-5.215l3.36-3.37c2.165 1.675 3.7 4.38 7 4.23.225 0 .5.555.72.855-1.925-.32-2.915.5-2.95 2.445zm-20.735 13.93l2.7.875.375.92c-.06 2.905-2.645 2.5-4.32 3.18-.88.36-1.94.285-2.92.41l-.5-1.085.59-.92z" stroke-width="2"/><path d="M294.679107 83.949812c.035-1.96 1.025-2.765 2.95-2.445 1.69 2.625.345 4.88-1 8.055zm-23.315-43.695c2.03-2.335 3.41-1.87 4.685-.73.295.265.21.95.295 1.445zm-33.575-4.65l-.67-2.125c2.565-3.055 4.85-2.61 7.525 1.475l-1 2z" stroke-width="2"/><g><path d="M204.180893 35.649812c-1.47.615-2.925 1.705-4.415 1.76-4.31.155-8.64-.105-13.41-.21 0 3.3.115 7.5-.045 11.68-.08 2.07-.67 4.12-1 6.175-5.165 1.405-9.905-.21-14.615-2.05-.175-4.07-.72-8.17-.45-12.215.81-12.28 2.335-8.87-6.64-17-2.84-2.58-4.5-6.445-6.735-9.725.56-.69 1.12-1.385 1.685-2.075 2.305 2 4.445 4.215 6.965 5.87 2.8235 1.8595 5.856 3.38 9.035 4.53 1 .365 2.655-1.055 4-1.66.685.525 1.415 1.06 2.125 1.615 1.36 1.135 2.69 2.3 4.035 3.45.335.315.675.625 1 .935v.115h.115c.235.065.57.06.69.215 4.3 5.72 10.595 6.21 16.97 6.5.235.675.455 1.385.69 2.09z" stroke-width="2"/><path d="M170.680893 53.004812c4.71 1.84 9.45 3.455 14.615 2.05 1.16 6.84 2.5 13.655 3.39 20.53.35 2.69-.245 5.5-.5 8.26-.36 3.725-.825 7.435-1.245 11.15l-4.31 1c-1.145-6.09-2.84-12.145-1.03-18.42.0835-.6325-.041-1.275-.355-1.83-1.16-2.37-2.39-4.705-3.835-7.525-3.6 10.105-12.465 14.195-20.315 19.39l-2.6-3.18c3.685-4.37 7.395-8.725 11.04-13.14.845-1 1.715-2.215 2-3.465 1.17-4.915 2.105-9.875 3.145-14.82zm15.415-43.02c1.555 2.89 2.81 5.805 1.035 9.08-.79.575.765 3.705-2.025 2-1.835-1.125-3.4-2.69-5.09-4.055-.145-.97-.26-1.95-.45-2.91-.595-3.03.345-3.95 3.38-3.585 1.015.125 2.1-.335 3.15-.53z" stroke-width="2"/><path d="M185.680893 9.289812c.069.097.104.214.101.333-.0035.119-.0455.234-.1195.327-.074.0935-.1765.16-.2915.19-.7815.2665-1.6045.3915-2.43.37-3.035-.365-4 .555-3.38 3.585.19.96.305 1.94.45 2.91l-1.235-.795c-.115-.0715-.252-.0985-.385-.075-.1335.023-.2535.0945-.3375.2005-.084.106-.1255.2395-.1175.3745l.065 1.32-.07.08c-2.115-1.82-2.75-4.045-2.04-6.7.625-2.395 2.415-3.26 4.625-3.5 1.955-.215 3.91-.335 5.165 1.38z" stroke-width="2"/><path d="M180.015893 17.014812c1.69 1.365 3.255 2.93 5.09 4.055 2.79 1.7 1.235-1.43 2.025-2 1.59 1.76 1.255 4.54-.66 5.635-.605.345-2.685-.77-3.28-.4-1.345-1.155-1.175-.82-2.535-1.955-.685-.57-1.415-1.09-2.125-1.63 2-1.38-.5-1.71-.605-2.605l.07-.08 2-1zm2.58 78.99l4.31-1 4.62 2-1 2.28-5.535-.11-2.5-2.165c.055-.335.08-.67.105-1.005zm-28.135-11.565l2.6 3.18c.205 1.58.405 3.16.635 4.95-3.23 1.16-3.39-1.865-4.415-3.365-1.245-1.83-1.455-3.735 1.18-4.765zm49.72-48.79c-.225-.705-.445-1.415-.67-2.125 2.565-3.055 4.85-2.61 7.5 1.5l-1 2zm-45.66-23.675c-.565.69-1.125 1.385-1.685 2.075-2.305.085-4.18-.45-4.89-3.7 2.3 1.655 5.08-2.06 6.575 1.625zm27.32 14.85h-.115v-.115l.12-.03z" stroke-width="2"/><path d="M179.180893 17.449812l-.415.205c-.1075.055-.2305.072-.349.049-.1185-.023-.226-.0855-.305-.1765-.079-.0915-.125-.207-.131-.3275v-.5c-.008-.135.0335-.2685.1175-.3745.084-.106.204-.1775.3375-.2005.133-.0235.27.0035.385.075l.42.27c.1175.069.2055.179.247.309.041.13.0325.2705-.0245.3945-.0565.124-.1575.2225-.2825.2765z" stroke-width="2"/></g></g><g fill="#eae4dd" stroke="#22267a"><path d="M410.881176 55.582774c-.115-3-.72-6.09-.22-9 .565-3.28-.735-5.755-1.915-8.695-6.055 5.11-10.7.115-15.755-1.82l1-2c6.035 1.66 10.755.5 14.195-5.38 1.065-1.815 4.05-2.5 6.155-3.72 3.19.275.65 3.36 2 4.355l7.615-4.32h.45c6.06 1.5 9 6.285 11.345 11.39 1.17 2.545-.345 4.38-3.18 4.59-1.715.13-3.45 0-5.65 0 2.44 4.33 5.37 8.08 4.06 13.03z" stroke-width="2"/><path d="M420.696176 39.332774l5 .715c-.085-.5 0-1.18-.295-1.445-1.295-1.14-2.675-1.605-4.705.73zm-9.815 16.25l20.12-1.535c.45 4.195.965 8.385 1.32 12.59.195 2.295 1.155 3.665 3.34 4.62 1.705.75 4.205 1.32 3.585 4.24l-3.36 3.37-17.4 5.22h-4.425c-2.78-2.36-2.85-5.78-3-8.91-.305-6.52-.145-13.065-.18-19.595zm13.545-30.57h-.45c-.66-1.06-2.12-2.745-1.855-3.08 1.38-1.75.965-3.625 1.04-5.5.075-1.73-3.595-5.575-5.28-5.295-.269.061-.5225.1765-.7445.34-.222.1635-.4075.3715-.5455.61-1.12 2.155-2.14 4.365-3.195 6.555-1.2-1.39-1.39-4.14-.61-5.5 1.175-2.04 1.625-4.84 4.435-5.245 2.135-.31 3.925-1.55 6.64-.6 2.615.915 2.87 3.5 5.13 4.43 1.445.59.795 7.76-.5 9.05-1.34 1.39-2.705 2.82-4.065 4.235z" stroke-width="2"/><path d="M413.396176 18.637774c1.055-2.19 2.075-4.4 3.195-6.555.138-.2385.3235-.4465.5455-.61.222-.1635.4755-.279.7445-.34 1.685-.265 5.355 3.565 5.27 5.295-.075 1.88.34 3.755-1.04 5.5-.265.335 1.195 2 1.855 3.08l-7.615 4.32c-1.365-1 1.175-4.08-2-4.355l1.075-1c-.71-1.835-1.37-3.605-2.03-5.335zm.665 65.445h4.425q-.32 4.795-.64 9.585l-2.7-.875c-.19-1.07-.385-2.135-.58-3.205q-.25-2.745-.505-5.505zm21.825-5.215l3.36-3.37c2.165 1.675 3.7 4.38 7 4.23.225 0 .5.555.72.855-1.925-.32-2.915.5-2.95 2.445zm-20.735 13.93l2.7.875.375.92c-.06 2.905-2.645 2.5-4.32 3.18-.88.36-1.94.285-2.92.41l-.5-1.085.59-.92z" stroke-width="2"/><path d="M444.011176 83.027774c.035-1.96 1.025-2.765 2.95-2.445 1.69 2.625.345 4.88-1 8.055zm-23.315-43.695c2.03-2.335 3.41-1.87 4.685-.73.295.265.21.95.295 1.445zm-33.575-4.65l-.67-2.125c2.565-3.055 4.85-2.61 7.525 1.475l-1 2z" stroke-width="2"/><g><path d="M354.848824 34.727774c-1.47.615-2.925 1.705-4.415 1.76-4.31.155-8.64-.105-13.41-.21 0 3.3.115 7.5-.045 11.68-.08 2.07-.67 4.12-1 6.175-5.165 1.405-9.905-.21-14.615-2.05-.175-4.07-.72-8.17-.45-12.215.81-12.28 2.335-8.87-6.64-17-2.84-2.58-4.5-6.445-6.735-9.725.56-.69 1.12-1.385 1.685-2.075 2.305 2 4.445 4.215 6.965 5.87 2.8235 1.8595 5.856 3.38 9.035 4.53 1 .365 2.655-1.055 4-1.66.685.525 1.415 1.06 2.125 1.615 1.36 1.135 2.69 2.3 4.035 3.45.335.315.675.625 1 .935v.115h.115c.235.065.57.06.69.215 4.3 5.72 10.595 6.21 16.97 6.5.235.675.455 1.385.69 2.09z" stroke-width="2"/><path d="M321.348824 52.082774c4.71 1.84 9.45 3.455 14.615 2.05 1.16 6.84 2.5 13.655 3.39 20.53.35 2.69-.245 5.5-.5 8.26-.36 3.725-.825 7.435-1.245 11.15l-4.31 1c-1.145-6.09-2.84-12.145-1.03-18.42.0835-.6325-.041-1.275-.355-1.83-1.16-2.37-2.39-4.705-3.835-7.525-3.6 10.105-12.465 14.195-20.315 19.39l-2.6-3.18c3.685-4.37 7.395-8.725 11.04-13.14.845-1 1.715-2.215 2-3.465 1.17-4.915 2.105-9.875 3.145-14.82zm15.415-43.02c1.555 2.89 2.81 5.805 1.035 9.08-.79.575.765 3.705-2.025 2-1.835-1.125-3.4-2.69-5.09-4.055-.145-.97-.26-1.95-.45-2.91-.595-3.03.345-3.95 3.38-3.585 1.015.125 2.1-.335 3.15-.53z" stroke-width="2"/><path d="M336.348824 8.367774c.069.097.104.214.101.333-.0035.119-.0455.234-.1195.327-.074.0935-.1765.16-.2915.19-.7815.2665-1.6045.3915-2.43.37-3.035-.365-4 .555-3.38 3.585.19.96.305 1.94.45 2.91l-1.235-.795c-.115-.0715-.252-.0985-.385-.075-.1335.023-.2535.0945-.3375.2005-.084.106-.1255.2395-.1175.3745l.065 1.32-.07.08c-2.115-1.82-2.75-4.045-2.04-6.7.625-2.395 2.415-3.26 4.625-3.5 1.955-.215 3.91-.335 5.165 1.38z" stroke-width="2"/><path d="M330.683824 16.092774c1.69 1.365 3.255 2.93 5.09 4.055 2.79 1.7 1.235-1.43 2.025-2 1.59 1.76 1.255 4.54-.66 5.635-.605.345-2.685-.77-3.28-.4-1.345-1.155-1.175-.82-2.535-1.955-.685-.57-1.415-1.09-2.125-1.63 2-1.38-.5-1.71-.605-2.605l.07-.08 2-1zm2.58 78.99l4.31-1 4.62 2-1 2.28-5.535-.11-2.5-2.165c.055-.335.08-.67.105-1.005zm-28.135-11.565l2.6 3.18c.205 1.58.405 3.16.635 4.95-3.23 1.16-3.39-1.865-4.415-3.365-1.245-1.83-1.455-3.735 1.18-4.765zm49.72-48.79c-.225-.705-.445-1.415-.67-2.125 2.565-3.055 4.85-2.61 7.5 1.5l-1 2zm-45.66-23.675c-.565.69-1.125 1.385-1.685 2.075-2.305.085-4.18-.45-4.89-3.7 2.3 1.655 5.08-2.06 6.575 1.625zm27.32 14.85h-.115v-.115l.12-.03z" stroke-width="2"/><path d="M329.848824 16.527774l-.415.205c-.1075.055-.2305.072-.349.049-.1185-.023-.226-.0855-.305-.1765-.079-.0915-.125-.207-.131-.3275v-.5c-.008-.135.0335-.2685.1175-.3745.084-.106.204-.1775.3375-.2005.133-.0235.27.0035.385.075l.42.27c.1175.069.2055.179.247.309.041.13.0325.2705-.0245.3945-.0565.124-.1575.2225-.2825.2765z" stroke-width="2"/></g></g><g fill="#eae4dd" stroke="#22267a"><path d="M559.452905 54.783987c-.115-3-.72-6.09-.22-9 .565-3.28-.735-5.755-1.915-8.695-6.055 5.11-10.7.115-15.755-1.82l1-2c6.035 1.66 10.755.5 14.195-5.38 1.065-1.815 4.05-2.5 6.155-3.72 3.19.275.65 3.36 2 4.355l7.615-4.32h.45c6.06 1.5 9 6.285 11.345 11.39 1.17 2.545-.345 4.38-3.18 4.59-1.715.13-3.45 0-5.65 0 2.44 4.33 5.37 8.08 4.06 13.03z" stroke-width="2"/><path d="M569.267905 38.533987l5 .715c-.085-.5 0-1.18-.295-1.445-1.295-1.14-2.675-1.605-4.705.73zm-9.815 16.25l20.12-1.535c.45 4.195.965 8.385 1.32 12.59.195 2.295 1.155 3.665 3.34 4.62 1.705.75 4.205 1.32 3.585 4.24l-3.36 3.37-17.4 5.22h-4.425c-2.78-2.36-2.85-5.78-3-8.91-.305-6.52-.145-13.065-.18-19.595zm13.545-30.57h-.45c-.66-1.06-2.12-2.745-1.855-3.08 1.38-1.75.965-3.625 1.04-5.5.075-1.73-3.595-5.575-5.28-5.295-.269.061-.5225.1765-.7445.34-.222.1635-.4075.3715-.5455.61-1.12 2.155-2.14 4.365-3.195 6.555-1.2-1.39-1.39-4.14-.61-5.5 1.175-2.04 1.625-4.84 4.435-5.245 2.135-.31 3.925-1.55 6.64-.6 2.615.915 2.87 3.5 5.13 4.43 1.445.59.795 7.76-.5 9.05-1.34 1.39-2.705 2.82-4.065 4.235z" stroke-width="2"/><path d="M561.967905 17.838987c1.055-2.19 2.075-4.4 3.195-6.555.138-.2385.3235-.4465.5455-.61.222-.1635.4755-.279.7445-.34 1.685-.265 5.355 3.565 5.27 5.295-.075 1.88.34 3.755-1.04 5.5-.265.335 1.195 2 1.855 3.08l-7.615 4.32c-1.365-1 1.175-4.08-2-4.355l1.075-1c-.71-1.835-1.37-3.605-2.03-5.335zm.665 65.445h4.425q-.32 4.795-.64 9.585l-2.7-.875c-.19-1.07-.385-2.135-.58-3.205q-.25-2.745-.505-5.505zm21.825-5.215l3.36-3.37c2.165 1.675 3.7 4.38 7 4.23.225 0 .5.555.72.855-1.925-.32-2.915.5-2.95 2.445zm-20.735 13.93l2.7.875.375.92c-.06 2.905-2.645 2.5-4.32 3.18-.88.36-1.94.285-2.92.41l-.5-1.085.59-.92z" stroke-width="2"/><path d="M592.582905 82.228987c.035-1.96 1.025-2.765 2.95-2.445 1.69 2.625.345 4.88-1 8.055zm-23.315-43.695c2.03-2.335 3.41-1.87 4.685-.73.295.265.21.95.295 1.445zm-33.575-4.65l-.67-2.125c2.565-3.055 4.85-2.61 7.525 1.475l-1 2z" stroke-width="2"/><g><path d="M506.277095 33.928987c-1.47.615-2.925 1.705-4.415 1.76-4.31.155-8.64-.105-13.41-.21 0 3.3.115 7.5-.045 11.68-.08 2.07-.67 4.12-1 6.175-5.165 1.405-9.905-.21-14.615-2.05-.175-4.07-.72-8.17-.45-12.215.81-12.28 2.335-8.87-6.64-17-2.84-2.58-4.5-6.445-6.735-9.725.56-.69 1.12-1.385 1.685-2.075 2.305 2 4.445 4.215 6.965 5.87 2.8235 1.8595 5.856 3.38 9.035 4.53 1 .365 2.655-1.055 4-1.66.685.525 1.415 1.06 2.125 1.615 1.36 1.135 2.69 2.3 4.035 3.45.335.315.675.625 1 .935v.115h.115c.235.065.57.06.69.215 4.3 5.72 10.595 6.21 16.97 6.5.235.675.455 1.385.69 2.09z" stroke-width="2"/><path d="M472.777095 51.283987c4.71 1.84 9.45 3.455 14.615 2.05 1.16 6.84 2.5 13.655 3.39 20.53.35 2.69-.245 5.5-.5 8.26-.36 3.725-.825 7.435-1.245 11.15l-4.31 1c-1.145-6.09-2.84-12.145-1.03-18.42.0835-.6325-.041-1.275-.355-1.83-1.16-2.37-2.39-4.705-3.835-7.525-3.6 10.105-12.465 14.195-20.315 19.39l-2.6-3.18c3.685-4.37 7.395-8.725 11.04-13.14.845-1 1.715-2.215 2-3.465 1.17-4.915 2.105-9.875 3.145-14.82zm15.415-43.02c1.555 2.89 2.81 5.805 1.035 9.08-.79.575.765 3.705-2.025 2-1.835-1.125-3.4-2.69-5.09-4.055-.145-.97-.26-1.95-.45-2.91-.595-3.03.345-3.95 3.38-3.585 1.015.125 2.1-.335 3.15-.53z" stroke-width="2"/><path d="M487.777095 7.568987c.069.097.104.214.101.333-.0035.119-.0455.234-.1195.327-.074.0935-.1765.16-.2915.19-.7815.2665-1.6045.3915-2.43.37-3.035-.365-4 .555-3.38 3.585.19.96.305 1.94.45 2.91l-1.235-.795c-.115-.0715-.252-.0985-.385-.075-.1335.023-.2535.0945-.3375.2005-.084.106-.1255.2395-.1175.3745l.065 1.32-.07.08c-2.115-1.82-2.75-4.045-2.04-6.7.625-2.395 2.415-3.26 4.625-3.5 1.955-.215 3.91-.335 5.165 1.38z" stroke-width="2"/><path d="M482.112095 15.293987c1.69 1.365 3.255 2.93 5.09 4.055 2.79 1.7 1.235-1.43 2.025-2 1.59 1.76 1.255 4.54-.66 5.635-.605.345-2.685-.77-3.28-.4-1.345-1.155-1.175-.82-2.535-1.955-.685-.57-1.415-1.09-2.125-1.63 2-1.38-.5-1.71-.605-2.605l.07-.08 2-1zm2.58 78.99l4.31-1 4.62 2-1 2.28-5.535-.11-2.5-2.165c.055-.335.08-.67.105-1.005zm-28.135-11.565l2.6 3.18c.205 1.58.405 3.16.635 4.95-3.23 1.16-3.39-1.865-4.415-3.365-1.245-1.83-1.455-3.735 1.18-4.765zm49.72-48.79c-.225-.705-.445-1.415-.67-2.125 2.565-3.055 4.85-2.61 7.5 1.5l-1 2zm-45.66-23.675c-.565.69-1.125 1.385-1.685 2.075-2.305.085-4.18-.45-4.89-3.7 2.3 1.655 5.08-2.06 6.575 1.625zm27.32 14.85h-.115v-.115l.12-.03z" stroke-width="2"/><path d="M481.277095 15.728987l-.415.205c-.1075.055-.2305.072-.349.049-.1185-.023-.226-.0855-.305-.1765-.079-.0915-.125-.207-.131-.3275v-.5c-.008-.135.0335-.2685.1175-.3745.084-.106.204-.1775.3375-.2005.133-.0235.27.0035.385.075l.42.27c.1175.069.2055.179.247.309.041.13.0325.2705-.0245.3945-.0565.124-.1575.2225-.2825.2765z" stroke-width="2"/></g></g><g fill="#eae4dd" stroke="#22267a"><path d="M707.00309 54.417818c-.115-3-.72-6.09-.22-9 .565-3.28-.735-5.755-1.915-8.695-6.055 5.11-10.7.115-15.755-1.82l1-2c6.035 1.66 10.755.5 14.195-5.38 1.065-1.815 4.05-2.5 6.155-3.72 3.19.275.65 3.36 2 4.355l7.615-4.32h.45c6.06 1.5 9 6.285 11.345 11.39 1.17 2.545-.345 4.38-3.18 4.59-1.715.13-3.45 0-5.65 0 2.44 4.33 5.37 8.08 4.06 13.03z" stroke-width="2"/><path d="M716.81809 38.167818l5 .715c-.085-.5 0-1.18-.295-1.445-1.295-1.14-2.675-1.605-4.705.73zm-9.815 16.25l20.12-1.535c.45 4.195.965 8.385 1.32 12.59.195 2.295 1.155 3.665 3.34 4.62 1.705.75 4.205 1.32 3.585 4.24l-3.36 3.37-17.4 5.22h-4.425c-2.78-2.36-2.85-5.78-3-8.91-.305-6.52-.145-13.065-.18-19.595zm13.545-30.57h-.45c-.66-1.06-2.12-2.745-1.855-3.08 1.38-1.75.965-3.625 1.04-5.5.075-1.73-3.595-5.575-5.28-5.295-.269.061-.5225.1765-.7445.34-.222.1635-.4075.3715-.5455.61-1.12 2.155-2.14 4.365-3.195 6.555-1.2-1.39-1.39-4.14-.61-5.5 1.175-2.04 1.625-4.84 4.435-5.245 2.135-.31 3.925-1.55 6.64-.6 2.615.915 2.87 3.5 5.13 4.43 1.445.59.795 7.76-.5 9.05-1.34 1.39-2.705 2.82-4.065 4.235z" stroke-width="2"/><path d="M709.51809 17.472818c1.055-2.19 2.075-4.4 3.195-6.555.138-.2385.3235-.4465.5455-.61.222-.1635.4755-.279.7445-.34 1.685-.265 5.355 3.565 5.27 5.295-.075 1.88.34 3.755-1.04 5.5-.265.335 1.195 2 1.855 3.08l-7.615 4.32c-1.365-1 1.175-4.08-2-4.355l1.075-1c-.71-1.835-1.37-3.605-2.03-5.335zm.665 65.445h4.425q-.32 4.795-.64 9.585l-2.7-.875c-.19-1.07-.385-2.135-.58-3.205q-.25-2.745-.505-5.505zm21.825-5.215l3.36-3.37c2.165 1.675 3.7 4.38 7 4.23.225 0 .5.555.72.855-1.925-.32-2.915.5-2.95 2.445zm-20.735 13.93l2.7.875.375.92c-.06 2.905-2.645 2.5-4.32 3.18-.88.36-1.94.285-2.92.41l-.5-1.085.59-.92z" stroke-width="2"/><path d="M740.13309 81.862818c.035-1.96 1.025-2.765 2.95-2.445 1.69 2.625.345 4.88-1 8.055zm-23.315-43.695c2.03-2.335 3.41-1.87 4.685-.73.295.265.21.95.295 1.445zm-33.575-4.65l-.67-2.125c2.565-3.055 4.85-2.61 7.525 1.475l-1 2z" stroke-width="2"/><g><path d="M658.72691 33.562818c-1.47.615-2.925 1.705-4.415 1.76-4.31.155-8.64-.105-13.41-.21 0 3.3.115 7.5-.045 11.68-.08 2.07-.67 4.12-1 6.175-5.165 1.405-9.905-.21-14.615-2.05-.175-4.07-.72-8.17-.45-12.215.81-12.28 2.335-8.87-6.64-17-2.84-2.58-4.5-6.445-6.735-9.725.56-.69 1.12-1.385 1.685-2.075 2.305 2 4.445 4.215 6.965 5.87 2.8235 1.8595 5.856 3.38 9.035 4.53 1 .365 2.655-1.055 4-1.66.685.525 1.415 1.06 2.125 1.615 1.36 1.135 2.69 2.3 4.035 3.45.335.315.675.625 1 .935v.115h.115c.235.065.57.06.69.215 4.3 5.72 10.595 6.21 16.97 6.5.235.675.455 1.385.69 2.09z" stroke-width="2"/><path d="M625.22691 50.917818c4.71 1.84 9.45 3.455 14.615 2.05 1.16 6.84 2.5 13.655 3.39 20.53.35 2.69-.245 5.5-.5 8.26-.36 3.725-.825 7.435-1.245 11.15l-4.31 1c-1.145-6.09-2.84-12.145-1.03-18.42.0835-.6325-.041-1.275-.355-1.83-1.16-2.37-2.39-4.705-3.835-7.525-3.6 10.105-12.465 14.195-20.315 19.39l-2.6-3.18c3.685-4.37 7.395-8.725 11.04-13.14.845-1 1.715-2.215 2-3.465 1.17-4.915 2.105-9.875 3.145-14.82zm15.415-43.02c1.555 2.89 2.81 5.805 1.035 9.08-.79.575.765 3.705-2.025 2-1.835-1.125-3.4-2.69-5.09-4.055-.145-.97-.26-1.95-.45-2.91-.595-3.03.345-3.95 3.38-3.585 1.015.125 2.1-.335 3.15-.53z" stroke-width="2"/><path d="M640.22691 7.202818c.069.097.104.214.101.333-.0035.119-.0455.234-.1195.327-.074.0935-.1765.16-.2915.19-.7815.2665-1.6045.3915-2.43.37-3.035-.365-4 .555-3.38 3.585.19.96.305 1.94.45 2.91l-1.235-.795c-.115-.0715-.252-.0985-.385-.075-.1335.023-.2535.0945-.3375.2005-.084.106-.1255.2395-.1175.3745l.065 1.32-.07.08c-2.115-1.82-2.75-4.045-2.04-6.7.625-2.395 2.415-3.26 4.625-3.5 1.955-.215 3.91-.335 5.165 1.38z" stroke-width="2"/><path d="M634.56191 14.927818c1.69 1.365 3.255 2.93 5.09 4.055 2.79 1.7 1.235-1.43 2.025-2 1.59 1.76 1.255 4.54-.66 5.635-.605.345-2.685-.77-3.28-.4-1.345-1.155-1.175-.82-2.535-1.955-.685-.57-1.415-1.09-2.125-1.63 2-1.38-.5-1.71-.605-2.605l.07-.08 2-1zm2.58 78.99l4.31-1 4.62 2-1 2.28-5.535-.11-2.5-2.165c.055-.335.08-.67.105-1.005zm-28.135-11.565l2.6 3.18c.205 1.58.405 3.16.635 4.95-3.23 1.16-3.39-1.865-4.415-3.365-1.245-1.83-1.455-3.735 1.18-4.765zm49.72-48.79c-.225-.705-.445-1.415-.67-2.125 2.565-3.055 4.85-2.61 7.5 1.5l-1 2zm-45.66-23.675c-.565.69-1.125 1.385-1.685 2.075-2.305.085-4.18-.45-4.89-3.7 2.3 1.655 5.08-2.06 6.575 1.625zm27.32 14.85h-.115v-.115l.12-.03z" stroke-width="2"/><path d="M633.72691 15.362818l-.415.205c-.1075.055-.2305.072-.349.049-.1185-.023-.226-.0855-.305-.1765-.079-.0915-.125-.207-.131-.3275v-.5c-.008-.135.0335-.2685.1175-.3745.084-.106.204-.1775.3375-.2005.133-.0235.27.0035.385.075l.42.27c.1175.069.2055.179.247.309.041.13.0325.2705-.0245.3945-.0565.124-.1575.2225-.2825.2765z" stroke-width="2"/></g></g><g fill="#eae4dd" stroke="#22267a"><path d="M853.95672 54.258868c-.115-3-.72-6.09-.22-9 .565-3.28-.735-5.755-1.915-8.695-6.055 5.11-10.7.115-15.755-1.82l1-2c6.035 1.66 10.755.5 14.195-5.38 1.065-1.815 4.05-2.5 6.155-3.72 3.19.275.65 3.36 2 4.355l7.615-4.32h.45c6.06 1.5 9 6.285 11.345 11.39 1.17 2.545-.345 4.38-3.18 4.59-1.715.13-3.45 0-5.65 0 2.44 4.33 5.37 8.08 4.06 13.03z" stroke-width="2"/><path d="M863.77172 38.008868l5 .715c-.085-.5 0-1.18-.295-1.445-1.295-1.14-2.675-1.605-4.705.73zm-9.815 16.25l20.12-1.535c.45 4.195.965 8.385 1.32 12.59.195 2.295 1.155 3.665 3.34 4.62 1.705.75 4.205 1.32 3.585 4.24l-3.36 3.37-17.4 5.22h-4.425c-2.78-2.36-2.85-5.78-3-8.91-.305-6.52-.145-13.065-.18-19.595zm13.545-30.57h-.45c-.66-1.06-2.12-2.745-1.855-3.08 1.38-1.75.965-3.625 1.04-5.5.075-1.73-3.595-5.575-5.28-5.295-.269.061-.5225.1765-.7445.34-.222.1635-.4075.3715-.5455.61-1.12 2.155-2.14 4.365-3.195 6.555-1.2-1.39-1.39-4.14-.61-5.5 1.175-2.04 1.625-4.84 4.435-5.245 2.135-.31 3.925-1.55 6.64-.6 2.615.915 2.87 3.5 5.13 4.43 1.445.59.795 7.76-.5 9.05-1.34 1.39-2.705 2.82-4.065 4.235z" stroke-width="2"/><path d="M856.47172 17.313868c1.055-2.19 2.075-4.4 3.195-6.555.138-.2385.3235-.4465.5455-.61.222-.1635.4755-.279.7445-.34 1.685-.265 5.355 3.565 5.27 5.295-.075 1.88.34 3.755-1.04 5.5-.265.335 1.195 2 1.855 3.08l-7.615 4.32c-1.365-1 1.175-4.08-2-4.355l1.075-1c-.71-1.835-1.37-3.605-2.03-5.335zm.665 65.445h4.425q-.32 4.795-.64 9.585l-2.7-.875c-.19-1.07-.385-2.135-.58-3.205q-.25-2.745-.505-5.505zm21.825-5.215l3.36-3.37c2.165 1.675 3.7 4.38 7 4.23.225 0 .5.555.72.855-1.925-.32-2.915.5-2.95 2.445zm-20.735 13.93l2.7.875.375.92c-.06 2.905-2.645 2.5-4.32 3.18-.88.36-1.94.285-2.92.41l-.5-1.085.59-.92z" stroke-width="2"/><path d="M887.08672 81.703868c.035-1.96 1.025-2.765 2.95-2.445 1.69 2.625.345 4.88-1 8.055zm-23.315-43.695c2.03-2.335 3.41-1.87 4.685-.73.295.265.21.95.295 1.445zm-33.575-4.65l-.67-2.125c2.565-3.055 4.85-2.61 7.525 1.475l-1 2z" stroke-width="2"/><g><path d="M811.77328 33.403868c-1.47.615-2.925 1.705-4.415 1.76-4.31.155-8.64-.105-13.41-.21 0 3.3.115 7.5-.045 11.68-.08 2.07-.67 4.12-1 6.175-5.165 1.405-9.905-.21-14.615-2.05-.175-4.07-.72-8.17-.45-12.215.81-12.28 2.335-8.87-6.64-17-2.84-2.58-4.5-6.445-6.735-9.725.56-.69 1.12-1.385 1.685-2.075 2.305 2 4.445 4.215 6.965 5.87 2.8235 1.8595 5.856 3.38 9.035 4.53 1 .365 2.655-1.055 4-1.66.685.525 1.415 1.06 2.125 1.615 1.36 1.135 2.69 2.3 4.035 3.45.335.315.675.625 1 .935v.115h.115c.235.065.57.06.69.215 4.3 5.72 10.595 6.21 16.97 6.5.235.675.455 1.385.69 2.09zM778.27328 50.758868c4.71 1.84 9.45 3.455 14.615 2.05 1.16 6.84 2.5 13.655 3.39 20.53.35 2.69-.245 5.5-.5 8.26-.36 3.725-.825 7.435-1.245 11.15l-4.31 1c-1.145-6.09-2.84-12.145-1.03-18.42.0835-.6325-.041-1.275-.355-1.83-1.16-2.37-2.39-4.705-3.835-7.525-3.6 10.105-12.465 14.195-20.315 19.39l-2.6-3.18c3.685-4.37 7.395-8.725 11.04-13.14.845-1 1.715-2.215 2-3.465 1.17-4.915 2.105-9.875 3.145-14.82zm15.415-43.02c1.555 2.89 2.81 5.805 1.035 9.08-.79.575.765 3.705-2.025 2-1.835-1.125-3.4-2.69-5.09-4.055-.145-.97-.26-1.95-.45-2.91-.595-3.03.345-3.95 3.38-3.585 1.015.125 2.1-.335 3.15-.53z" stroke-width="2"/><path d="M793.27328 7.043868c.069.097.104.214.101.333-.0035.119-.0455.234-.1195.327-.074.0935-.1765.16-.2915.19-.7815.2665-1.6045.3915-2.43.37-3.035-.365-4 .555-3.38 3.585.19.96.305 1.94.45 2.91l-1.235-.795c-.115-.0715-.252-.0985-.385-.075-.1335.023-.2535.0945-.3375.2005-.084.106-.1255.2395-.1175.3745l.065 1.32-.07.08c-2.115-1.82-2.75-4.045-2.04-6.7.625-2.395 2.415-3.26 4.625-3.5 1.955-.215 3.91-.335 5.165 1.38z" stroke-width="2"/><path d="M787.60828 14.768868c1.69 1.365 3.255 2.93 5.09 4.055 2.79 1.7 1.235-1.43 2.025-2 1.59 1.76 1.255 4.54-.66 5.635-.605.345-2.685-.77-3.28-.4-1.345-1.155-1.175-.82-2.535-1.955-.685-.57-1.415-1.09-2.125-1.63 2-1.38-.5-1.71-.605-2.605l.07-.08 2-1zm2.58 78.99l4.31-1 4.62 2-1 2.28-5.535-.11-2.5-2.165c.055-.335.08-.67.105-1.005zm-28.135-11.565l2.6 3.18c.205 1.58.405 3.16.635 4.95-3.23 1.16-3.39-1.865-4.415-3.365-1.245-1.83-1.455-3.735 1.18-4.765zm49.72-48.79c-.225-.705-.445-1.415-.67-2.125 2.565-3.055 4.85-2.61 7.5 1.5l-1 2zm-45.66-23.675c-.565.69-1.125 1.385-1.685 2.075-2.305.085-4.18-.45-4.89-3.7 2.3 1.655 5.08-2.06 6.575 1.625zm27.32 14.85h-.115v-.115l.12-.03z" stroke-width="2"/><path d="M786.77328 15.203868l-.415.205c-.1075.055-.2305.072-.349.049-.1185-.023-.226-.0855-.305-.1765-.079-.0915-.125-.207-.131-.3275v-.5c-.008-.135.0335-.2685.1175-.3745.084-.106.204-.1775.3375-.2005.133-.0235.27.0035.385.075l.42.27c.1175.069.2055.179.247.309.041.13.0325.2705-.0245.3945-.0565.124-.1575.2225-.2825.2765z" stroke-width="2"/></g></g><g fill="#eae4dd" stroke="#22267a"><path d="M1001.29889 54.215032c-.115-3-.72-6.09-.22-9 .565-3.28-.735-5.755-1.915-8.695-6.055 5.11-10.7.115-15.755-1.82l1-2c6.035 1.66 10.755.5 14.195-5.38 1.065-1.815 4.05-2.5 6.155-3.72 3.19.275.65 3.36 2 4.355l7.615-4.32h.45c6.06 1.5 9 6.285 11.345 11.39 1.17 2.545-.345 4.38-3.18 4.59-1.715.13-3.45 0-5.65 0 2.44 4.33 5.37 8.08 4.06 13.03z" stroke-width="2"/><path d="M1011.11389 37.965032l5 .715c-.085-.5 0-1.18-.295-1.445-1.295-1.14-2.675-1.605-4.705.73zm-9.815 16.25l20.12-1.535c.45 4.195.965 8.385 1.32 12.59.195 2.295 1.155 3.665 3.34 4.62 1.705.75 4.205 1.32 3.585 4.24l-3.36 3.37-17.4 5.22h-4.425c-2.78-2.36-2.85-5.78-3-8.91-.305-6.52-.145-13.065-.18-19.595zm13.545-30.57h-.45c-.66-1.06-2.12-2.745-1.855-3.08 1.38-1.75.965-3.625 1.04-5.5.075-1.73-3.595-5.575-5.28-5.295-.269.061-.5225.1765-.7445.34-.222.1635-.4075.3715-.5455.61-1.12 2.155-2.14 4.365-3.195 6.555-1.2-1.39-1.39-4.14-.61-5.5 1.175-2.04 1.625-4.84 4.435-5.245 2.135-.31 3.925-1.55 6.64-.6 2.615.915 2.87 3.5 5.13 4.43 1.445.59.795 7.76-.5 9.05-1.34 1.39-2.705 2.82-4.065 4.235z" stroke-width="2"/><path d="M1003.81389 17.270032c1.055-2.19 2.075-4.4 3.195-6.555.138-.2385.3235-.4465.5455-.61.222-.1635.4755-.279.7445-.34 1.685-.265 5.355 3.565 5.27 5.295-.075 1.88.34 3.755-1.04 5.5-.265.335 1.195 2 1.855 3.08l-7.615 4.32c-1.365-1 1.175-4.08-2-4.355l1.075-1c-.71-1.835-1.37-3.605-2.03-5.335zm.665 65.445h4.425q-.32 4.795-.64 9.585l-2.7-.875c-.19-1.07-.385-2.135-.58-3.205q-.25-2.745-.505-5.505zm21.825-5.215l3.36-3.37c2.165 1.675 3.7 4.38 7 4.23.225 0 .5.555.72.855-1.925-.32-2.915.5-2.95 2.445zm-20.735 13.93l2.7.875.375.92c-.06 2.905-2.645 2.5-4.32 3.18-.88.36-1.94.285-2.92.41l-.5-1.085.59-.92z" stroke-width="2"/><path d="M1034.42889 81.660032c.035-1.96 1.025-2.765 2.95-2.445 1.69 2.625.345 4.88-1 8.055zm-23.315-43.695c2.03-2.335 3.41-1.87 4.685-.73.295.265.21.95.295 1.445zm-33.575-4.65l-.67-2.125c2.565-3.055 4.85-2.61 7.525 1.475l-1 2z" stroke-width="2"/><g><path d="M964.43111 33.360032c-1.47.615-2.925 1.705-4.415 1.76-4.31.155-8.64-.105-13.41-.21 0 3.3.115 7.5-.045 11.68-.08 2.07-.67 4.12-1 6.175-5.165 1.405-9.905-.21-14.615-2.05-.175-4.07-.72-8.17-.45-12.215.81-12.28 2.335-8.87-6.64-17-2.84-2.58-4.5-6.445-6.735-9.725.56-.69 1.12-1.385 1.685-2.075 2.305 2 4.445 4.215 6.965 5.87 2.8235 1.8595 5.856 3.38 9.035 4.53 1 .365 2.655-1.055 4-1.66.685.525 1.415 1.06 2.125 1.615 1.36 1.135 2.69 2.3 4.035 3.45.335.315.675.625 1 .935v.115h.115c.235.065.57.06.69.215 4.3 5.72 10.595 6.21 16.97 6.5.235.675.455 1.385.69 2.09z" stroke-width="2"/><path d="M930.93111 50.715032c4.71 1.84 9.45 3.455 14.615 2.05 1.16 6.84 2.5 13.655 3.39 20.53.35 2.69-.245 5.5-.5 8.26-.36 3.725-.825 7.435-1.245 11.15l-4.31 1c-1.145-6.09-2.84-12.145-1.03-18.42.0835-.6325-.041-1.275-.355-1.83-1.16-2.37-2.39-4.705-3.835-7.525-3.6 10.105-12.465 14.195-20.315 19.39l-2.6-3.18c3.685-4.37 7.395-8.725 11.04-13.14.845-1 1.715-2.215 2-3.465 1.17-4.915 2.105-9.875 3.145-14.82zm15.415-43.02c1.555 2.89 2.81 5.805 1.035 9.08-.79.575.765 3.705-2.025 2-1.835-1.125-3.4-2.69-5.09-4.055-.145-.97-.26-1.95-.45-2.91-.595-3.03.345-3.95 3.38-3.585 1.015.125 2.1-.335 3.15-.53z" stroke-width="2"/><path d="M945.93111 7.000032c.069.097.104.214.101.333-.0035.119-.0455.234-.1195.327-.074.0935-.1765.16-.2915.19-.7815.2665-1.6045.3915-2.43.37-3.035-.365-4 .555-3.38 3.585.19.96.305 1.94.45 2.91l-1.235-.795c-.115-.0715-.252-.0985-.385-.075-.1335.023-.2535.0945-.3375.2005-.084.106-.1255.2395-.1175.3745l.065 1.32-.07.08c-2.115-1.82-2.75-4.045-2.04-6.7.625-2.395 2.415-3.26 4.625-3.5 1.955-.215 3.91-.335 5.165 1.38z" stroke-width="2"/><path d="M940.26611 14.725032c1.69 1.365 3.255 2.93 5.09 4.055 2.79 1.7 1.235-1.43 2.025-2 1.59 1.76 1.255 4.54-.66 5.635-.605.345-2.685-.77-3.28-.4-1.345-1.155-1.175-.82-2.535-1.955-.685-.57-1.415-1.09-2.125-1.63 2-1.38-.5-1.71-.605-2.605l.07-.08 2-1zm2.58 78.99l4.31-1 4.62 2-1 2.28-5.535-.11-2.5-2.165c.055-.335.08-.67.105-1.005zm-28.135-11.565l2.6 3.18c.205 1.58.405 3.16.635 4.95-3.23 1.16-3.39-1.865-4.415-3.365-1.245-1.83-1.455-3.735 1.18-4.765zm49.72-48.79c-.225-.705-.445-1.415-.67-2.125 2.565-3.055 4.85-2.61 7.5 1.5l-1 2zm-45.66-23.675c-.565.69-1.125 1.385-1.685 2.075-2.305.085-4.18-.45-4.89-3.7 2.3 1.655 5.08-2.06 6.575 1.625zm27.32 14.85h-.115v-.115l.12-.03z" stroke-width="2"/><path d="M939.43111 15.160032l-.415.205c-.1075.055-.2305.072-.349.049-.1185-.023-.226-.0855-.305-.1765-.079-.0915-.125-.207-.131-.3275v-.5c-.008-.135.0335-.2685.1175-.3745.084-.106.204-.1775.3375-.2005.133-.0235.27.0035.385.075l.42.27c.1175.069.2055.179.247.309.041.13.0325.2705-.0245.3945-.0565.124-.1575.2225-.2825.2765z" stroke-width="2"/></g></g><g fill="#eae4dd" stroke="#22267a"><path d="M1149.320554 54.613305c-.115-3-.72-6.09-.22-9 .565-3.28-.735-5.755-1.915-8.695-6.055 5.11-10.7.115-15.755-1.82l1-2c6.035 1.66 10.755.5 14.195-5.38 1.065-1.815 4.05-2.5 6.155-3.72 3.19.275.65 3.36 2 4.355l7.615-4.32h.45c6.06 1.5 9 6.285 11.345 11.39 1.17 2.545-.345 4.38-3.18 4.59-1.715.13-3.45 0-5.65 0 2.44 4.33 5.37 8.08 4.06 13.03z" stroke-width="2"/><path d="M1159.135554 38.363305l5 .715c-.085-.5 0-1.18-.295-1.445-1.295-1.14-2.675-1.605-4.705.73zm-9.815 16.25l20.12-1.535c.45 4.195.965 8.385 1.32 12.59.195 2.295 1.155 3.665 3.34 4.62 1.705.75 4.205 1.32 3.585 4.24l-3.36 3.37-17.4 5.22h-4.425c-2.78-2.36-2.85-5.78-3-8.91-.305-6.52-.145-13.065-.18-19.595zm13.545-30.57h-.45c-.66-1.06-2.12-2.745-1.855-3.08 1.38-1.75.965-3.625 1.04-5.5.075-1.73-3.595-5.575-5.28-5.295-.269.061-.5225.1765-.7445.34-.222.1635-.4075.3715-.5455.61-1.12 2.155-2.14 4.365-3.195 6.555-1.2-1.39-1.39-4.14-.61-5.5 1.175-2.04 1.625-4.84 4.435-5.245 2.135-.31 3.925-1.55 6.64-.6 2.615.915 2.87 3.5 5.13 4.43 1.445.59.795 7.76-.5 9.05-1.34 1.39-2.705 2.82-4.065 4.235z" stroke-width="2"/><path d="M1151.835554 17.668305c1.055-2.19 2.075-4.4 3.195-6.555.138-.2385.3235-.4465.5455-.61.222-.1635.4755-.279.7445-.34 1.685-.265 5.355 3.565 5.27 5.295-.075 1.88.34 3.755-1.04 5.5-.265.335 1.195 2 1.855 3.08l-7.615 4.32c-1.365-1 1.175-4.08-2-4.355l1.075-1c-.71-1.835-1.37-3.605-2.03-5.335zm.665 65.445h4.425q-.32 4.795-.64 9.585l-2.7-.875c-.19-1.07-.385-2.135-.58-3.205q-.25-2.745-.505-5.505zm21.825-5.215l3.36-3.37c2.165 1.675 3.7 4.38 7 4.23.225 0 .5.555.72.855-1.925-.32-2.915.5-2.95 2.445zm-20.735 13.93l2.7.875.375.92c-.06 2.905-2.645 2.5-4.32 3.18-.88.36-1.94.285-2.92.41l-.5-1.085.59-.92z" stroke-width="2"/><path d="M1182.450554 82.058305c.035-1.96 1.025-2.765 2.95-2.445 1.69 2.625.345 4.88-1 8.055zm-23.315-43.695c2.03-2.335 3.41-1.87 4.685-.73.295.265.21.95.295 1.445zm-33.575-4.65l-.67-2.125c2.565-3.055 4.85-2.61 7.525 1.475l-1 2z" stroke-width="2"/><g><path d="M1116.409446 33.758305c-1.47.615-2.925 1.705-4.415 1.76-4.31.155-8.64-.105-13.41-.21 0 3.3.115 7.5-.045 11.68-.08 2.07-.67 4.12-1 6.175-5.165 1.405-9.905-.21-14.615-2.05-.175-4.07-.72-8.17-.45-12.215.81-12.28 2.335-8.87-6.64-17-2.84-2.58-4.5-6.445-6.735-9.725.56-.69 1.12-1.385 1.685-2.075 2.305 2 4.445 4.215 6.965 5.87 2.8235 1.8595 5.856 3.38 9.035 4.53 1 .365 2.655-1.055 4-1.66.685.525 1.415 1.06 2.125 1.615 1.36 1.135 2.69 2.3 4.035 3.45.335.315.675.625 1 .935v.115h.115c.235.065.57.06.69.215 4.3 5.72 10.595 6.21 16.97 6.5.235.675.455 1.385.69 2.09z" stroke-width="2"/><path d="M1082.909446 51.113305c4.71 1.84 9.45 3.455 14.615 2.05 1.16 6.84 2.5 13.655 3.39 20.53.35 2.69-.245 5.5-.5 8.26-.36 3.725-.825 7.435-1.245 11.15l-4.31 1c-1.145-6.09-2.84-12.145-1.03-18.42.0835-.6325-.041-1.275-.355-1.83-1.16-2.37-2.39-4.705-3.835-7.525-3.6 10.105-12.465 14.195-20.315 19.39l-2.6-3.18c3.685-4.37 7.395-8.725 11.04-13.14.845-1 1.715-2.215 2-3.465 1.17-4.915 2.105-9.875 3.145-14.82zm15.415-43.02c1.555 2.89 2.81 5.805 1.035 9.08-.79.575.765 3.705-2.025 2-1.835-1.125-3.4-2.69-5.09-4.055-.145-.97-.26-1.95-.45-2.91-.595-3.03.345-3.95 3.38-3.585 1.015.125 2.1-.335 3.15-.53z" stroke-width="2"/><path d="M1097.909446 7.398305c.069.097.104.214.101.333-.0035.119-.0455.234-.1195.327-.074.0935-.1765.16-.2915.19-.7815.2665-1.6045.3915-2.43.37-3.035-.365-4 .555-3.38 3.585.19.96.305 1.94.45 2.91l-1.235-.795c-.115-.0715-.252-.0985-.385-.075-.1335.023-.2535.0945-.3375.2005-.084.106-.1255.2395-.1175.3745l.065 1.32-.07.08c-2.115-1.82-2.75-4.045-2.04-6.7.625-2.395 2.415-3.26 4.625-3.5 1.955-.215 3.91-.335 5.165 1.38z" stroke-width="2"/><path d="M1092.244446 15.123305c1.69 1.365 3.255 2.93 5.09 4.055 2.79 1.7 1.235-1.43 2.025-2 1.59 1.76 1.255 4.54-.66 5.635-.605.345-2.685-.77-3.28-.4-1.345-1.155-1.175-.82-2.535-1.955-.685-.57-1.415-1.09-2.125-1.63 2-1.38-.5-1.71-.605-2.605l.07-.08 2-1zm2.58 78.99l4.31-1 4.62 2-1 2.28-5.535-.11-2.5-2.165c.055-.335.08-.67.105-1.005zm-28.135-11.565l2.6 3.18c.205 1.58.405 3.16.635 4.95-3.23 1.16-3.39-1.865-4.415-3.365-1.245-1.83-1.455-3.735 1.18-4.765zm49.72-48.79c-.225-.705-.445-1.415-.67-2.125 2.565-3.055 4.85-2.61 7.5 1.5l-1 2zm-45.66-23.675c-.565.69-1.125 1.385-1.685 2.075-2.305.085-4.18-.45-4.89-3.7 2.3 1.655 5.08-2.06 6.575 1.625zm27.32 14.85h-.115v-.115l.12-.03z" stroke-width="2"/><path d="M1091.409446 15.558305l-.415.205c-.1075.055-.2305.072-.349.049-.1185-.023-.226-.0855-.305-.1765-.079-.0915-.125-.207-.131-.3275v-.5c-.008-.135.0335-.2685.1175-.3745.084-.106.204-.1775.3375-.2005.133-.0235.27.0035.385.075l.42.27c.1175.069.2055.179.247.309.041.13.0325.2705-.0245.3945-.0565.124-.1575.2225-.2825.2765z" stroke-width="2"/></g></g><g fill="#eae4dd" stroke="#22267a"><path d="M1297.884657 55.912743c-.115-3-.72-6.09-.22-9 .565-3.28-.735-5.755-1.915-8.695-6.055 5.11-10.7.115-15.755-1.82l1-2c6.035 1.66 10.755.5 14.195-5.38 1.065-1.815 4.05-2.5 6.155-3.72 3.19.275.65 3.36 2 4.355l7.615-4.32h.45c6.06 1.5 9 6.285 11.345 11.39 1.17 2.545-.345 4.38-3.18 4.59-1.715.13-3.45 0-5.65 0 2.44 4.33 5.37 8.08 4.06 13.03z" stroke-width="2"/><path d="M1307.699657 39.662743l5 .715c-.085-.5 0-1.18-.295-1.445-1.295-1.14-2.675-1.605-4.705.73zm-9.815 16.25l20.12-1.535c.45 4.195.965 8.385 1.32 12.59.195 2.295 1.155 3.665 3.34 4.62 1.705.75 4.205 1.32 3.585 4.24l-3.36 3.37-17.4 5.22h-4.425c-2.78-2.36-2.85-5.78-3-8.91-.305-6.52-.145-13.065-.18-19.595zm13.545-30.57h-.45c-.66-1.06-2.12-2.745-1.855-3.08 1.38-1.75.965-3.625 1.04-5.5.075-1.73-3.595-5.575-5.28-5.295-.269.061-.5225.1765-.7445.34-.222.1635-.4075.3715-.5455.61-1.12 2.155-2.14 4.365-3.195 6.555-1.2-1.39-1.39-4.14-.61-5.5 1.175-2.04 1.625-4.84 4.435-5.245 2.135-.31 3.925-1.55 6.64-.6 2.615.915 2.87 3.5 5.13 4.43 1.445.59.795 7.76-.5 9.05-1.34 1.39-2.705 2.82-4.065 4.235z" stroke-width="2"/><path d="M1300.399657 18.967743c1.055-2.19 2.075-4.4 3.195-6.555.138-.2385.3235-.4465.5455-.61.222-.1635.4755-.279.7445-.34 1.685-.265 5.355 3.565 5.27 5.295-.075 1.88.34 3.755-1.04 5.5-.265.335 1.195 2 1.855 3.08l-7.615 4.32c-1.365-1 1.175-4.08-2-4.355l1.075-1c-.71-1.835-1.37-3.605-2.03-5.335zm.665 65.445h4.425q-.32 4.795-.64 9.585l-2.7-.875c-.19-1.07-.385-2.135-.58-3.205q-.25-2.745-.505-5.505zm21.825-5.215l3.36-3.37c2.165 1.675 3.7 4.38 7 4.23.225 0 .5.555.72.855-1.925-.32-2.915.5-2.95 2.445zm-20.735 13.93l2.7.875.375.92c-.06 2.905-2.645 2.5-4.32 3.18-.88.36-1.94.285-2.92.41l-.5-1.085.59-.92z" stroke-width="2"/><path d="M1331.014657 83.357743c.035-1.96 1.025-2.765 2.95-2.445 1.69 2.625.345 4.88-1 8.055zm-23.315-43.695c2.03-2.335 3.41-1.87 4.685-.73.295.265.21.95.295 1.445zm-33.575-4.65l-.67-2.125c2.565-3.055 4.85-2.61 7.525 1.475l-1 2z" stroke-width="2"/><g><path d="M1267.845343 35.057743c-1.47.615-2.925 1.705-4.415 1.76-4.31.155-8.64-.105-13.41-.21 0 3.3.115 7.5-.045 11.68-.08 2.07-.67 4.12-1 6.175-5.165 1.405-9.905-.21-14.615-2.05-.175-4.07-.72-8.17-.45-12.215.81-12.28 2.335-8.87-6.64-17-2.84-2.58-4.5-6.445-6.735-9.725.56-.69 1.12-1.385 1.685-2.075 2.305 2 4.445 4.215 6.965 5.87 2.8235 1.8595 5.856 3.38 9.035 4.53 1 .365 2.655-1.055 4-1.66.685.525 1.415 1.06 2.125 1.615 1.36 1.135 2.69 2.3 4.035 3.45.335.315.675.625 1 .935v.115h.115c.235.065.57.06.69.215 4.3 5.72 10.595 6.21 16.97 6.5.235.675.455 1.385.69 2.09z" stroke-width="2"/><path d="M1234.345343 52.412743c4.71 1.84 9.45 3.455 14.615 2.05 1.16 6.84 2.5 13.655 3.39 20.53.35 2.69-.245 5.5-.5 8.26-.36 3.725-.825 7.435-1.245 11.15l-4.31 1c-1.145-6.09-2.84-12.145-1.03-18.42.0835-.6325-.041-1.275-.355-1.83-1.16-2.37-2.39-4.705-3.835-7.525-3.6 10.105-12.465 14.195-20.315 19.39l-2.6-3.18c3.685-4.37 7.395-8.725 11.04-13.14.845-1 1.715-2.215 2-3.465 1.17-4.915 2.105-9.875 3.145-14.82zm15.415-43.02c1.555 2.89 2.81 5.805 1.035 9.08-.79.575.765 3.705-2.025 2-1.835-1.125-3.4-2.69-5.09-4.055-.145-.97-.26-1.95-.45-2.91-.595-3.03.345-3.95 3.38-3.585 1.015.125 2.1-.335 3.15-.53z" stroke-width="2"/><path d="M1249.345343 8.697743c.069.097.104.214.101.333-.0035.119-.0455.234-.1195.327-.074.0935-.1765.16-.2915.19-.7815.2665-1.6045.3915-2.43.37-3.035-.365-4 .555-3.38 3.585.19.96.305 1.94.45 2.91l-1.235-.795c-.115-.0715-.252-.0985-.385-.075-.1335.023-.2535.0945-.3375.2005-.084.106-.1255.2395-.1175.3745l.065 1.32-.07.08c-2.115-1.82-2.75-4.045-2.04-6.7.625-2.395 2.415-3.26 4.625-3.5 1.955-.215 3.91-.335 5.165 1.38z" stroke-width="2"/><path d="M1243.680343 16.422743c1.69 1.365 3.255 2.93 5.09 4.055 2.79 1.7 1.235-1.43 2.025-2 1.59 1.76 1.255 4.54-.66 5.635-.605.345-2.685-.77-3.28-.4-1.345-1.155-1.175-.82-2.535-1.955-.685-.57-1.415-1.09-2.125-1.63 2-1.38-.5-1.71-.605-2.605l.07-.08 2-1zm2.58 78.99l4.31-1 4.62 2-1 2.28-5.535-.11-2.5-2.165c.055-.335.08-.67.105-1.005zm-28.135-11.565l2.6 3.18c.205 1.58.405 3.16.635 4.95-3.23 1.16-3.39-1.865-4.415-3.365-1.245-1.83-1.455-3.735 1.18-4.765zm49.72-48.79c-.225-.705-.445-1.415-.67-2.125 2.565-3.055 4.85-2.61 7.5 1.5l-1 2zm-45.66-23.675c-.565.69-1.125 1.385-1.685 2.075-2.305.085-4.18-.45-4.89-3.7 2.3 1.655 5.08-2.06 6.575 1.625zm27.32 14.85h-.115v-.115l.12-.03z" stroke-width="2"/><path d="M1242.845343 16.857743l-.415.205c-.1075.055-.2305.072-.349.049-.1185-.023-.226-.0855-.305-.1765-.079-.0915-.125-.207-.131-.3275v-.5c-.008-.135.0335-.2685.1175-.3745.084-.106.204-.1775.3375-.2005.133-.0235.27.0035.385.075l.42.27c.1175.069.2055.179.247.309.041.13.0325.2705-.0245.3945-.0565.124-.1575.2225-.2825.2765z" stroke-width="2"/></g></g><g fill="#eae4dd" stroke="#22267a"><path d="M1446.838546 56.5008c-.115-3-.72-6.09-.22-9 .565-3.28-.735-5.755-1.915-8.695-6.055 5.11-10.7.115-15.755-1.82l1-2c6.035 1.66 10.755.5 14.195-5.38 1.065-1.815 4.05-2.5 6.155-3.72 3.19.275.65 3.36 2 4.355l7.615-4.32h.45c6.06 1.5 9 6.285 11.345 11.39 1.17 2.545-.345 4.38-3.18 4.59-1.715.13-3.45 0-5.65 0 2.44 4.33 5.37 8.08 4.06 13.03z" stroke-width="2"/><path d="M1456.653546 40.2508l5 .715c-.085-.5 0-1.18-.295-1.445-1.295-1.14-2.675-1.605-4.705.73zm-9.815 16.25l20.12-1.535c.45 4.195.965 8.385 1.32 12.59.195 2.295 1.155 3.665 3.34 4.62 1.705.75 4.205 1.32 3.585 4.24l-3.36 3.37-17.4 5.22h-4.425c-2.78-2.36-2.85-5.78-3-8.91-.305-6.52-.145-13.065-.18-19.595zm13.545-30.57h-.45c-.66-1.06-2.12-2.745-1.855-3.08 1.38-1.75.965-3.625 1.04-5.5.075-1.73-3.595-5.575-5.28-5.295-.269.061-.5225.1765-.7445.34-.222.1635-.4075.3715-.5455.61-1.12 2.155-2.14 4.365-3.195 6.555-1.2-1.39-1.39-4.14-.61-5.5 1.175-2.04 1.625-4.84 4.435-5.245 2.135-.31 3.925-1.55 6.64-.6 2.615.915 2.87 3.5 5.13 4.43 1.445.59.795 7.76-.5 9.05-1.34 1.39-2.705 2.82-4.065 4.235z" stroke-width="2"/><path d="M1449.353546 19.5558c1.055-2.19 2.075-4.4 3.195-6.555.138-.2385.3235-.4465.5455-.61.222-.1635.4755-.279.7445-.34 1.685-.265 5.355 3.565 5.27 5.295-.075 1.88.34 3.755-1.04 5.5-.265.335 1.195 2 1.855 3.08l-7.615 4.32c-1.365-1 1.175-4.08-2-4.355l1.075-1c-.71-1.835-1.37-3.605-2.03-5.335zm.665 65.445h4.425q-.32 4.795-.64 9.585l-2.7-.875c-.19-1.07-.385-2.135-.58-3.205q-.25-2.745-.505-5.505zm21.825-5.215l3.36-3.37c2.165 1.675 3.7 4.38 7 4.23.225 0 .5.555.72.855-1.925-.32-2.915.5-2.95 2.445zm-20.735 13.93l2.7.875.375.92c-.06 2.905-2.645 2.5-4.32 3.18-.88.36-1.94.285-2.92.41l-.5-1.085.59-.92z" stroke-width="2"/><path d="M1479.968546 83.9458c.035-1.96 1.025-2.765 2.95-2.445 1.69 2.625.345 4.88-1 8.055zm-23.315-43.695c2.03-2.335 3.41-1.87 4.685-.73.295.265.21.95.295 1.445zm-33.575-4.65l-.67-2.125c2.565-3.055 4.85-2.61 7.525 1.475l-1 2z" stroke-width="2"/><g><path d="M1418.891454 35.6458c-1.47.615-2.925 1.705-4.415 1.76-4.31.155-8.64-.105-13.41-.21 0 3.3.115 7.5-.045 11.68-.08 2.07-.67 4.12-1 6.175-5.165 1.405-9.905-.21-14.615-2.05-.175-4.07-.72-8.17-.45-12.215.81-12.28 2.335-8.87-6.64-17-2.84-2.58-4.5-6.445-6.735-9.725.56-.69 1.12-1.385 1.685-2.075 2.305 2 4.445 4.215 6.965 5.87 2.8235 1.8595 5.856 3.38 9.035 4.53 1 .365 2.655-1.055 4-1.66.685.525 1.415 1.06 2.125 1.615 1.36 1.135 2.69 2.3 4.035 3.45.335.315.675.625 1 .935v.115h.115c.235.065.57.06.69.215 4.3 5.72 10.595 6.21 16.97 6.5.235.675.455 1.385.69 2.09z" stroke-width="2"/><path d="M1385.391454 53.0008c4.71 1.84 9.45 3.455 14.615 2.05 1.16 6.84 2.5 13.655 3.39 20.53.35 2.69-.245 5.5-.5 8.26-.36 3.725-.825 7.435-1.245 11.15l-4.31 1c-1.145-6.09-2.84-12.145-1.03-18.42.0835-.6325-.041-1.275-.355-1.83-1.16-2.37-2.39-4.705-3.835-7.525-3.6 10.105-12.465 14.195-20.315 19.39l-2.6-3.18c3.685-4.37 7.395-8.725 11.04-13.14.845-1 1.715-2.215 2-3.465 1.17-4.915 2.105-9.875 3.145-14.82zm15.415-43.02c1.555 2.89 2.81 5.805 1.035 9.08-.79.575.765 3.705-2.025 2-1.835-1.125-3.4-2.69-5.09-4.055-.145-.97-.26-1.95-.45-2.91-.595-3.03.345-3.95 3.38-3.585 1.015.125 2.1-.335 3.15-.53z" stroke-width="2"/><path d="M1400.391454 9.2858c.069.097.104.214.101.333-.0035.119-.0455.234-.1195.327-.074.0935-.1765.16-.2915.19-.7815.2665-1.6045.3915-2.43.37-3.035-.365-4 .555-3.38 3.585.19.96.305 1.94.45 2.91l-1.235-.795c-.115-.0715-.252-.0985-.385-.075-.1335.023-.2535.0945-.3375.2005-.084.106-.1255.2395-.1175.3745l.065 1.32-.07.08c-2.115-1.82-2.75-4.045-2.04-6.7.625-2.395 2.415-3.26 4.625-3.5 1.955-.215 3.91-.335 5.165 1.38z" stroke-width="2"/><path d="M1394.726454 17.0108c1.69 1.365 3.255 2.93 5.09 4.055 2.79 1.7 1.235-1.43 2.025-2 1.59 1.76 1.255 4.54-.66 5.635-.605.345-2.685-.77-3.28-.4-1.345-1.155-1.175-.82-2.535-1.955-.685-.57-1.415-1.09-2.125-1.63 2-1.38-.5-1.71-.605-2.605l.07-.08 2-1zm2.58 78.99l4.31-1 4.62 2-1 2.28-5.535-.11-2.5-2.165c.055-.335.08-.67.105-1.005zm-28.135-11.565l2.6 3.18c.205 1.58.405 3.16.635 4.95-3.23 1.16-3.39-1.865-4.415-3.365-1.245-1.83-1.455-3.735 1.18-4.765zm49.72-48.79c-.225-.705-.445-1.415-.67-2.125 2.565-3.055 4.85-2.61 7.5 1.5l-1 2zm-45.66-23.675c-.565.69-1.125 1.385-1.685 2.075-2.305.085-4.18-.45-4.89-3.7 2.3 1.655 5.08-2.06 6.575 1.625zm27.32 14.85h-.115v-.115l.12-.03z" stroke-width="2"/><path d="M1393.891454 17.4458l-.415.205c-.1075.055-.2305.072-.349.049-.1185-.023-.226-.0855-.305-.1765-.079-.0915-.125-.207-.131-.3275v-.5c-.008-.135.0335-.2685.1175-.3745.084-.106.204-.1775.3375-.2005.133-.0235.27.0035.385.075l.42.27c.1175.069.2055.179.247.309.041.13.0325.2705-.0245.3945-.0565.124-.1575.2225-.2825.2765z" stroke-width="2"/></g></g><g fill="#eae4dd" stroke="#22267a"><path d="M1596.076812 56.692984c-.115-3-.72-6.09-.22-9 .565-3.28-.735-5.755-1.915-8.695-6.055 5.11-10.7.115-15.755-1.82l1-2c6.035 1.66 10.755.5 14.195-5.38 1.065-1.815 4.05-2.5 6.155-3.72 3.19.275.65 3.36 2 4.355l7.615-4.32h.45c6.06 1.5 9 6.285 11.345 11.39 1.17 2.545-.345 4.38-3.18 4.59-1.715.13-3.45 0-5.65 0 2.44 4.33 5.37 8.08 4.06 13.03z" stroke-width="2"/><path d="M1605.891812 40.442984l5 .715c-.085-.5 0-1.18-.295-1.445-1.295-1.14-2.675-1.605-4.705.73zm-9.815 16.25l20.12-1.535c.45 4.195.965 8.385 1.32 12.59.195 2.295 1.155 3.665 3.34 4.62 1.705.75 4.205 1.32 3.585 4.24l-3.36 3.37-17.4 5.22h-4.425c-2.78-2.36-2.85-5.78-3-8.91-.305-6.52-.145-13.065-.18-19.595zm13.545-30.57h-.45c-.66-1.06-2.12-2.745-1.855-3.08 1.38-1.75.965-3.625 1.04-5.5.075-1.73-3.595-5.575-5.28-5.295-.269.061-.5225.1765-.7445.34-.222.1635-.4075.3715-.5455.61-1.12 2.155-2.14 4.365-3.195 6.555-1.2-1.39-1.39-4.14-.61-5.5 1.175-2.04 1.625-4.84 4.435-5.245 2.135-.31 3.925-1.55 6.64-.6 2.615.915 2.87 3.5 5.13 4.43 1.445.59.795 7.76-.5 9.05-1.34 1.39-2.705 2.82-4.065 4.235z" stroke-width="2"/><path d="M1598.591812 19.747984c1.055-2.19 2.075-4.4 3.195-6.555.138-.2385.3235-.4465.5455-.61.222-.1635.4755-.279.7445-.34 1.685-.265 5.355 3.565 5.27 5.295-.075 1.88.34 3.755-1.04 5.5-.265.335 1.195 2 1.855 3.08l-7.615 4.32c-1.365-1 1.175-4.08-2-4.355l1.075-1c-.71-1.835-1.37-3.605-2.03-5.335zm.665 65.445h4.425q-.32 4.795-.64 9.585l-2.7-.875c-.19-1.07-.385-2.135-.58-3.205q-.25-2.745-.505-5.505zm21.825-5.215l3.36-3.37c2.165 1.675 3.7 4.38 7 4.23.225 0 .5.555.72.855-1.925-.32-2.915.5-2.95 2.445zm-20.735 13.93l2.7.875.375.92c-.06 2.905-2.645 2.5-4.32 3.18-.88.36-1.94.285-2.92.41l-.5-1.085.59-.92z" stroke-width="2"/><path d="M1629.206812 84.137984c.035-1.96 1.025-2.765 2.95-2.445 1.69 2.625.345 4.88-1 8.055zm-23.315-43.695c2.03-2.335 3.41-1.87 4.685-.73.295.265.21.95.295 1.445zm-33.575-4.65l-.67-2.125c2.565-3.055 4.85-2.61 7.525 1.475l-1 2z" stroke-width="2"/><g><path d="M1569.653188 35.837984c-1.47.615-2.925 1.705-4.415 1.76-4.31.155-8.64-.105-13.41-.21 0 3.3.115 7.5-.045 11.68-.08 2.07-.67 4.12-1 6.175-5.165 1.405-9.905-.21-14.615-2.05-.175-4.07-.72-8.17-.45-12.215.81-12.28 2.335-8.87-6.64-17-2.84-2.58-4.5-6.445-6.735-9.725.56-.69 1.12-1.385 1.685-2.075 2.305 2 4.445 4.215 6.965 5.87 2.8235 1.8595 5.856 3.38 9.035 4.53 1 .365 2.655-1.055 4-1.66.685.525 1.415 1.06 2.125 1.615 1.36 1.135 2.69 2.3 4.035 3.45.335.315.675.625 1 .935v.115h.115c.235.065.57.06.69.215 4.3 5.72 10.595 6.21 16.97 6.5.235.675.455 1.385.69 2.09z" stroke-width="2"/><path d="M1536.153188 53.192984c4.71 1.84 9.45 3.455 14.615 2.05 1.16 6.84 2.5 13.655 3.39 20.53.35 2.69-.245 5.5-.5 8.26-.36 3.725-.825 7.435-1.245 11.15l-4.31 1c-1.145-6.09-2.84-12.145-1.03-18.42.0835-.6325-.041-1.275-.355-1.83-1.16-2.37-2.39-4.705-3.835-7.525-3.6 10.105-12.465 14.195-20.315 19.39l-2.6-3.18c3.685-4.37 7.395-8.725 11.04-13.14.845-1 1.715-2.215 2-3.465 1.17-4.915 2.105-9.875 3.145-14.82zm15.415-43.02c1.555 2.89 2.81 5.805 1.035 9.08-.79.575.765 3.705-2.025 2-1.835-1.125-3.4-2.69-5.09-4.055-.145-.97-.26-1.95-.45-2.91-.595-3.03.345-3.95 3.38-3.585 1.015.125 2.1-.335 3.15-.53z" stroke-width="2"/><path d="M1551.153188 9.477984c.069.097.104.214.101.333-.0035.119-.0455.234-.1195.327-.074.0935-.1765.16-.2915.19-.7815.2665-1.6045.3915-2.43.37-3.035-.365-4 .555-3.38 3.585.19.96.305 1.94.45 2.91l-1.235-.795c-.115-.0715-.252-.0985-.385-.075-.1335.023-.2535.0945-.3375.2005-.084.106-.1255.2395-.1175.3745l.065 1.32-.07.08c-2.115-1.82-2.75-4.045-2.04-6.7.625-2.395 2.415-3.26 4.625-3.5 1.955-.215 3.91-.335 5.165 1.38z" stroke-width="2"/><path d="M1545.488188 17.202984c1.69 1.365 3.255 2.93 5.09 4.055 2.79 1.7 1.235-1.43 2.025-2 1.59 1.76 1.255 4.54-.66 5.635-.605.345-2.685-.77-3.28-.4-1.345-1.155-1.175-.82-2.535-1.955-.685-.57-1.415-1.09-2.125-1.63 2-1.38-.5-1.71-.605-2.605l.07-.08 2-1zm2.58 78.99l4.31-1 4.62 2-1 2.28-5.535-.11-2.5-2.165c.055-.335.08-.67.105-1.005zm-28.135-11.565l2.6 3.18c.205 1.58.405 3.16.635 4.95-3.23 1.16-3.39-1.865-4.415-3.365-1.245-1.83-1.455-3.735 1.18-4.765zm49.72-48.79c-.225-.705-.445-1.415-.67-2.125 2.565-3.055 4.85-2.61 7.5 1.5l-1 2zm-45.66-23.675c-.565.69-1.125 1.385-1.685 2.075-2.305.085-4.18-.45-4.89-3.7 2.3 1.655 5.08-2.06 6.575 1.625zm27.32 14.85h-.115v-.115l.12-.03z" stroke-width="2"/><path d="M1544.653188 17.637984l-.415.205c-.1075.055-.2305.072-.349.049-.1185-.023-.226-.0855-.305-.1765-.079-.0915-.125-.207-.131-.3275v-.5c-.008-.135.0335-.2685.1175-.3745.084-.106.204-.1775.3375-.2005.133-.0235.27.0035.385.075l.42.27c.1175.069.2055.179.247.309.041.13.0325.2705-.0245.3945-.0565.124-.1575.2225-.2825.2765z" stroke-width="2"/></g></g><g fill="#eae4dd" stroke="#22267a"><path d="M1745.529822 55.302168c-.115-3-.72-6.09-.22-9 .565-3.28-.735-5.755-1.915-8.695-6.055 5.11-10.7.115-15.755-1.82l1-2c6.035 1.66 10.755.5 14.195-5.38 1.065-1.815 4.05-2.5 6.155-3.72 3.19.275.65 3.36 2 4.355l7.615-4.32h.45c6.06 1.5 9 6.285 11.345 11.39 1.17 2.545-.345 4.38-3.18 4.59-1.715.13-3.45 0-5.65 0 2.44 4.33 5.37 8.08 4.06 13.03z" stroke-width="2"/><path d="M1755.344822 39.052168l5 .715c-.085-.5 0-1.18-.295-1.445-1.295-1.14-2.675-1.605-4.705.73zm-9.815 16.25l20.12-1.535c.45 4.195.965 8.385 1.32 12.59.195 2.295 1.155 3.665 3.34 4.62 1.705.75 4.205 1.32 3.585 4.24l-3.36 3.37-17.4 5.22h-4.425c-2.78-2.36-2.85-5.78-3-8.91-.305-6.52-.145-13.065-.18-19.595zm13.545-30.57h-.45c-.66-1.06-2.12-2.745-1.855-3.08 1.38-1.75.965-3.625 1.04-5.5.075-1.73-3.595-5.575-5.28-5.295-.269.061-.5225.1765-.7445.34-.222.1635-.4075.3715-.5455.61-1.12 2.155-2.14 4.365-3.195 6.555-1.2-1.39-1.39-4.14-.61-5.5 1.175-2.04 1.625-4.84 4.435-5.245 2.135-.31 3.925-1.55 6.64-.6 2.615.915 2.87 3.5 5.13 4.43 1.445.59.795 7.76-.5 9.05-1.34 1.39-2.705 2.82-4.065 4.235z" stroke-width="2"/><path d="M1748.044822 18.357168c1.055-2.19 2.075-4.4 3.195-6.555.138-.2385.3235-.4465.5455-.61.222-.1635.4755-.279.7445-.34 1.685-.265 5.355 3.565 5.27 5.295-.075 1.88.34 3.755-1.04 5.5-.265.335 1.195 2 1.855 3.08l-7.615 4.32c-1.365-1 1.175-4.08-2-4.355l1.075-1c-.71-1.835-1.37-3.605-2.03-5.335zm.665 65.445h4.425q-.32 4.795-.64 9.585l-2.7-.875c-.19-1.07-.385-2.135-.58-3.205q-.25-2.745-.505-5.505zm21.825-5.215l3.36-3.37c2.165 1.675 3.7 4.38 7 4.23.225 0 .5.555.72.855-1.925-.32-2.915.5-2.95 2.445zm-20.735 13.93l2.7.875.375.92c-.06 2.905-2.645 2.5-4.32 3.18-.88.36-1.94.285-2.92.41l-.5-1.085.59-.92z" stroke-width="2"/><path d="M1778.659822 82.747168c.035-1.96 1.025-2.765 2.95-2.445 1.69 2.625.345 4.88-1 8.055zm-23.315-43.695c2.03-2.335 3.41-1.87 4.685-.73.295.265.21.95.295 1.445zm-33.575-4.65l-.67-2.125c2.565-3.055 4.85-2.61 7.525 1.475l-1 2z" stroke-width="2"/><g><path d="M1720.200178 34.447168c-1.47.615-2.925 1.705-4.415 1.76-4.31.155-8.64-.105-13.41-.21 0 3.3.115 7.5-.045 11.68-.08 2.07-.67 4.12-1 6.175-5.165 1.405-9.905-.21-14.615-2.05-.175-4.07-.72-8.17-.45-12.215.81-12.28 2.335-8.87-6.64-17-2.84-2.58-4.5-6.445-6.735-9.725.56-.69 1.12-1.385 1.685-2.075 2.305 2 4.445 4.215 6.965 5.87 2.8235 1.8595 5.856 3.38 9.035 4.53 1 .365 2.655-1.055 4-1.66.685.525 1.415 1.06 2.125 1.615 1.36 1.135 2.69 2.3 4.035 3.45.335.315.675.625 1 .935v.115h.115c.235.065.57.06.69.215 4.3 5.72 10.595 6.21 16.97 6.5.235.675.455 1.385.69 2.09z" stroke-width="2"/><path d="M1686.700178 51.802168c4.71 1.84 9.45 3.455 14.615 2.05 1.16 6.84 2.5 13.655 3.39 20.53.35 2.69-.245 5.5-.5 8.26-.36 3.725-.825 7.435-1.245 11.15l-4.31 1c-1.145-6.09-2.84-12.145-1.03-18.42.0835-.6325-.041-1.275-.355-1.83-1.16-2.37-2.39-4.705-3.835-7.525-3.6 10.105-12.465 14.195-20.315 19.39l-2.6-3.18c3.685-4.37 7.395-8.725 11.04-13.14.845-1 1.715-2.215 2-3.465 1.17-4.915 2.105-9.875 3.145-14.82zm15.415-43.02c1.555 2.89 2.81 5.805 1.035 9.08-.79.575.765 3.705-2.025 2-1.835-1.125-3.4-2.69-5.09-4.055-.145-.97-.26-1.95-.45-2.91-.595-3.03.345-3.95 3.38-3.585 1.015.125 2.1-.335 3.15-.53z" stroke-width="2"/><path d="M1701.700178 8.087168c.069.097.104.214.101.333-.0035.119-.0455.234-.1195.327-.074.0935-.1765.16-.2915.19-.7815.2665-1.6045.3915-2.43.37-3.035-.365-4 .555-3.38 3.585.19.96.305 1.94.45 2.91l-1.235-.795c-.115-.0715-.252-.0985-.385-.075-.1335.023-.2535.0945-.3375.2005-.084.106-.1255.2395-.1175.3745l.065 1.32-.07.08c-2.115-1.82-2.75-4.045-2.04-6.7.625-2.395 2.415-3.26 4.625-3.5 1.955-.215 3.91-.335 5.165 1.38z" stroke-width="2"/><path d="M1696.035178 15.812168c1.69 1.365 3.255 2.93 5.09 4.055 2.79 1.7 1.235-1.43 2.025-2 1.59 1.76 1.255 4.54-.66 5.635-.605.345-2.685-.77-3.28-.4-1.345-1.155-1.175-.82-2.535-1.955-.685-.57-1.415-1.09-2.125-1.63 2-1.38-.5-1.71-.605-2.605l.07-.08 2-1zm2.58 78.99l4.31-1 4.62 2-1 2.28-5.535-.11-2.5-2.165c.055-.335.08-.67.105-1.005zm-28.135-11.565l2.6 3.18c.205 1.58.405 3.16.635 4.95-3.23 1.16-3.39-1.865-4.415-3.365-1.245-1.83-1.455-3.735 1.18-4.765zm49.72-48.79c-.225-.705-.445-1.415-.67-2.125 2.565-3.055 4.85-2.61 7.5 1.5l-1 2zm-45.66-23.675c-.565.69-1.125 1.385-1.685 2.075-2.305.085-4.18-.45-4.89-3.7 2.3 1.655 5.08-2.06 6.575 1.625zm27.32 14.85h-.115v-.115l.12-.03z" stroke-width="2"/><path d="M1695.200178 16.247168l-.415.205c-.1075.055-.2305.072-.349.049-.1185-.023-.226-.0855-.305-.1765-.079-.0915-.125-.207-.131-.3275v-.5c-.008-.135.0335-.2685.1175-.3745.084-.106.204-.1775.3375-.2005.133-.0235.27.0035.385.075l.42.27c.1175.069.2055.179.247.309.041.13.0325.2705-.0245.3945-.0565.124-.1575.2225-.2825.2765z" stroke-width="2"/></g></g><g fill="#eae4dd" stroke="#22267a"><path d="M1895.150452 52.639032c-.115-3-.72-6.09-.22-9 .565-3.28-.735-5.755-1.915-8.695-6.055 5.11-10.7.115-15.755-1.82l1-2c6.035 1.66 10.755.5 14.195-5.38 1.065-1.815 4.05-2.5 6.155-3.72 3.19.275.65 3.36 2 4.355l7.615-4.32h.45c6.06 1.5 9 6.285 11.345 11.39 1.17 2.545-.345 4.38-3.18 4.59-1.715.13-3.45 0-5.65 0 2.44 4.33 5.37 8.08 4.06 13.03z" stroke-width="2"/><path d="M1904.965452 36.389032l5 .715c-.085-.5 0-1.18-.295-1.445-1.295-1.14-2.675-1.605-4.705.73zm-9.815 16.25l20.12-1.535c.45 4.195.965 8.385 1.32 12.59.195 2.295 1.155 3.665 3.34 4.62 1.705.75 4.205 1.32 3.585 4.24l-3.36 3.37-17.4 5.22h-4.425c-2.78-2.36-2.85-5.78-3-8.91-.305-6.52-.145-13.065-.18-19.595zm13.545-30.57h-.45c-.66-1.06-2.12-2.745-1.855-3.08 1.38-1.75.965-3.625 1.04-5.5.075-1.73-3.595-5.575-5.28-5.295-.269.061-.5225.1765-.7445.34-.222.1635-.4075.3715-.5455.61-1.12 2.155-2.14 4.365-3.195 6.555-1.2-1.39-1.39-4.14-.61-5.5 1.175-2.04 1.625-4.84 4.435-5.245 2.135-.31 3.925-1.55 6.64-.6 2.615.915 2.87 3.5 5.13 4.43 1.445.59.795 7.76-.5 9.05-1.34 1.39-2.705 2.82-4.065 4.235z" stroke-width="2"/><path d="M1897.665452 15.694032c1.055-2.19 2.075-4.4 3.195-6.555.138-.2385.3235-.4465.5455-.61.222-.1635.4755-.279.7445-.34 1.685-.265 5.355 3.565 5.27 5.295-.075 1.88.34 3.755-1.04 5.5-.265.335 1.195 2 1.855 3.08l-7.615 4.32c-1.365-1 1.175-4.08-2-4.355l1.075-1c-.71-1.835-1.37-3.605-2.03-5.335zm.665 65.445h4.425q-.32 4.795-.64 9.585l-2.7-.875c-.19-1.07-.385-2.135-.58-3.205q-.25-2.745-.505-5.505zm21.825-5.215l3.36-3.37c2.165 1.675 3.7 4.38 7 4.23.225 0 .5.555.72.855-1.925-.32-2.915.5-2.95 2.445zm-20.735 13.93l2.7.875.375.92c-.06 2.905-2.645 2.5-4.32 3.18-.88.36-1.94.285-2.92.41l-.5-1.085.59-.92z" stroke-width="2"/><path d="M1928.280452 80.084032c.035-1.96 1.025-2.765 2.95-2.445 1.69 2.625.345 4.88-1 8.055zm-23.315-43.695c2.03-2.335 3.41-1.87 4.685-.73.295.265.21.95.295 1.445zm-33.575-4.65l-.67-2.125c2.565-3.055 4.85-2.61 7.525 1.475l-1 2z" stroke-width="2"/><g><path d="M1870.579548 31.784032c-1.47.615-2.925 1.705-4.415 1.76-4.31.155-8.64-.105-13.41-.21 0 3.3.115 7.5-.045 11.68-.08 2.07-.67 4.12-1 6.175-5.165 1.405-9.905-.21-14.615-2.05-.175-4.07-.72-8.17-.45-12.215.81-12.28 2.335-8.87-6.64-17-2.84-2.58-4.5-6.445-6.735-9.725.56-.69 1.12-1.385 1.685-2.075 2.305 2 4.445 4.215 6.965 5.87 2.8235 1.8595 5.856 3.38 9.035 4.53 1 .365 2.655-1.055 4-1.66.685.525 1.415 1.06 2.125 1.615 1.36 1.135 2.69 2.3 4.035 3.45.335.315.675.625 1 .935v.115h.115c.235.065.57.06.69.215 4.3 5.72 10.595 6.21 16.97 6.5.235.675.455 1.385.69 2.09z" stroke-width="2"/><path d="M1837.079548 49.139032c4.71 1.84 9.45 3.455 14.615 2.05 1.16 6.84 2.5 13.655 3.39 20.53.35 2.69-.245 5.5-.5 8.26-.36 3.725-.825 7.435-1.245 11.15l-4.31 1c-1.145-6.09-2.84-12.145-1.03-18.42.0835-.6325-.041-1.275-.355-1.83-1.16-2.37-2.39-4.705-3.835-7.525-3.6 10.105-12.465 14.195-20.315 19.39l-2.6-3.18c3.685-4.37 7.395-8.725 11.04-13.14.845-1 1.715-2.215 2-3.465 1.17-4.915 2.105-9.875 3.145-14.82zm15.415-43.02c1.555 2.89 2.81 5.805 1.035 9.08-.79.575.765 3.705-2.025 2-1.835-1.125-3.4-2.69-5.09-4.055-.145-.97-.26-1.95-.45-2.91-.595-3.03.345-3.95 3.38-3.585 1.015.125 2.1-.335 3.15-.53z" stroke-width="2"/><path d="M1852.079548 5.424032c.069.097.104.214.101.333-.0035.119-.0455.234-.1195.327-.074.0935-.1765.16-.2915.19-.7815.2665-1.6045.3915-2.43.37-3.035-.365-4 .555-3.38 3.585.19.96.305 1.94.45 2.91l-1.235-.795c-.115-.0715-.252-.0985-.385-.075-.1335.023-.2535.0945-.3375.2005-.084.106-.1255.2395-.1175.3745l.065 1.32-.07.08c-2.115-1.82-2.75-4.045-2.04-6.7.625-2.395 2.415-3.26 4.625-3.5 1.955-.215 3.91-.335 5.165 1.38z" stroke-width="2"/><path d="M1846.414548 13.149032c1.69 1.365 3.255 2.93 5.09 4.055 2.79 1.7 1.235-1.43 2.025-2 1.59 1.76 1.255 4.54-.66 5.635-.605.345-2.685-.77-3.28-.4-1.345-1.155-1.175-.82-2.535-1.955-.685-.57-1.415-1.09-2.125-1.63 2-1.38-.5-1.71-.605-2.605l.07-.08 2-1zm2.58 78.99l4.31-1 4.62 2-1 2.28-5.535-.11-2.5-2.165c.055-.335.08-.67.105-1.005zm-28.135-11.565l2.6 3.18c.205 1.58.405 3.16.635 4.95-3.23 1.16-3.39-1.865-4.415-3.365-1.245-1.83-1.455-3.735 1.18-4.765zm49.72-48.79c-.225-.705-.445-1.415-.67-2.125 2.565-3.055 4.85-2.61 7.5 1.5l-1 2zm-45.66-23.675c-.565.69-1.125 1.385-1.685 2.075-2.305.085-4.18-.45-4.89-3.7 2.3 1.655 5.08-2.06 6.575 1.625zm27.32 14.85h-.115v-.115l.12-.03z" stroke-width="2"/><path d="M1845.579548 13.584032l-.415.205c-.1075.055-.2305.072-.349.049-.1185-.023-.226-.0855-.305-.1765-.079-.0915-.125-.207-.131-.3275v-.5c-.008-.135.0335-.2685.1175-.3745.084-.106.204-.1775.3375-.2005.133-.0235.27.0035.385.075l.42.27c.1175.069.2055.179.247.309.041.13.0325.2705-.0245.3945-.0565.124-.1575.2225-.2825.2765z" stroke-width="2"/></g></g><g fill="#eae4dd" stroke="#22267a"><path d="M2044.905663 50.736792c-.115-3-.72-6.09-.22-9 .565-3.28-.735-5.755-1.915-8.695-6.055 5.11-10.7.115-15.755-1.82l1-2c6.035 1.66 10.755.5 14.195-5.38 1.065-1.815 4.05-2.5 6.155-3.72 3.19.275.65 3.36 2 4.355l7.615-4.32h.45c6.06 1.5 9 6.285 11.345 11.39 1.17 2.545-.345 4.38-3.18 4.59-1.715.13-3.45 0-5.65 0 2.44 4.33 5.37 8.08 4.06 13.03z" stroke-width="2"/><path d="M2054.720663 34.486792l5 .715c-.085-.5 0-1.18-.295-1.445-1.295-1.14-2.675-1.605-4.705.73zm-9.815 16.25l20.12-1.535c.45 4.195.965 8.385 1.32 12.59.195 2.295 1.155 3.665 3.34 4.62 1.705.75 4.205 1.32 3.585 4.24l-3.36 3.37-17.4 5.22h-4.425c-2.78-2.36-2.85-5.78-3-8.91-.305-6.52-.145-13.065-.18-19.595zm13.545-30.57h-.45c-.66-1.06-2.12-2.745-1.855-3.08 1.38-1.75.965-3.625 1.04-5.5.075-1.73-3.595-5.575-5.28-5.295-.269.061-.5225.1765-.7445.34-.222.1635-.4075.3715-.5455.61-1.12 2.155-2.14 4.365-3.195 6.555-1.2-1.39-1.39-4.14-.61-5.5 1.175-2.04 1.625-4.84 4.435-5.245 2.135-.31 3.925-1.55 6.64-.6 2.615.915 2.87 3.5 5.13 4.43 1.445.59.795 7.76-.5 9.05-1.34 1.39-2.705 2.82-4.065 4.235z" stroke-width="2"/><path d="M2047.420663 13.791792c1.055-2.19 2.075-4.4 3.195-6.555.138-.2385.3235-.4465.5455-.61.222-.1635.4755-.279.7445-.34 1.685-.265 5.355 3.565 5.27 5.295-.075 1.88.34 3.755-1.04 5.5-.265.335 1.195 2 1.855 3.08l-7.615 4.32c-1.365-1 1.175-4.08-2-4.355l1.075-1c-.71-1.835-1.37-3.605-2.03-5.335zm.665 65.445h4.425q-.32 4.795-.64 9.585l-2.7-.875c-.19-1.07-.385-2.135-.58-3.205q-.25-2.745-.505-5.505zm21.825-5.215l3.36-3.37c2.165 1.675 3.7 4.38 7 4.23.225 0 .5.555.72.855-1.925-.32-2.915.5-2.95 2.445zm-20.735 13.93l2.7.875.375.92c-.06 2.905-2.645 2.5-4.32 3.18-.88.36-1.94.285-2.92.41l-.5-1.085.59-.92z" stroke-width="2"/><path d="M2078.035663 78.181792c.035-1.96 1.025-2.765 2.95-2.445 1.69 2.625.345 4.88-1 8.055zm-23.315-43.695c2.03-2.335 3.41-1.87 4.685-.73.295.265.21.95.295 1.445zm-33.575-4.65l-.67-2.125c2.565-3.055 4.85-2.61 7.525 1.475l-1 2z" stroke-width="2"/><g><path d="M2020.824337 29.881792c-1.47.615-2.925 1.705-4.415 1.76-4.31.155-8.64-.105-13.41-.21 0 3.3.115 7.5-.045 11.68-.08 2.07-.67 4.12-1 6.175-5.165 1.405-9.905-.21-14.615-2.05-.175-4.07-.72-8.17-.45-12.215.81-12.28 2.335-8.87-6.64-17-2.84-2.58-4.5-6.445-6.735-9.725.56-.69 1.12-1.385 1.685-2.075 2.305 2 4.445 4.215 6.965 5.87 2.8235 1.8595 5.856 3.38 9.035 4.53 1 .365 2.655-1.055 4-1.66.685.525 1.415 1.06 2.125 1.615 1.36 1.135 2.69 2.3 4.035 3.45.335.315.675.625 1 .935v.115h.115c.235.065.57.06.69.215 4.3 5.72 10.595 6.21 16.97 6.5.235.675.455 1.385.69 2.09z" stroke-width="2"/><path d="M1987.324337 47.236792c4.71 1.84 9.45 3.455 14.615 2.05 1.16 6.84 2.5 13.655 3.39 20.53.35 2.69-.245 5.5-.5 8.26-.36 3.725-.825 7.435-1.245 11.15l-4.31 1c-1.145-6.09-2.84-12.145-1.03-18.42.0835-.6325-.041-1.275-.355-1.83-1.16-2.37-2.39-4.705-3.835-7.525-3.6 10.105-12.465 14.195-20.315 19.39l-2.6-3.18c3.685-4.37 7.395-8.725 11.04-13.14.845-1 1.715-2.215 2-3.465 1.17-4.915 2.105-9.875 3.145-14.82zm15.415-43.02c1.555 2.89 2.81 5.805 1.035 9.08-.79.575.765 3.705-2.025 2-1.835-1.125-3.4-2.69-5.09-4.055-.145-.97-.26-1.95-.45-2.91-.595-3.03.345-3.95 3.38-3.585 1.015.125 2.1-.335 3.15-.53z" stroke-width="2"/><path d="M2002.324337 3.521792c.069.097.104.214.101.333-.0035.119-.0455.234-.1195.327-.074.0935-.1765.16-.2915.19-.7815.2665-1.6045.3915-2.43.37-3.035-.365-4 .555-3.38 3.585.19.96.305 1.94.45 2.91l-1.235-.795c-.115-.0715-.252-.0985-.385-.075-.1335.023-.2535.0945-.3375.2005-.084.106-.1255.2395-.1175.3745l.065 1.32-.07.08c-2.115-1.82-2.75-4.045-2.04-6.7.625-2.395 2.415-3.26 4.625-3.5 1.955-.215 3.91-.335 5.165 1.38z" stroke-width="2"/><path d="M1996.659337 11.246792c1.69 1.365 3.255 2.93 5.09 4.055 2.79 1.7 1.235-1.43 2.025-2 1.59 1.76 1.255 4.54-.66 5.635-.605.345-2.685-.77-3.28-.4-1.345-1.155-1.175-.82-2.535-1.955-.685-.57-1.415-1.09-2.125-1.63 2-1.38-.5-1.71-.605-2.605l.07-.08 2-1zm2.58 78.99l4.31-1 4.62 2-1 2.28-5.535-.11-2.5-2.165c.055-.335.08-.67.105-1.005zm-28.135-11.565l2.6 3.18c.205 1.58.405 3.16.635 4.95-3.23 1.16-3.39-1.865-4.415-3.365-1.245-1.83-1.455-3.735 1.18-4.765zm49.72-48.79c-.225-.705-.445-1.415-.67-2.125 2.565-3.055 4.85-2.61 7.5 1.5l-1 2zm-45.66-23.675c-.565.69-1.125 1.385-1.685 2.075-2.305.085-4.18-.45-4.89-3.7 2.3 1.655 5.08-2.06 6.575 1.625zm27.32 14.85h-.115v-.115l.12-.03z" stroke-width="2"/><path d="M1995.824337 11.681792l-.415.205c-.1075.055-.2305.072-.349.049-.1185-.023-.226-.0855-.305-.1765-.079-.0915-.125-.207-.131-.3275v-.5c-.008-.135.0335-.2685.1175-.3745.084-.106.204-.1775.3375-.2005.133-.0235.27.0035.385.075l.42.27c.1175.069.2055.179.247.309.041.13.0325.2705-.0245.3945-.0565.124-.1575.2225-.2825.2765z" stroke-width="2"/></g></g><g fill="#eae4dd" stroke="#22267a"><path d="M2194.771485 49.595448c-.115-3-.72-6.09-.22-9 .565-3.28-.735-5.755-1.915-8.695-6.055 5.11-10.7.115-15.755-1.82l1-2c6.035 1.66 10.755.5 14.195-5.38 1.065-1.815 4.05-2.5 6.155-3.72 3.19.275.65 3.36 2 4.355l7.615-4.32h.45c6.06 1.5 9 6.285 11.345 11.39 1.17 2.545-.345 4.38-3.18 4.59-1.715.13-3.45 0-5.65 0 2.44 4.33 5.37 8.08 4.06 13.03z" stroke-width="2"/><path d="M2204.586485 33.345448l5 .715c-.085-.5 0-1.18-.295-1.445-1.295-1.14-2.675-1.605-4.705.73zm-9.815 16.25l20.12-1.535c.45 4.195.965 8.385 1.32 12.59.195 2.295 1.155 3.665 3.34 4.62 1.705.75 4.205 1.32 3.585 4.24l-3.36 3.37-17.4 5.22h-4.425c-2.78-2.36-2.85-5.78-3-8.91-.305-6.52-.145-13.065-.18-19.595zm13.545-30.57h-.45c-.66-1.06-2.12-2.745-1.855-3.08 1.38-1.75.965-3.625 1.04-5.5.075-1.73-3.595-5.575-5.28-5.295-.269.061-.5225.1765-.7445.34-.222.1635-.4075.3715-.5455.61-1.12 2.155-2.14 4.365-3.195 6.555-1.2-1.39-1.39-4.14-.61-5.5 1.175-2.04 1.625-4.84 4.435-5.245 2.135-.31 3.925-1.55 6.64-.6 2.615.915 2.87 3.5 5.13 4.43 1.445.59.795 7.76-.5 9.05-1.34 1.39-2.705 2.82-4.065 4.235z" stroke-width="2"/><path d="M2197.286485 12.650448c1.055-2.19 2.075-4.4 3.195-6.555.138-.2385.3235-.4465.5455-.61.222-.1635.4755-.279.7445-.34 1.685-.265 5.355 3.565 5.27 5.295-.075 1.88.34 3.755-1.04 5.5-.265.335 1.195 2 1.855 3.08l-7.615 4.32c-1.365-1 1.175-4.08-2-4.355l1.075-1c-.71-1.835-1.37-3.605-2.03-5.335zm.665 65.445h4.425q-.32 4.795-.64 9.585l-2.7-.875c-.19-1.07-.385-2.135-.58-3.205q-.25-2.745-.505-5.505zm21.825-5.215l3.36-3.37c2.165 1.675 3.7 4.38 7 4.23.225 0 .5.555.72.855-1.925-.32-2.915.5-2.95 2.445zm-20.735 13.93l2.7.875.375.92c-.06 2.905-2.645 2.5-4.32 3.18-.88.36-1.94.285-2.92.41l-.5-1.085.59-.92z" stroke-width="2"/><path d="M2227.901485 77.040448c.035-1.96 1.025-2.765 2.95-2.445 1.69 2.625.345 4.88-1 8.055zm-23.315-43.695c2.03-2.335 3.41-1.87 4.685-.73.295.265.21.95.295 1.445zm-33.575-4.65l-.67-2.125c2.565-3.055 4.85-2.61 7.525 1.475l-1 2z" stroke-width="2"/><g><path d="M2170.958515 28.740448c-1.47.615-2.925 1.705-4.415 1.76-4.31.155-8.64-.105-13.41-.21 0 3.3.115 7.5-.045 11.68-.08 2.07-.67 4.12-1 6.175-5.165 1.405-9.905-.21-14.615-2.05-.175-4.07-.72-8.17-.45-12.215.81-12.28 2.335-8.87-6.64-17-2.84-2.58-4.5-6.445-6.735-9.725.56-.69 1.12-1.385 1.685-2.075 2.305 2 4.445 4.215 6.965 5.87 2.8235 1.8595 5.856 3.38 9.035 4.53 1 .365 2.655-1.055 4-1.66.685.525 1.415 1.06 2.125 1.615 1.36 1.135 2.69 2.3 4.035 3.45.335.315.675.625 1 .935v.115h.115c.235.065.57.06.69.215 4.3 5.72 10.595 6.21 16.97 6.5.235.675.455 1.385.69 2.09z" stroke-width="2"/><path d="M2137.458515 46.095448c4.71 1.84 9.45 3.455 14.615 2.05 1.16 6.84 2.5 13.655 3.39 20.53.35 2.69-.245 5.5-.5 8.26-.36 3.725-.825 7.435-1.245 11.15l-4.31 1c-1.145-6.09-2.84-12.145-1.03-18.42.0835-.6325-.041-1.275-.355-1.83-1.16-2.37-2.39-4.705-3.835-7.525-3.6 10.105-12.465 14.195-20.315 19.39l-2.6-3.18c3.685-4.37 7.395-8.725 11.04-13.14.845-1 1.715-2.215 2-3.465 1.17-4.915 2.105-9.875 3.145-14.82zm15.415-43.02c1.555 2.89 2.81 5.805 1.035 9.08-.79.575.765 3.705-2.025 2-1.835-1.125-3.4-2.69-5.09-4.055-.145-.97-.26-1.95-.45-2.91-.595-3.03.345-3.95 3.38-3.585 1.015.125 2.1-.335 3.15-.53z" stroke-width="2"/><path d="M2152.458515 2.380448c.069.097.104.214.101.333-.0035.119-.0455.234-.1195.327-.074.0935-.1765.16-.2915.19-.7815.2665-1.6045.3915-2.43.37-3.035-.365-4 .555-3.38 3.585.19.96.305 1.94.45 2.91l-1.235-.795c-.115-.0715-.252-.0985-.385-.075-.1335.023-.2535.0945-.3375.2005-.084.106-.1255.2395-.1175.3745l.065 1.32-.07.08c-2.115-1.82-2.75-4.045-2.04-6.7.625-2.395 2.415-3.26 4.625-3.5 1.955-.215 3.91-.335 5.165 1.38z" stroke-width="2"/><path d="M2146.793515 10.105448c1.69 1.365 3.255 2.93 5.09 4.055 2.79 1.7 1.235-1.43 2.025-2 1.59 1.76 1.255 4.54-.66 5.635-.605.345-2.685-.77-3.28-.4-1.345-1.155-1.175-.82-2.535-1.955-.685-.57-1.415-1.09-2.125-1.63 2-1.38-.5-1.71-.605-2.605l.07-.08 2-1zm2.58 78.99l4.31-1 4.62 2-1 2.28-5.535-.11-2.5-2.165c.055-.335.08-.67.105-1.005zm-28.135-11.565l2.6 3.18c.205 1.58.405 3.16.635 4.95-3.23 1.16-3.39-1.865-4.415-3.365-1.245-1.83-1.455-3.735 1.18-4.765zm49.72-48.79c-.225-.705-.445-1.415-.67-2.125 2.565-3.055 4.85-2.61 7.5 1.5l-1 2zm-45.66-23.675c-.565.69-1.125 1.385-1.685 2.075-2.305.085-4.18-.45-4.89-3.7 2.3 1.655 5.08-2.06 6.575 1.625zm27.32 14.85h-.115v-.115l.12-.03z" stroke-width="2"/><path d="M2145.958515 10.540448l-.415.205c-.1075.055-.2305.072-.349.049-.1185-.023-.226-.0855-.305-.1765-.079-.0915-.125-.207-.131-.3275v-.5c-.008-.135.0335-.2685.1175-.3745.084-.106.204-.1775.3375-.2005.133-.0235.27.0035.385.075l.42.27c.1175.069.2055.179.247.309.041.13.0325.2705-.0245.3945-.0565.124-.1575.2225-.2825.2765z" stroke-width="2"/></g></g><g fill="#eae4dd" stroke="#22267a"><path d="M2344.73 49.215c-.115-3-.72-6.09-.22-9 .565-3.28-.735-5.755-1.915-8.695-6.055 5.11-10.7.115-15.755-1.82l1-2c6.035 1.66 10.755.5 14.195-5.38 1.065-1.815 4.05-2.5 6.155-3.72 3.19.275.65 3.36 2 4.355l7.615-4.32h.45c6.06 1.5 9 6.285 11.345 11.39 1.17 2.545-.345 4.38-3.18 4.59-1.715.13-3.45 0-5.65 0 2.44 4.33 5.37 8.08 4.06 13.03z" stroke-width="2"/><path d="M2354.545 32.965l5 .715c-.085-.5 0-1.18-.295-1.445-1.295-1.14-2.675-1.605-4.705.73zm-9.815 16.25l20.12-1.535c.45 4.195.965 8.385 1.32 12.59.195 2.295 1.155 3.665 3.34 4.62 1.705.75 4.205 1.32 3.585 4.24l-3.36 3.37-17.4 5.22h-4.425c-2.78-2.36-2.85-5.78-3-8.91-.305-6.52-.145-13.065-.18-19.595zm13.545-30.57h-.45c-.66-1.06-2.12-2.745-1.855-3.08 1.38-1.75.965-3.625 1.04-5.5.075-1.73-3.595-5.575-5.28-5.295-.269.061-.5225.1765-.7445.34-.222.1635-.4075.3715-.5455.61-1.12 2.155-2.14 4.365-3.195 6.555-1.2-1.39-1.39-4.14-.61-5.5 1.175-2.04 1.625-4.84 4.435-5.245 2.135-.31 3.925-1.55 6.64-.6 2.615.915 2.87 3.5 5.13 4.43 1.445.59.795 7.76-.5 9.05-1.34 1.39-2.705 2.82-4.065 4.235z" stroke-width="2"/><path d="M2347.245 12.27c1.055-2.19 2.075-4.4 3.195-6.555.138-.2385.3235-.4465.5455-.61.222-.1635.4755-.279.7445-.34 1.685-.265 5.355 3.565 5.27 5.295-.075 1.88.34 3.755-1.04 5.5-.265.335 1.195 2 1.855 3.08l-7.615 4.32c-1.365-1 1.175-4.08-2-4.355l1.075-1c-.71-1.835-1.37-3.605-2.03-5.335zm.665 65.445h4.425q-.32 4.795-.64 9.585l-2.7-.875c-.19-1.07-.385-2.135-.58-3.205q-.25-2.745-.505-5.505zm21.825-5.215l3.36-3.37c2.165 1.675 3.7 4.38 7 4.23.225 0 .5.555.72.855-1.925-.32-2.915.5-2.95 2.445zM2349 86.43l2.7.875.375.92c-.06 2.905-2.645 2.5-4.32 3.18-.88.36-1.94.285-2.92.41l-.5-1.085.59-.92z" stroke-width="2"/><path d="M2377.86 76.66c.035-1.96 1.025-2.765 2.95-2.445 1.69 2.625.345 4.88-1 8.055zm-23.315-43.695c2.03-2.335 3.41-1.87 4.685-.73.295.265.21.95.295 1.445zm-33.575-4.65l-.67-2.125c2.565-3.055 4.85-2.61 7.525 1.475l-1 2z" stroke-width="2"/><g><path d="M2321 28.36c-1.47.615-2.925 1.705-4.415 1.76-4.31.155-8.64-.105-13.41-.21 0 3.3.115 7.5-.045 11.68-.08 2.07-.67 4.12-1 6.175-5.165 1.405-9.905-.21-14.615-2.05-.175-4.07-.72-8.17-.45-12.215.81-12.28 2.335-8.87-6.64-17-2.84-2.58-4.5-6.445-6.735-9.725.56-.69 1.12-1.385 1.685-2.075 2.305 2 4.445 4.215 6.965 5.87 2.8235 1.8595 5.856 3.38 9.035 4.53 1 .365 2.655-1.055 4-1.66.685.525 1.415 1.06 2.125 1.615 1.36 1.135 2.69 2.3 4.035 3.45.335.315.675.625 1 .935v.115h.115c.235.065.57.06.69.215 4.3 5.72 10.595 6.21 16.97 6.5.235.675.455 1.385.69 2.09z" stroke-width="2"/><path d="M2287.5 45.715c4.71 1.84 9.45 3.455 14.615 2.05 1.16 6.84 2.5 13.655 3.39 20.53.35 2.69-.245 5.5-.5 8.26-.36 3.725-.825 7.435-1.245 11.15l-4.31 1c-1.145-6.09-2.84-12.145-1.03-18.42.0835-.6325-.041-1.275-.355-1.83-1.16-2.37-2.39-4.705-3.835-7.525-3.6 10.105-12.465 14.195-20.315 19.39l-2.6-3.18c3.685-4.37 7.395-8.725 11.04-13.14.845-1 1.715-2.215 2-3.465 1.17-4.915 2.105-9.875 3.145-14.82zm15.415-43.02c1.555 2.89 2.81 5.805 1.035 9.08-.79.575.765 3.705-2.025 2-1.835-1.125-3.4-2.69-5.09-4.055-.145-.97-.26-1.95-.45-2.91-.595-3.03.345-3.95 3.38-3.585 1.015.125 2.1-.335 3.15-.53z" stroke-width="2"/><path d="M2302.5 2c.069.097.104.214.101.333-.0035.119-.0455.234-.1195.327-.074.0935-.1765.16-.2915.19-.7815.2665-1.6045.3915-2.43.37-3.035-.365-4 .555-3.38 3.585.19.96.305 1.94.45 2.91l-1.235-.795c-.115-.0715-.252-.0985-.385-.075-.1335.023-.2535.0945-.3375.2005-.084.106-.1255.2395-.1175.3745l.065 1.32-.07.08c-2.115-1.82-2.75-4.045-2.04-6.7.625-2.395 2.415-3.26 4.625-3.5 1.955-.215 3.91-.335 5.165 1.38z" stroke-width="2"/><path d="M2296.835 9.725c1.69 1.365 3.255 2.93 5.09 4.055 2.79 1.7 1.235-1.43 2.025-2 1.59 1.76 1.255 4.54-.66 5.635-.605.345-2.685-.77-3.28-.4-1.345-1.155-1.175-.82-2.535-1.955-.685-.57-1.415-1.09-2.125-1.63 2-1.38-.5-1.71-.605-2.605l.07-.08 2-1zm2.58 78.99l4.31-1 4.62 2-1 2.28-5.535-.11-2.5-2.165c.055-.335.08-.67.105-1.005zM2271.28 77.15l2.6 3.18c.205 1.58.405 3.16.635 4.95-3.23 1.16-3.39-1.865-4.415-3.365-1.245-1.83-1.455-3.735 1.18-4.765zM2321 28.36c-.225-.705-.445-1.415-.67-2.125 2.565-3.055 4.85-2.61 7.5 1.5l-1 2zm-45.66-23.675c-.565.69-1.125 1.385-1.685 2.075-2.305.085-4.18-.45-4.89-3.7 2.3 1.655 5.08-2.06 6.575 1.625zm27.32 14.85h-.115v-.115l.12-.03z" stroke-width="2"/><path d="M2296 10.16l-.415.205c-.1075.055-.2305.072-.349.049-.1185-.023-.226-.0855-.305-.1765-.079-.0915-.125-.207-.131-.3275v-.5c-.008-.135.0335-.2685.1175-.3745.084-.106.204-.1775.3375-.2005.133-.0235.27.0035.385.075l.42.27c.1175.069.2055.179.247.309.041.13.0325.2705-.0245.3945-.0565.124-.1575.2225-.2825.2765z" stroke-width="2"/></g></g></svg>