<svg xmlns="http://www.w3.org/2000/svg" viewBox="0 0 2400 100" width="2400" height="100"><path d="M69.798 92.843c-1.3715-.6955-6.11-3.1005-7.8-7.8-.76765-2.0865-1.2064-4.27895-1.3-6.5 0-2.0215.3705-3.601-.65-5.2-.7345-1.1505-1.248-.845-1.95-1.95-1.6055-2.548-.143-6.1685 0-6.5 0 0 .0585-.143 1.3-2.6v-2.6c.0871-2.7092.75205-5.369 1.95-7.8 1.47225-2.9328 3.7206-5.40605 6.5-7.15 7.8975-4.8425 16.8545-.9685 17.55-.65 7.735 3.497 11.05 11.141 11.05 13.65v3.25s1.027.9945 1.3 1.3c1.1895 1.3 1.027 3.757.65 5.2-.42575 1.40075-1.08485 2.71895-1.95 3.9 0 0 .117 3.5295 0 5.85-.0546 2.43685-.49335 4.84965-1.3 7.15-1.8525 4.6735-5.941 7.085-7.15 7.8-2.7456 1.5977-5.8435 2.4934-9.01875 2.60715-3.1746.1131-6.3284-.559-9.18125-1.95715z" fill="#eae4dd" stroke="#22267a" stroke-miterlimit="10" stroke-width="2"/><path d="M76.662 49.332c-1.8525 0-3.3605-1.3-5.2-1.625-1.8395-.325-3.8155.4355-5.4925 1.3-.6396.28925-1.22785.6799-1.742 1.157-.3211.34905-.5694.75855-.7293 1.20575-.15925.44655-.2275.9204-.2002 1.39425.07475.9334.312 1.846.702 2.6975.09295.1729.12545.37245.091.5655-.0819.18005-.21255.3328-.377.442l-1.534 1.2155c-.31135.2002-.5629.481-.728.8125-.06305.2106-.0806.43225-.052.65.0715 1.027.3835 2.0345.533 3.055.1963 1.0283.0065 2.093-.533 2.99l-.65.286c.1495-1.625-.65-3.1135-1.092-4.6475-.16965-.5785-.2548-1.17845-.2535-1.781v-.4615c.0845-1.469-.1625-2.938.403-4.407.5005-1.3.884-2.691 1.4625-3.9975.8086-1.33055 1.7849-2.5519 2.9055-3.6335.9243-.97565 2.0488-1.7407 3.2955-2.2425 2.0605-.78 4.1405-1.6575 6.5065-1.8005 1.3-.091 2.652-.1495 3.965-.338.58565-.04485 1.17455-.00585 1.7485.117.1482.0416.30095.0637.455.065 1.4885-.143 2.782.3835 4.121.832 1.157.29705 2.2789.715 3.3475 1.248 1.37475.72605 2.6806 1.5769 3.9 2.5415.77025.6422 1.44105 1.3962 1.989 2.236.4524.87945.80145 1.80895 1.04 2.769l.6045 1.4885v1.599s-.65-3.9-2.0605-3.6205c-1.053.208-2.041-.5655-2.7755-1.248-.663-.7657-1.4417-1.42415-2.3075-1.95-1.03155-.4108-2.14175-.58825-3.25-.52-.4732-.0078-.94575.0338-1.4105.1235-.8684.2782-1.71405.62335-2.5285 1.0335-.7618.2873-1.5717.42445-2.3855.403zm-6.539 14.261c-.77545 0-1.5197.3081-2.0683.8567-.5486.5486-.8567 1.29285-.8567 2.0683 0 .77545.3081 1.5197.8567 2.0683.5486.5486 1.29285.8567 2.0683.8567.77545 0 1.5197-.3081 2.0683-.8567.5486-.5486.8567-1.29285.8567-2.0683 0-.77545-.3081-1.5197-.8567-2.0683-.5486-.5486-1.29285-.8567-2.0683-.8567zm18.85 0c-.77545 0-1.5197.3081-2.0683.8567-.5486.5486-.8567 1.29285-.8567 2.0683 0 .77545.3081 1.5197.8567 2.0683.5486.5486 1.29285.8567 2.0683.8567.77545 0 1.5197-.3081 2.0683-.8567.5486-.5486.8567-1.29285.8567-2.0683 0-.77545-.3081-1.5197-.8567-2.0683-.5486-.5486-1.29285-.8567-2.0683-.8567z" fill="#22267a"/><path d="M80.848 66.843l1.3 6.5 1.2415 2.0735c.21645.3549.2964.7774.22295 1.1869-.0728.4095-.29315.77805-.61945 1.0361-.63895.55835-1.4157.93665-2.24965 1.0959-.83395.1586-1.69585.0923-2.49535-.1924" fill="none" stroke="#22267a" stroke-miterlimit="10" stroke-width="2"/><g fill="#eae4dd" stroke="#22267a"><path d="M29.693 35.643h95.81c1.0855 0 2.1281.4316 2.89575 1.19925.76765.76765 1.19925 1.81025 1.19925 2.89575v48.36c0 1.0855-.4316 2.1281-1.19925 2.89575-.76765.76765-1.81025 1.19925-2.89575 1.19925h-95.81c-1.0855 0-2.1281-.4316-2.89575-1.19925C26.0296 90.2261 25.598 89.1835 25.598 88.098v-48.36c0-1.0855.4316-2.1281 1.19925-2.89575.76765-.76765 1.81025-1.19925 2.89575-1.19925m-2.587 56.875h100.438c.4719 0 .9256.18785 1.25905.52195.3341.33345.52195.78715.52195 1.25905v.338c0 .4719-.18785.9256-.52195 1.25905-.33345.3341-.78715.52195-1.25905.52195H27.106c-.4719 0-.9256-.18785-1.25905-.52195-.3341-.33345-.52195-.78715-.52195-1.25905v-.338c0-.4719.18785-.9256.52195-1.25905.33345-.3341.78715-.52195 1.25905-.52195" stroke-width="2"/><path d="M77.598 57.093c-1.72315 0-3.3774.6851-4.59615 1.90385-1.21875 1.21875-1.90385 2.873-1.90385 4.59615 0 1.72315.6851 3.3774 1.90385 4.59615 1.21875 1.21875 2.873 1.90385 4.59615 1.90385 1.72315 0 3.3774-.6851 4.59615-1.90385 1.21875-1.21875 1.90385-2.873 1.90385-4.59615 0-1.72315-.6851-3.3774-1.90385-4.59615-1.21875-1.21875-2.873-1.90385-4.59615-1.90385z" stroke-width="2"/></g><path d="M219.798 92.843c-1.3715-.6955-6.11-3.1005-7.8-7.8-.76765-2.0865-1.2064-4.27895-1.3-6.5 0-2.0215.3705-3.601-.65-5.2-.7345-1.1505-1.248-.845-1.95-1.95-1.6055-2.548-.143-6.1685 0-6.5 0 0 .0585-.143 1.3-2.6v-2.6c.0871-2.7092.75205-5.369 1.95-7.8 1.47225-2.9328 3.7206-5.40605 6.5-7.15 7.8975-4.8425 16.8545-.9685 17.55-.65 7.735 3.497 11.05 11.141 11.05 13.65v3.25s1.027.9945 1.3 1.3c1.1895 1.3 1.027 3.757.65 5.2-.42575 1.40075-1.08485 2.71895-1.95 3.9 0 0 .117 3.5295 0 5.85-.0546 2.43685-.49335 4.84965-1.3 7.15-1.8525 4.6735-5.941 7.085-7.15 7.8-2.7456 1.5977-5.8435 2.4934-9.01875 2.60715-3.1746.1131-6.3284-.559-9.18125-1.95715z" fill="#eae4dd" stroke="#22267a" stroke-miterlimit="10" stroke-width="2"/><path d="M226.662 49.332c-1.8525 0-3.3605-1.3-5.2-1.625-1.8395-.325-3.8155.4355-5.4925 1.3-.6396.28925-1.22785.6799-1.742 1.157-.3211.34905-.5694.75855-.7293 1.20575-.15925.44655-.2275.9204-.2002 1.39425.07475.9334.312 1.846.702 2.6975.09295.1729.12545.37245.091.5655-.0819.18005-.21255.3328-.377.442l-1.534 1.2155c-.31135.2002-.5629.481-.728.8125-.06305.2106-.0806.43225-.052.65.0715 1.027.3835 2.0345.533 3.055.1963 1.0283.0065 2.093-.533 2.99l-.65.286c.1495-1.625-.65-3.1135-1.092-4.6475-.16965-.5785-.2548-1.17845-.2535-1.781v-.4615c.0845-1.469-.1625-2.938.403-4.407.5005-1.3.884-2.691 1.4625-3.9975.8086-1.33055 1.7849-2.5519 2.9055-3.6335.9243-.97565 2.0488-1.7407 3.2955-2.2425 2.0605-.78 4.1405-1.6575 6.5065-1.8005 1.3-.091 2.652-.1495 3.965-.338.58565-.04485 1.17455-.00585 1.7485.117.1482.0416.30095.0637.455.065 1.4885-.143 2.782.3835 4.121.832 1.157.29705 2.2789.715 3.3475 1.248 1.37475.72605 2.6806 1.5769 3.9 2.5415.77025.6422 1.44105 1.3962 1.989 2.236.4524.87945.80145 1.80895 1.04 2.769l.6045 1.4885v1.599s-.65-3.9-2.0605-3.6205c-1.053.208-2.041-.5655-2.7755-1.248-.663-.7657-1.4417-1.42415-2.3075-1.95-1.03155-.4108-2.14175-.58825-3.25-.52-.4732-.0078-.94575.0338-1.4105.1235-.8684.2782-1.71405.62335-2.5285 1.0335-.7618.2873-1.5717.42445-2.3855.403zm-6.539 14.261c-.77545 0-1.5197.3081-2.0683.8567-.5486.5486-.8567 1.29285-.8567 2.0683 0 .77545.3081 1.5197.8567 2.0683.5486.5486 1.29285.8567 2.0683.8567.77545 0 1.5197-.3081 2.0683-.8567.5486-.5486.8567-1.29285.8567-2.0683 0-.77545-.3081-1.5197-.8567-2.0683-.5486-.5486-1.29285-.8567-2.0683-.8567zm18.85 0c-.77545 0-1.5197.3081-2.0683.8567-.5486.5486-.8567 1.29285-.8567 2.0683 0 .77545.3081 1.5197.8567 2.0683.5486.5486 1.29285.8567 2.0683.8567.77545 0 1.5197-.3081 2.0683-.8567.5486-.5486.8567-1.29285.8567-2.0683 0-.77545-.3081-1.5197-.8567-2.0683-.5486-.5486-1.29285-.8567-2.0683-.8567z" fill="#22267a"/><path d="M230.848 66.843l1.3 6.5 1.2415 2.0735c.21645.3549.2964.7774.22295 1.1869-.0728.4095-.29315.77805-.61945 1.0361-.63895.55835-1.4157.93665-2.24965 1.0959-.83395.1586-1.69585.0923-2.49535-.1924" fill="none" stroke="#22267a" stroke-miterlimit="10" stroke-width="2"/><g fill="#eae4dd" stroke="#22267a"><path d="M179.693 35.643h95.81c1.0855 0 2.1281.4316 2.89575 1.19925.76765.76765 1.19925 1.81025 1.19925 2.89575v48.36c0 1.0855-.4316 2.1281-1.19925 2.89575-.76765.76765-1.81025 1.19925-2.89575 1.19925h-95.81c-1.0855 0-2.1281-.4316-2.89575-1.19925-.76765-.76765-1.19925-1.81025-1.19925-2.89575v-48.36c0-1.0855.4316-2.1281 1.19925-2.89575.76765-.76765 1.81025-1.19925 2.89575-1.19925m-2.587 56.875h100.438c.4719 0 .9256.18785 1.25905.52195.3341.33345.52195.78715.52195 1.25905v.338c0 .4719-.18785.9256-.52195 1.25905-.33345.3341-.78715.52195-1.25905.52195H177.106c-.4719 0-.9256-.18785-1.25905-.52195-.3341-.33345-.52195-.78715-.52195-1.25905v-.338c0-.4719.18785-.9256.52195-1.25905.33345-.3341.78715-.52195 1.25905-.52195" stroke-width="2"/><path d="M227.598 57.093c-1.72315 0-3.3774.6851-4.59615 1.90385-1.21875 1.21875-1.90385 2.873-1.90385 4.59615 0 1.72315.6851 3.3774 1.90385 4.59615 1.21875 1.21875 2.873 1.90385 4.59615 1.90385 1.72315 0 3.3774-.6851 4.59615-1.90385 1.21875-1.21875 1.90385-2.873 1.90385-4.59615 0-1.72315-.6851-3.3774-1.90385-4.59615-1.21875-1.21875-2.873-1.90385-4.59615-1.90385z" stroke-width="2"/></g><path d="M369.798 87.816333c-1.3715-.6955-6.11-3.1005-7.8-7.8-.76765-2.0865-1.2064-4.27895-1.3-6.5 0-2.0215.3705-3.601-.65-5.2-.7345-1.1505-1.248-.845-1.95-1.95-1.6055-2.548-.143-6.1685 0-6.5 0 0 .0585-.143 1.3-2.6v-2.6c.0871-2.7092.75205-5.369 1.95-7.8 1.47225-2.9328 3.7206-5.40605 6.5-7.15 7.8975-4.8425 16.8545-.9685 17.55-.65 7.735 3.497 11.05 11.141 11.05 13.65v3.25s1.027.9945 1.3 1.3c1.1895 1.3 1.027 3.757.65 5.2-.42575 1.40075-1.08485 2.71895-1.95 3.9 0 0 .117 3.5295 0 5.85-.0546 2.43685-.49335 4.84965-1.3 7.15-1.8525 4.6735-5.941 7.085-7.15 7.8-2.7456 1.5977-5.8435 2.4934-9.01875 2.60715-3.1746.1131-6.3284-.559-9.18125-1.95715z" fill="#eae4dd" stroke="#22267a" stroke-miterlimit="10" stroke-width="2"/><path d="M376.662 44.305333c-1.8525 0-3.3605-1.3-5.2-1.625-1.8395-.325-3.8155.4355-5.4925 1.3-.6396.28925-1.22785.6799-1.742 1.157-.3211.34905-.5694.75855-.7293 1.20575-.15925.44655-.2275.9204-.2002 1.39425.07475.9334.312 1.846.702 2.6975.09295.1729.12545.37245.091.5655-.0819.18005-.21255.3328-.377.442l-1.534 1.2155c-.31135.2002-.5629.481-.728.8125-.06305.2106-.0806.43225-.052.65.0715 1.027.3835 2.0345.533 3.055.1963 1.0283.0065 2.093-.533 2.99l-.65.286c.1495-1.625-.65-3.1135-1.092-4.6475-.16965-.5785-.2548-1.17845-.2535-1.781v-.4615c.0845-1.469-.1625-2.938.403-4.407.5005-1.3.884-2.691 1.4625-3.9975.8086-1.33055 1.7849-2.5519 2.9055-3.6335.9243-.97565 2.0488-1.7407 3.2955-2.2425 2.0605-.78 4.1405-1.6575 6.5065-1.8005 1.3-.091 2.652-.1495 3.965-.338.58565-.04485 1.17455-.00585 1.7485.117.1482.0416.30095.0637.455.065 1.4885-.143 2.782.3835 4.121.832 1.157.29705 2.2789.715 3.3475 1.248 1.37475.72605 2.6806 1.5769 3.9 2.5415.77025.6422 1.44105 1.3962 1.989 2.236.4524.87945.80145 1.80895 1.04 2.769l.6045 1.4885v1.599s-.65-3.9-2.0605-3.6205c-1.053.208-2.041-.5655-2.7755-1.248-.663-.7657-1.4417-1.42415-2.3075-1.95-1.03155-.4108-2.14175-.58825-3.25-.52-.4732-.0078-.94575.0338-1.4105.1235-.8684.2782-1.71405.62335-2.5285 1.0335-.7618.2873-1.5717.42445-2.3855.403zm-6.539 14.261c-.77545 0-1.5197.3081-2.0683.8567-.5486.5486-.8567 1.29285-.8567 2.0683 0 .77545.3081 1.5197.8567 2.0683.5486.5486 1.29285.8567 2.0683.8567.77545 0 1.5197-.3081 2.0683-.8567.5486-.5486.8567-1.29285.8567-2.0683 0-.77545-.3081-1.5197-.8567-2.0683-.5486-.5486-1.29285-.8567-2.0683-.8567zm18.85 0c-.77545 0-1.5197.3081-2.0683.8567-.5486.5486-.8567 1.29285-.8567 2.0683 0 .77545.3081 1.5197.8567 2.0683.5486.5486 1.29285.8567 2.0683.8567.77545 0 1.5197-.3081 2.0683-.8567.5486-.5486.8567-1.29285.8567-2.0683 0-.77545-.3081-1.5197-.8567-2.0683-.5486-.5486-1.29285-.8567-2.0683-.8567z" fill="#22267a"/><path d="M380.848 61.816333l1.3 6.5 1.2415 2.0735c.21645.3549.2964.7774.22295 1.1869-.0728.4095-.29315.77805-.61945 1.0361-.63895.55835-1.4157.93665-2.24965 1.0959-.83395.1586-1.69585.0923-2.49535-.1924" fill="none" stroke="#22267a" stroke-miterlimit="10" stroke-width="2"/><g fill="#eae4dd" stroke="#22267a"><path d="M329.693 35.643h95.81c1.0855 0 2.1281.4316 2.89575 1.19925.76765.76765 1.19925 1.81025 1.19925 2.89575v48.36c0 1.0855-.4316 2.1281-1.19925 2.89575-.76765.76765-1.81025 1.19925-2.89575 1.19925h-95.81c-1.0855 0-2.1281-.4316-2.89575-1.19925-.76765-.76765-1.19925-1.81025-1.19925-2.89575v-48.36c0-1.0855.4316-2.1281 1.19925-2.89575.76765-.76765 1.81025-1.19925 2.89575-1.19925m-2.587 56.875h100.438c.4719 0 .9256.18785 1.25905.52195.3341.33345.52195.78715.52195 1.25905v.338c0 .4719-.18785.9256-.52195 1.25905-.33345.3341-.78715.52195-1.25905.52195H327.106c-.4719 0-.9256-.18785-1.25905-.52195-.3341-.33345-.52195-.78715-.52195-1.25905v-.338c0-.4719.18785-.9256.52195-1.25905.33345-.3341.78715-.52195 1.25905-.52195" stroke-width="2"/><path d="M377.598 57.093c-1.72315 0-3.3774.6851-4.59615 1.90385-1.21875 1.21875-1.90385 2.873-1.90385 4.59615 0 1.72315.6851 3.3774 1.90385 4.59615 1.21875 1.21875 2.873 1.90385 4.59615 1.90385 1.72315 0 3.3774-.6851 4.59615-1.90385 1.21875-1.21875 1.90385-2.873 1.90385-4.59615 0-1.72315-.6851-3.3774-1.90385-4.59615-1.21875-1.21875-2.873-1.90385-4.59615-1.90385z" stroke-width="2"/></g><path d="M519.798 78.803c-1.3715-.6955-6.11-3.1005-7.8-7.8-.76765-2.0865-1.2064-4.27895-1.3-6.5 0-2.0215.3705-3.601-.65-5.2-.7345-1.1505-1.248-.845-1.95-1.95-1.6055-2.548-.143-6.1685 0-6.5 0 0 .0585-.143 1.3-2.6v-2.6c.0871-2.7092.75205-5.369 1.95-7.8 1.47225-2.9328 3.7206-5.40605 6.5-7.15 7.8975-4.8425 16.8545-.9685 17.55-.65 7.735 3.497 11.05 11.141 11.05 13.65v3.25s1.027.9945 1.3 1.3c1.1895 1.3 1.027 3.757.65 5.2-.42575 1.40075-1.08485 2.71895-1.95 3.9 0 0 .117 3.5295 0 5.85-.0546 2.43685-.49335 4.84965-1.3 7.15-1.8525 4.6735-5.941 7.085-7.15 7.8-2.7456 1.5977-5.8435 2.4934-9.01875 2.60715-3.1746.1131-6.3284-.559-9.18125-1.95715z" fill="#eae4dd" stroke="#22267a" stroke-miterlimit="10" stroke-width="2"/><path d="M526.662 35.292c-1.8525 0-3.3605-1.3-5.2-1.625-1.8395-.325-3.8155.4355-5.4925 1.3-.6396.28925-1.22785.6799-1.742 1.157-.3211.34905-.5694.75855-.7293 1.20575-.15925.44655-.2275.9204-.2002 1.39425.07475.9334.312 1.846.702 2.6975.09295.1729.12545.37245.091.5655-.0819.18005-.21255.3328-.377.442l-1.534 1.2155c-.31135.2002-.5629.481-.728.8125-.06305.2106-.0806.43225-.052.65.0715 1.027.3835 2.0345.533 3.055.1963 1.0283.0065 2.093-.533 2.99l-.65.286c.1495-1.625-.65-3.1135-1.092-4.6475-.16965-.5785-.2548-1.17845-.2535-1.781v-.4615c.0845-1.469-.1625-2.938.403-4.407.5005-1.3.884-2.691 1.4625-3.9975.8086-1.33055 1.7849-2.5519 2.9055-3.6335.9243-.97565 2.0488-1.7407 3.2955-2.2425 2.0605-.78 4.1405-1.6575 6.5065-1.8005 1.3-.091 2.652-.1495 3.965-.338.58565-.04485 1.17455-.00585 1.7485.117.1482.0416.30095.0637.455.065 1.4885-.143 2.782.3835 4.121.832 1.157.29705 2.2789.715 3.3475 1.248 1.37475.72605 2.6806 1.5769 3.9 2.5415.77025.6422 1.44105 1.3962 1.989 2.236.4524.87945.80145 1.80895 1.04 2.769l.6045 1.4885v1.599s-.65-3.9-2.0605-3.6205c-1.053.208-2.041-.5655-2.7755-1.248-.663-.7657-1.4417-1.42415-2.3075-1.95-1.03155-.4108-2.14175-.58825-3.25-.52-.4732-.0078-.94575.0338-1.4105.1235-.8684.2782-1.71405.62335-2.5285 1.0335-.7618.2873-1.5717.42445-2.3855.403zm-6.539 14.261c-.77545 0-1.5197.3081-2.0683.8567-.5486.5486-.8567 1.29285-.8567 2.0683 0 .77545.3081 1.5197.8567 2.0683.5486.5486 1.29285.8567 2.0683.8567.77545 0 1.5197-.3081 2.0683-.8567.5486-.5486.8567-1.29285.8567-2.0683 0-.77545-.3081-1.5197-.8567-2.0683-.5486-.5486-1.29285-.8567-2.0683-.8567zm18.85 0c-.77545 0-1.5197.3081-2.0683.8567-.5486.5486-.8567 1.29285-.8567 2.0683 0 .77545.3081 1.5197.8567 2.0683.5486.5486 1.29285.8567 2.0683.8567.77545 0 1.5197-.3081 2.0683-.8567.5486-.5486.8567-1.29285.8567-2.0683 0-.77545-.3081-1.5197-.8567-2.0683-.5486-.5486-1.29285-.8567-2.0683-.8567z" fill="#22267a"/><path d="M530.848 52.803l1.3 6.5 1.2415 2.0735c.21645.3549.2964.7774.22295 1.1869-.0728.4095-.29315.77805-.61945 1.0361-.63895.55835-1.4157.93665-2.24965 1.0959-.83395.1586-1.69585.0923-2.49535-.1924" fill="none" stroke="#22267a" stroke-miterlimit="10" stroke-width="2"/><g fill="#eae4dd" stroke="#22267a"><path d="M479.693 35.643h95.81c1.0855 0 2.1281.4316 2.89575 1.19925.76765.76765 1.19925 1.81025 1.19925 2.89575v48.36c0 1.0855-.4316 2.1281-1.19925 2.89575-.76765.76765-1.81025 1.19925-2.89575 1.19925h-95.81c-1.0855 0-2.1281-.4316-2.89575-1.19925-.76765-.76765-1.19925-1.81025-1.19925-2.89575v-48.36c0-1.0855.4316-2.1281 1.19925-2.89575.76765-.76765 1.81025-1.19925 2.89575-1.19925m-2.587 56.875h100.438c.4719 0 .9256.18785 1.25905.52195.3341.33345.52195.78715.52195 1.25905v.338c0 .4719-.18785.9256-.52195 1.25905-.33345.3341-.78715.52195-1.25905.52195H477.106c-.4719 0-.9256-.18785-1.25905-.52195-.3341-.33345-.52195-.78715-.52195-1.25905v-.338c0-.4719.18785-.9256.52195-1.25905.33345-.3341.78715-.52195 1.25905-.52195" stroke-width="2"/><path d="M527.598 57.093c-1.72315 0-3.3774.6851-4.59615 1.90385-1.21875 1.21875-1.90385 2.873-1.90385 4.59615 0 1.72315.6851 3.3774 1.90385 4.59615 1.21875 1.21875 2.873 1.90385 4.59615 1.90385 1.72315 0 3.3774-.6851 4.59615-1.90385 1.21875-1.21875 1.90385-2.873 1.90385-4.59615 0-1.72315-.6851-3.3774-1.90385-4.59615-1.21875-1.21875-2.873-1.90385-4.59615-1.90385z" stroke-width="2"/></g><g><path d="M669.798 71.176333c-1.3715-.6955-6.11-3.1005-7.8-7.8-.76765-2.0865-1.2064-4.27895-1.3-6.5 0-2.0215.3705-3.601-.65-5.2-.7345-1.1505-1.248-.845-1.95-1.95-1.6055-2.548-.143-6.1685 0-6.5 0 0 .0585-.143 1.3-2.6v-2.6c.0871-2.7092.75205-5.369 1.95-7.8 1.47225-2.9328 3.7206-5.40605 6.5-7.15 7.8975-4.8425 16.8545-.9685 17.55-.65 7.735 3.497 11.05 11.141 11.05 13.65v3.25s1.027.9945 1.3 1.3c1.1895 1.3 1.027 3.757.65 5.2-.42575 1.40075-1.08485 2.71895-1.95 3.9 0 0 .117 3.5295 0 5.85-.0546 2.43685-.49335 4.84965-1.3 7.15-1.8525 4.6735-5.941 7.085-7.15 7.8-2.7456 1.5977-5.8435 2.4934-9.01875 2.60715-3.1746.1131-6.3284-.559-9.18125-1.95715z" fill="#eae4dd" stroke="#22267a" stroke-miterlimit="10" stroke-width="2"/><path d="M676.662 27.665333c-1.8525 0-3.3605-1.3-5.2-1.625-1.8395-.325-3.8155.4355-5.4925 1.3-.6396.28925-1.22785.6799-1.742 1.157-.3211.34905-.5694.75855-.7293 1.20575-.15925.44655-.2275.9204-.2002 1.39425.07475.9334.312 1.846.702 2.6975.09295.1729.12545.37245.091.5655-.0819.18005-.21255.3328-.377.442l-1.534 1.2155c-.31135.2002-.5629.481-.728.8125-.06305.2106-.0806.43225-.052.65.0715 1.027.3835 2.0345.533 3.055.1963 1.0283.0065 2.093-.533 2.99l-.65.286c.1495-1.625-.65-3.1135-1.092-4.6475-.16965-.5785-.2548-1.17845-.2535-1.781v-.4615c.0845-1.469-.1625-2.938.403-4.407.5005-1.3.884-2.691 1.4625-3.9975.8086-1.33055 1.7849-2.5519 2.9055-3.6335.9243-.97565 2.0488-1.7407 3.2955-2.2425 2.0605-.78 4.1405-1.6575 6.5065-1.8005 1.3-.091 2.652-.1495 3.965-.338.58565-.04485 1.17455-.00585 1.7485.117.1482.0416.30095.0637.455.065 1.4885-.143 2.782.3835 4.121.832 1.157.29705 2.2789.715 3.3475 1.248 1.37475.72605 2.6806 1.5769 3.9 2.5415.77025.6422 1.44105 1.3962 1.989 2.236.4524.87945.80145 1.80895 1.04 2.769l.6045 1.4885v1.599s-.65-3.9-2.0605-3.6205c-1.053.208-2.041-.5655-2.7755-1.248-.663-.7657-1.4417-1.42415-2.3075-1.95-1.03155-.4108-2.14175-.58825-3.25-.52-.4732-.0078-.94575.0338-1.4105.1235-.8684.2782-1.71405.62335-2.5285 1.0335-.7618.2873-1.5717.42445-2.3855.403zm-6.539 14.261c-.77545 0-1.5197.3081-2.0683.8567-.5486.5486-.8567 1.29285-.8567 2.0683 0 .77545.3081 1.5197.8567 2.0683.5486.5486 1.29285.8567 2.0683.8567.77545 0 1.5197-.3081 2.0683-.8567.5486-.5486.8567-1.29285.8567-2.0683 0-.77545-.3081-1.5197-.8567-2.0683-.5486-.5486-1.29285-.8567-2.0683-.8567zm18.85 0c-.77545 0-1.5197.3081-2.0683.8567-.5486.5486-.8567 1.29285-.8567 2.0683 0 .77545.3081 1.5197.8567 2.0683.5486.5486 1.29285.8567 2.0683.8567.77545 0 1.5197-.3081 2.0683-.8567.5486-.5486.8567-1.29285.8567-2.0683 0-.77545-.3081-1.5197-.8567-2.0683-.5486-.5486-1.29285-.8567-2.0683-.8567z" fill="#22267a"/><path d="M680.848 45.176333l1.3 6.5 1.2415 2.0735c.21645.3549.2964.7774.22295 1.1869-.0728.4095-.29315.77805-.61945 1.0361-.63895.55835-1.4157.93665-2.24965 1.0959-.83395.1586-1.69585.0923-2.49535-.1924" fill="none" stroke="#22267a" stroke-miterlimit="10" stroke-width="2"/><g fill="#eae4dd" stroke="#22267a"><path d="M629.693 35.643h95.81c1.0855 0 2.1281.4316 2.89575 1.19925.76765.76765 1.19925 1.81025 1.19925 2.89575v48.36c0 1.0855-.4316 2.1281-1.19925 2.89575-.76765.76765-1.81025 1.19925-2.89575 1.19925h-95.81c-1.0855 0-2.1281-.4316-2.89575-1.19925-.76765-.76765-1.19925-1.81025-1.19925-2.89575v-48.36c0-1.0855.4316-2.1281 1.19925-2.89575.76765-.76765 1.81025-1.19925 2.89575-1.19925m-2.587 56.875h100.438c.4719 0 .9256.18785 1.25905.52195.3341.33345.52195.78715.52195 1.25905v.338c0 .4719-.18785.9256-.52195 1.25905-.33345.3341-.78715.52195-1.25905.52195H627.106c-.4719 0-.9256-.18785-1.25905-.52195-.3341-.33345-.52195-.78715-.52195-1.25905v-.338c0-.4719.18785-.9256.52195-1.25905.33345-.3341.78715-.52195 1.25905-.52195" stroke-width="2"/><path d="M677.598 57.093c-1.72315 0-3.3774.6851-4.59615 1.90385-1.21875 1.21875-1.90385 2.873-1.90385 4.59615 0 1.72315.6851 3.3774 1.90385 4.59615 1.21875 1.21875 2.873 1.90385 4.59615 1.90385 1.72315 0 3.3774-.6851 4.59615-1.90385 1.21875-1.21875 1.90385-2.873 1.90385-4.59615 0-1.72315-.6851-3.3774-1.90385-4.59615-1.21875-1.21875-2.873-1.90385-4.59615-1.90385z" stroke-width="2"/></g></g><g><path d="M819.798 64.936333c-1.3715-.6955-6.11-3.1005-7.8-7.8-.76765-2.0865-1.2064-4.27895-1.3-6.5 0-2.0215.3705-3.601-.65-5.2-.7345-1.1505-1.248-.845-1.95-1.95-1.6055-2.548-.143-6.1685 0-6.5 0 0 .0585-.143 1.3-2.6v-2.6c.0871-2.7092.75205-5.369 1.95-7.8 1.47225-2.9328 3.7206-5.40605 6.5-7.15 7.8975-4.8425 16.8545-.9685 17.55-.65 7.735 3.497 11.05 11.141 11.05 13.65v3.25s1.027.9945 1.3 1.3c1.1895 1.3 1.027 3.757.65 5.2-.42575 1.40075-1.08485 2.71895-1.95 3.9 0 0 .117 3.5295 0 5.85-.0546 2.43685-.49335 4.84965-1.3 7.15-1.8525 4.6735-5.941 7.085-7.15 7.8-2.7456 1.5977-5.8435 2.4934-9.01875 2.60715-3.1746.1131-6.3284-.559-9.18125-1.95715z" fill="#eae4dd" stroke="#22267a" stroke-miterlimit="10" stroke-width="2"/><path d="M826.662 21.425333c-1.8525 0-3.3605-1.3-5.2-1.625-1.8395-.325-3.8155.4355-5.4925 1.3-.6396.28925-1.22785.6799-1.742 1.157-.3211.34905-.5694.75855-.7293 1.20575-.15925.44655-.2275.9204-.2002 1.39425.07475.9334.312 1.846.702 2.6975.09295.1729.12545.37245.091.5655-.0819.18005-.21255.3328-.377.442l-1.534 1.2155c-.31135.2002-.5629.481-.728.8125-.06305.2106-.0806.43225-.052.65.0715 1.027.3835 2.0345.533 3.055.1963 1.0283.0065 2.093-.533 2.99l-.65.286c.1495-1.625-.65-3.1135-1.092-4.6475-.16965-.5785-.2548-1.17845-.2535-1.781v-.4615c.0845-1.469-.1625-2.938.403-4.407.5005-1.3.884-2.691 1.4625-3.9975.8086-1.33055 1.7849-2.5519 2.9055-3.6335.9243-.97565 2.0488-1.7407 3.2955-2.2425 2.0605-.78 4.1405-1.6575 6.5065-1.8005 1.3-.091 2.652-.1495 3.965-.338.58565-.04485 1.17455-.00585 1.7485.117.1482.0416.30095.0637.455.065 1.4885-.143 2.782.3835 4.121.832 1.157.29705 2.2789.715 3.3475 1.248 1.37475.72605 2.6806 1.5769 3.9 2.5415.77025.6422 1.44105 1.3962 1.989 2.236.4524.87945.80145 1.80895 1.04 2.769l.6045 1.4885v1.599s-.65-3.9-2.0605-3.6205c-1.053.208-2.041-.5655-2.7755-1.248-.663-.7657-1.4417-1.42415-2.3075-1.95-1.03155-.4108-2.14175-.58825-3.25-.52-.4732-.0078-.94575.0338-1.4105.1235-.8684.2782-1.71405.62335-2.5285 1.0335-.7618.2873-1.5717.42445-2.3855.403zm-6.539 14.261c-.77545 0-1.5197.3081-2.0683.8567-.5486.5486-.8567 1.29285-.8567 2.0683 0 .77545.3081 1.5197.8567 2.0683.5486.5486 1.29285.8567 2.0683.8567.77545 0 1.5197-.3081 2.0683-.8567.5486-.5486.8567-1.29285.8567-2.0683 0-.77545-.3081-1.5197-.8567-2.0683-.5486-.5486-1.29285-.8567-2.0683-.8567zm18.85 0c-.77545 0-1.5197.3081-2.0683.8567-.5486.5486-.8567 1.29285-.8567 2.0683 0 .77545.3081 1.5197.8567 2.0683.5486.5486 1.29285.8567 2.0683.8567.77545 0 1.5197-.3081 2.0683-.8567.5486-.5486.8567-1.29285.8567-2.0683 0-.77545-.3081-1.5197-.8567-2.0683-.5486-.5486-1.29285-.8567-2.0683-.8567z" fill="#22267a"/><path d="M830.848 38.936333l1.3 6.5 1.2415 2.0735c.21645.3549.2964.7774.22295 1.1869-.0728.4095-.29315.77805-.61945 1.0361-.63895.55835-1.4157.93665-2.24965 1.0959-.83395.1586-1.69585.0923-2.49535-.1924" fill="none" stroke="#22267a" stroke-miterlimit="10" stroke-width="2"/><g fill="#eae4dd" stroke="#22267a"><path d="M779.693 35.643h95.81c1.0855 0 2.1281.4316 2.89575 1.19925.76765.76765 1.19925 1.81025 1.19925 2.89575v48.36c0 1.0855-.4316 2.1281-1.19925 2.89575-.76765.76765-1.81025 1.19925-2.89575 1.19925h-95.81c-1.0855 0-2.1281-.4316-2.89575-1.19925-.76765-.76765-1.19925-1.81025-1.19925-2.89575v-48.36c0-1.0855.4316-2.1281 1.19925-2.89575.76765-.76765 1.81025-1.19925 2.89575-1.19925m-2.587 56.875h100.438c.4719 0 .9256.18785 1.25905.52195.3341.33345.52195.78715.52195 1.25905v.338c0 .4719-.18785.9256-.52195 1.25905-.33345.3341-.78715.52195-1.25905.52195H777.106c-.4719 0-.9256-.18785-1.25905-.52195-.3341-.33345-.52195-.78715-.52195-1.25905v-.338c0-.4719.18785-.9256.52195-1.25905.33345-.3341.78715-.52195 1.25905-.52195" stroke-width="2"/><path d="M827.598 57.093c-1.72315 0-3.3774.6851-4.59615 1.90385-1.21875 1.21875-1.90385 2.873-1.90385 4.59615 0 1.72315.6851 3.3774 1.90385 4.59615 1.21875 1.21875 2.873 1.90385 4.59615 1.90385 1.72315 0 3.3774-.6851 4.59615-1.90385 1.21875-1.21875 1.90385-2.873 1.90385-4.59615 0-1.72315-.6851-3.3774-1.90385-4.59615-1.21875-1.21875-2.873-1.90385-4.59615-1.90385z" stroke-width="2"/></g></g><g><path d="M969.798 60.083c-1.3715-.6955-6.11-3.1005-7.8-7.8-.76765-2.0865-1.2064-4.27895-1.3-6.5 0-2.0215.3705-3.601-.65-5.2-.7345-1.1505-1.248-.845-1.95-1.95-1.6055-2.548-.143-6.1685 0-6.5 0 0 .0585-.143 1.3-2.6v-2.6c.0871-2.7092.75205-5.369 1.95-7.8 1.47225-2.9328 3.7206-5.40605 6.5-7.15 7.8975-4.8425 16.8545-.9685 17.55-.65 7.735 3.497 11.05 11.141 11.05 13.65v3.25s1.027.9945 1.3 1.3c1.1895 1.3 1.027 3.757.65 5.2-.42575 1.40075-1.08485 2.71895-1.95 3.9 0 0 .117 3.5295 0 5.85-.0546 2.43685-.49335 4.84965-1.3 7.15-1.8525 4.6735-5.941 7.085-7.15 7.8-2.7456 1.5977-5.8435 2.4934-9.01875 2.60715-3.1746.1131-6.3284-.559-9.18125-1.95715z" fill="#eae4dd" stroke="#22267a" stroke-miterlimit="10" stroke-width="2"/><path d="M976.662 16.572c-1.8525 0-3.3605-1.3-5.2-1.625-1.8395-.325-3.8155.4355-5.4925 1.3-.6396.28925-1.22785.6799-1.742 1.157-.3211.34905-.5694.75855-.7293 1.20575-.15925.44655-.2275.9204-.2002 1.39425.07475.9334.312 1.846.702 2.6975.09295.1729.12545.37245.091.5655-.0819.18005-.21255.3328-.377.442l-1.534 1.2155c-.31135.2002-.5629.481-.728.8125-.06305.2106-.0806.43225-.052.65.0715 1.027.3835 2.0345.533 3.055.1963 1.0283.0065 2.093-.533 2.99l-.65.286c.1495-1.625-.65-3.1135-1.092-4.6475-.16965-.5785-.2548-1.17845-.2535-1.781v-.4615c.0845-1.469-.1625-2.938.403-4.407.5005-1.3.884-2.691 1.4625-3.9975.8086-1.33055 1.7849-2.5519 2.9055-3.6335.9243-.97565 2.0488-1.7407 3.2955-2.2425 2.0605-.78 4.1405-1.6575 6.5065-1.8005 1.3-.091 2.652-.1495 3.965-.338.58565-.04485 1.17455-.00585 1.7485.117.1482.0416.30095.0637.455.065 1.4885-.143 2.782.3835 4.121.832 1.157.29705 2.2789.715 3.3475 1.248 1.37475.72605 2.6806 1.5769 3.9 2.5415.77025.6422 1.44105 1.3962 1.989 2.236.4524.87945.80145 1.80895 1.04 2.769l.6045 1.4885v1.599s-.65-3.9-2.0605-3.6205c-1.053.208-2.041-.5655-2.7755-1.248-.663-.7657-1.4417-1.42415-2.3075-1.95-1.03155-.4108-2.14175-.58825-3.25-.52-.4732-.0078-.94575.0338-1.4105.1235-.8684.2782-1.71405.62335-2.5285 1.0335-.7618.2873-1.5717.42445-2.3855.403zm-6.539 14.261c-.77545 0-1.5197.3081-2.0683.8567-.5486.5486-.8567 1.29285-.8567 2.0683 0 .77545.3081 1.5197.8567 2.0683.5486.5486 1.29285.8567 2.0683.8567.77545 0 1.5197-.3081 2.0683-.8567.5486-.5486.8567-1.29285.8567-2.0683 0-.77545-.3081-1.5197-.8567-2.0683-.5486-.5486-1.29285-.8567-2.0683-.8567zm18.85 0c-.77545 0-1.5197.3081-2.0683.8567-.5486.5486-.8567 1.29285-.8567 2.0683 0 .77545.3081 1.5197.8567 2.0683.5486.5486 1.29285.8567 2.0683.8567.77545 0 1.5197-.3081 2.0683-.8567.5486-.5486.8567-1.29285.8567-2.0683 0-.77545-.3081-1.5197-.8567-2.0683-.5486-.5486-1.29285-.8567-2.0683-.8567z" fill="#22267a"/><path d="M980.848 34.083l1.3 6.5 1.2415 2.0735c.21645.3549.2964.7774.22295 1.1869-.0728.4095-.29315.77805-.61945 1.0361-.63895.55835-1.4157.93665-2.24965 1.0959-.83395.1586-1.69585.0923-2.49535-.1924" fill="none" stroke="#22267a" stroke-miterlimit="10" stroke-width="2"/><g fill="#eae4dd" stroke="#22267a"><path d="M929.693 35.643h95.81c1.0855 0 2.1281.4316 2.89575 1.19925.76765.76765 1.19925 1.81025 1.19925 2.89575v48.36c0 1.0855-.4316 2.1281-1.19925 2.89575-.76765.76765-1.81025 1.19925-2.89575 1.19925h-95.81c-1.0855 0-2.1281-.4316-2.89575-1.19925-.76765-.76765-1.19925-1.81025-1.19925-2.89575v-48.36c0-1.0855.4316-2.1281 1.19925-2.89575.76765-.76765 1.81025-1.19925 2.89575-1.19925m-2.587 56.875h100.438c.4719 0 .9256.18785 1.25905.52195.3341.33345.52195.78715.52195 1.25905v.338c0 .4719-.18785.9256-.52195 1.25905-.33345.3341-.78715.52195-1.25905.52195H927.106c-.4719 0-.9256-.18785-1.25905-.52195-.3341-.33345-.52195-.78715-.52195-1.25905v-.338c0-.4719.18785-.9256.52195-1.25905.33345-.3341.78715-.52195 1.25905-.52195" stroke-width="2"/><path d="M977.598 57.093c-1.72315 0-3.3774.6851-4.59615 1.90385-1.21875 1.21875-1.90385 2.873-1.90385 4.59615 0 1.72315.6851 3.3774 1.90385 4.59615 1.21875 1.21875 2.873 1.90385 4.59615 1.90385 1.72315 0 3.3774-.6851 4.59615-1.90385 1.21875-1.21875 1.90385-2.873 1.90385-4.59615 0-1.72315-.6851-3.3774-1.90385-4.59615-1.21875-1.21875-2.873-1.90385-4.59615-1.90385z" stroke-width="2"/></g></g><g><path d="M1119.798 56.616333c-1.3715-.6955-6.11-3.1005-7.8-7.8-.76765-2.0865-1.2064-4.27895-1.3-6.5 0-2.0215.3705-3.601-.65-5.2-.7345-1.1505-1.248-.845-1.95-1.95-1.6055-2.548-.143-6.1685 0-6.5 0 0 .0585-.143 1.3-2.6v-2.6c.0871-2.7092.75205-5.369 1.95-7.8 1.47225-2.9328 3.7206-5.40605 6.5-7.15 7.8975-4.8425 16.8545-.9685 17.55-.65 7.735 3.497 11.05 11.141 11.05 13.65v3.25s1.027.9945 1.3 1.3c1.1895 1.3 1.027 3.757.65 5.2-.42575 1.40075-1.08485 2.71895-1.95 3.9 0 0 .117 3.5295 0 5.85-.0546 2.43685-.49335 4.84965-1.3 7.15-1.8525 4.6735-5.941 7.085-7.15 7.8-2.7456 1.5977-5.8435 2.4934-9.01875 2.60715-3.1746.1131-6.3284-.559-9.18125-1.95715z" fill="#eae4dd" stroke="#22267a" stroke-miterlimit="10" stroke-width="2"/><path d="M1126.662 13.105333c-1.8525 0-3.3605-1.3-5.2-1.625-1.8395-.325-3.8155.4355-5.4925 1.3-.6396.28925-1.22785.6799-1.742 1.157-.3211.34905-.5694.75855-.7293 1.20575-.15925.44655-.2275.9204-.2002 1.39425.07475.9334.312 1.846.702 2.6975.09295.1729.12545.37245.091.5655-.0819.18005-.21255.3328-.377.442l-1.534 1.2155c-.31135.2002-.5629.481-.728.8125-.06305.2106-.0806.43225-.052.65.0715 1.027.3835 2.0345.533 3.055.1963 1.0283.0065 2.093-.533 2.99l-.65.286c.1495-1.625-.65-3.1135-1.092-4.6475-.16965-.5785-.2548-1.17845-.2535-1.781v-.4615c.0845-1.469-.1625-2.938.403-4.407.5005-1.3.884-2.691 1.4625-3.9975.8086-1.33055 1.7849-2.5519 2.9055-3.6335.9243-.97565 2.0488-1.7407 3.2955-2.2425 2.0605-.78 4.1405-1.6575 6.5065-1.8005 1.3-.091 2.652-.1495 3.965-.338.58565-.04485 1.17455-.00585 1.7485.117.1482.0416.30095.0637.455.065 1.4885-.143 2.782.3835 4.121.832 1.157.29705 2.2789.715 3.3475 1.248 1.37475.72605 2.6806 1.5769 3.9 2.5415.77025.6422 1.44105 1.3962 1.989 2.236.4524.87945.80145 1.80895 1.04 2.769l.6045 1.4885v1.599s-.65-3.9-2.0605-3.6205c-1.053.208-2.041-.5655-2.7755-1.248-.663-.7657-1.4417-1.42415-2.3075-1.95-1.03155-.4108-2.14175-.58825-3.25-.52-.4732-.0078-.94575.0338-1.4105.1235-.8684.2782-1.71405.62335-2.5285 1.0335-.7618.2873-1.5717.42445-2.3855.403zm-6.539 14.261c-.77545 0-1.5197.3081-2.0683.8567-.5486.5486-.8567 1.29285-.8567 2.0683 0 .77545.3081 1.5197.8567 2.0683.5486.5486 1.29285.8567 2.0683.8567.77545 0 1.5197-.3081 2.0683-.8567.5486-.5486.8567-1.29285.8567-2.0683 0-.77545-.3081-1.5197-.8567-2.0683-.5486-.5486-1.29285-.8567-2.0683-.8567zm18.85 0c-.77545 0-1.5197.3081-2.0683.8567-.5486.5486-.8567 1.29285-.8567 2.0683 0 .77545.3081 1.5197.8567 2.0683.5486.5486 1.29285.8567 2.0683.8567.77545 0 1.5197-.3081 2.0683-.8567.5486-.5486.8567-1.29285.8567-2.0683 0-.77545-.3081-1.5197-.8567-2.0683-.5486-.5486-1.29285-.8567-2.0683-.8567z" fill="#22267a"/><path d="M1130.848 30.616333l1.3 6.5 1.2415 2.0735c.21645.3549.2964.7774.22295 1.1869-.0728.4095-.29315.77805-.61945 1.0361-.63895.55835-1.4157.93665-2.24965 1.0959-.83395.1586-1.69585.0923-2.49535-.1924" fill="none" stroke="#22267a" stroke-miterlimit="10" stroke-width="2"/><g fill="#eae4dd" stroke="#22267a"><path d="M1079.693 35.643h95.81c1.0855 0 2.1281.4316 2.89575 1.19925.76765.76765 1.19925 1.81025 1.19925 2.89575v48.36c0 1.0855-.4316 2.1281-1.19925 2.89575-.76765.76765-1.81025 1.19925-2.89575 1.19925h-95.81c-1.0855 0-2.1281-.4316-2.89575-1.19925-.76765-.76765-1.19925-1.81025-1.19925-2.89575v-48.36c0-1.0855.4316-2.1281 1.19925-2.89575.76765-.76765 1.81025-1.19925 2.89575-1.19925m-2.587 56.875h100.438c.4719 0 .9256.18785 1.25905.52195.3341.33345.52195.78715.52195 1.25905v.338c0 .4719-.18785.9256-.52195 1.25905-.33345.3341-.78715.52195-1.25905.52195h-100.438c-.4719 0-.9256-.18785-1.25905-.52195-.3341-.33345-.52195-.78715-.52195-1.25905v-.338c0-.4719.18785-.9256.52195-1.25905.33345-.3341.78715-.52195 1.25905-.52195" stroke-width="2"/><path d="M1127.598 57.093c-1.72315 0-3.3774.6851-4.59615 1.90385-1.21875 1.21875-1.90385 2.873-1.90385 4.59615 0 1.72315.6851 3.3774 1.90385 4.59615 1.21875 1.21875 2.873 1.90385 4.59615 1.90385 1.72315 0 3.3774-.6851 4.59615-1.90385 1.21875-1.21875 1.90385-2.873 1.90385-4.59615 0-1.72315-.6851-3.3774-1.90385-4.59615-1.21875-1.21875-2.873-1.90385-4.59615-1.90385z" stroke-width="2"/></g></g><g><path d="M1269.798 54.536333c-1.3715-.6955-6.11-3.1005-7.8-7.8-.76765-2.0865-1.2064-4.27895-1.3-6.5 0-2.0215.3705-3.601-.65-5.2-.7345-1.1505-1.248-.845-1.95-1.95-1.6055-2.548-.143-6.1685 0-6.5 0 0 .0585-.143 1.3-2.6v-2.6c.0871-2.7092.75205-5.369 1.95-7.8 1.47225-2.9328 3.7206-5.40605 6.5-7.15 7.8975-4.8425 16.8545-.9685 17.55-.65 7.735 3.497 11.05 11.141 11.05 13.65v3.25s1.027.9945 1.3 1.3c1.1895 1.3 1.027 3.757.65 5.2-.42575 1.40075-1.08485 2.71895-1.95 3.9 0 0 .117 3.5295 0 5.85-.0546 2.43685-.49335 4.84965-1.3 7.15-1.8525 4.6735-5.941 7.085-7.15 7.8-2.7456 1.5977-5.8435 2.4934-9.01875 2.60715-3.1746.1131-6.3284-.559-9.18125-1.95715z" fill="#eae4dd" stroke="#22267a" stroke-miterlimit="10" stroke-width="2"/><path d="M1276.662 11.025333c-1.8525 0-3.3605-1.3-5.2-1.625-1.8395-.325-3.8155.4355-5.4925 1.3-.6396.28925-1.22785.6799-1.742 1.157-.3211.34905-.5694.75855-.7293 1.20575-.15925.44655-.2275.9204-.2002 1.39425.07475.9334.312 1.846.702 2.6975.09295.1729.12545.37245.091.5655-.0819.18005-.21255.3328-.377.442l-1.534 1.2155c-.31135.2002-.5629.481-.728.8125-.06305.2106-.0806.43225-.052.65.0715 1.027.3835 2.0345.533 3.055.1963 1.0283.0065 2.093-.533 2.99l-.65.286c.1495-1.625-.65-3.1135-1.092-4.6475-.16965-.5785-.2548-1.17845-.2535-1.781v-.4615c.0845-1.469-.1625-2.938.403-4.407.5005-1.3.884-2.691 1.4625-3.9975.8086-1.33055 1.7849-2.5519 2.9055-3.6335.9243-.97565 2.0488-1.7407 3.2955-2.2425 2.0605-.78 4.1405-1.6575 6.5065-1.8005 1.3-.091 2.652-.1495 3.965-.338.58565-.04485 1.17455-.00585 1.7485.117.1482.0416.30095.0637.455.065 1.4885-.143 2.782.3835 4.121.832 1.157.29705 2.2789.715 3.3475 1.248 1.37475.72605 2.6806 1.5769 3.9 2.5415.77025.6422 1.44105 1.3962 1.989 2.236.4524.87945.80145 1.80895 1.04 2.769l.6045 1.4885v1.599s-.65-3.9-2.0605-3.6205c-1.053.208-2.041-.5655-2.7755-1.248-.663-.7657-1.4417-1.42415-2.3075-1.95-1.03155-.4108-2.14175-.58825-3.25-.52-.4732-.0078-.94575.0338-1.4105.1235-.8684.2782-1.71405.62335-2.5285 1.0335-.7618.2873-1.5717.42445-2.3855.403zm-6.539 14.261c-.77545 0-1.5197.3081-2.0683.8567-.5486.5486-.8567 1.29285-.8567 2.0683 0 .77545.3081 1.5197.8567 2.0683.5486.5486 1.29285.8567 2.0683.8567.77545 0 1.5197-.3081 2.0683-.8567.5486-.5486.8567-1.29285.8567-2.0683 0-.77545-.3081-1.5197-.8567-2.0683-.5486-.5486-1.29285-.8567-2.0683-.8567zm18.85 0c-.77545 0-1.5197.3081-2.0683.8567-.5486.5486-.8567 1.29285-.8567 2.0683 0 .77545.3081 1.5197.8567 2.0683.5486.5486 1.29285.8567 2.0683.8567.77545 0 1.5197-.3081 2.0683-.8567.5486-.5486.8567-1.29285.8567-2.0683 0-.77545-.3081-1.5197-.8567-2.0683-.5486-.5486-1.29285-.8567-2.0683-.8567z" fill="#22267a"/><path d="M1280.848 28.536333l1.3 6.5 1.2415 2.0735c.21645.3549.2964.7774.22295 1.1869-.0728.4095-.29315.77805-.61945 1.0361-.63895.55835-1.4157.93665-2.24965 1.0959-.83395.1586-1.69585.0923-2.49535-.1924" fill="none" stroke="#22267a" stroke-miterlimit="10" stroke-width="2"/><g fill="#eae4dd" stroke="#22267a"><path d="M1229.693 35.643h95.81c1.0855 0 2.1281.4316 2.89575 1.19925.76765.76765 1.19925 1.81025 1.19925 2.89575v48.36c0 1.0855-.4316 2.1281-1.19925 2.89575-.76765.76765-1.81025 1.19925-2.89575 1.19925h-95.81c-1.0855 0-2.1281-.4316-2.89575-1.19925-.76765-.76765-1.19925-1.81025-1.19925-2.89575v-48.36c0-1.0855.4316-2.1281 1.19925-2.89575.76765-.76765 1.81025-1.19925 2.89575-1.19925m-2.587 56.875h100.438c.4719 0 .9256.18785 1.25905.52195.3341.33345.52195.78715.52195 1.25905v.338c0 .4719-.18785.9256-.52195 1.25905-.33345.3341-.78715.52195-1.25905.52195h-100.438c-.4719 0-.9256-.18785-1.25905-.52195-.3341-.33345-.52195-.78715-.52195-1.25905v-.338c0-.4719.18785-.9256.52195-1.25905.33345-.3341.78715-.52195 1.25905-.52195" stroke-width="2"/><path d="M1277.598 57.093c-1.72315 0-3.3774.6851-4.59615 1.90385-1.21875 1.21875-1.90385 2.873-1.90385 4.59615 0 1.72315.6851 3.3774 1.90385 4.59615 1.21875 1.21875 2.873 1.90385 4.59615 1.90385 1.72315 0 3.3774-.6851 4.59615-1.90385 1.21875-1.21875 1.90385-2.873 1.90385-4.59615 0-1.72315-.6851-3.3774-1.90385-4.59615-1.21875-1.21875-2.873-1.90385-4.59615-1.90385z" stroke-width="2"/></g></g><g><path d="M1419.798 53.843c-1.3715-.6955-6.11-3.1005-7.8-7.8-.76765-2.0865-1.2064-4.27895-1.3-6.5 0-2.0215.3705-3.601-.65-5.2-.7345-1.1505-1.248-.845-1.95-1.95-1.6055-2.548-.143-6.1685 0-6.5 0 0 .0585-.143 1.3-2.6v-2.6c.0871-2.7092.75205-5.369 1.95-7.8 1.47225-2.9328 3.7206-5.40605 6.5-7.15 7.8975-4.8425 16.8545-.9685 17.55-.65 7.735 3.497 11.05 11.141 11.05 13.65v3.25s1.027.9945 1.3 1.3c1.1895 1.3 1.027 3.757.65 5.2-.42575 1.40075-1.08485 2.71895-1.95 3.9 0 0 .117 3.5295 0 5.85-.0546 2.43685-.49335 4.84965-1.3 7.15-1.8525 4.6735-5.941 7.085-7.15 7.8-2.7456 1.5977-5.8435 2.4934-9.01875 2.60715-3.1746.1131-6.3284-.559-9.18125-1.95715z" fill="#eae4dd" stroke="#22267a" stroke-miterlimit="10" stroke-width="2"/><path d="M1426.662 10.332c-1.8525 0-3.3605-1.3-5.2-1.625-1.8395-.325-3.8155.4355-5.4925 1.3-.6396.28925-1.22785.6799-1.742 1.157-.3211.34905-.5694.75855-.7293 1.20575-.15925.44655-.2275.9204-.2002 1.39425.07475.9334.312 1.846.702 2.6975.09295.1729.12545.37245.091.5655-.0819.18005-.21255.3328-.377.442l-1.534 1.2155c-.31135.2002-.5629.481-.728.8125-.06305.2106-.0806.43225-.052.65.0715 1.027.3835 2.0345.533 3.055.1963 1.0283.0065 2.093-.533 2.99l-.65.286c.1495-1.625-.65-3.1135-1.092-4.6475-.16965-.5785-.2548-1.17845-.2535-1.781v-.4615c.0845-1.469-.1625-2.938.403-4.407.5005-1.3.884-2.691 1.4625-3.9975.8086-1.33055 1.7849-2.5519 2.9055-3.6335.9243-.97565 2.0488-1.7407 3.2955-2.2425 2.0605-.78 4.1405-1.6575 6.5065-1.8005 1.3-.091 2.652-.1495 3.965-.338.58565-.04485 1.17455-.00585 1.7485.117.1482.0416.30095.0637.455.065 1.4885-.143 2.782.3835 4.121.832 1.157.29705 2.2789.715 3.3475 1.248 1.37475.72605 2.6806 1.5769 3.9 2.5415.77025.6422 1.44105 1.3962 1.989 2.236.4524.87945.80145 1.80895 1.04 2.769l.6045 1.4885v1.599s-.65-3.9-2.0605-3.6205c-1.053.208-2.041-.5655-2.7755-1.248-.663-.7657-1.4417-1.42415-2.3075-1.95-1.03155-.4108-2.14175-.58825-3.25-.52-.4732-.0078-.94575.0338-1.4105.1235-.8684.2782-1.71405.62335-2.5285 1.0335-.7618.2873-1.5717.42445-2.3855.403zm-6.539 14.261c-.77545 0-1.5197.3081-2.0683.8567-.5486.5486-.8567 1.29285-.8567 2.0683 0 .77545.3081 1.5197.8567 2.0683.5486.5486 1.29285.8567 2.0683.8567.77545 0 1.5197-.3081 2.0683-.8567.5486-.5486.8567-1.29285.8567-2.0683 0-.77545-.3081-1.5197-.8567-2.0683-.5486-.5486-1.29285-.8567-2.0683-.8567zm18.85 0c-.77545 0-1.5197.3081-2.0683.8567-.5486.5486-.8567 1.29285-.8567 2.0683 0 .77545.3081 1.5197.8567 2.0683.5486.5486 1.29285.8567 2.0683.8567.77545 0 1.5197-.3081 2.0683-.8567.5486-.5486.8567-1.29285.8567-2.0683 0-.77545-.3081-1.5197-.8567-2.0683-.5486-.5486-1.29285-.8567-2.0683-.8567z" fill="#22267a"/><path d="M1430.848 27.843l1.3 6.5 1.2415 2.0735c.21645.3549.2964.7774.22295 1.1869-.0728.4095-.29315.77805-.61945 1.0361-.63895.55835-1.4157.93665-2.24965 1.0959-.83395.1586-1.69585.0923-2.49535-.1924" fill="none" stroke="#22267a" stroke-miterlimit="10" stroke-width="2"/><g fill="#eae4dd" stroke="#22267a"><path d="M1379.693 35.643h95.81c1.0855 0 2.1281.4316 2.89575 1.19925.76765.76765 1.19925 1.81025 1.19925 2.89575v48.36c0 1.0855-.4316 2.1281-1.19925 2.89575-.76765.76765-1.81025 1.19925-2.89575 1.19925h-95.81c-1.0855 0-2.1281-.4316-2.89575-1.19925-.76765-.76765-1.19925-1.81025-1.19925-2.89575v-48.36c0-1.0855.4316-2.1281 1.19925-2.89575.76765-.76765 1.81025-1.19925 2.89575-1.19925m-2.587 56.875h100.438c.4719 0 .9256.18785 1.25905.52195.3341.33345.52195.78715.52195 1.25905v.338c0 .4719-.18785.9256-.52195 1.25905-.33345.3341-.78715.52195-1.25905.52195h-100.438c-.4719 0-.9256-.18785-1.25905-.52195-.3341-.33345-.52195-.78715-.52195-1.25905v-.338c0-.4719.18785-.9256.52195-1.25905.33345-.3341.78715-.52195 1.25905-.52195" stroke-width="2"/><path d="M1427.598 57.093c-1.72315 0-3.3774.6851-4.59615 1.90385-1.21875 1.21875-1.90385 2.873-1.90385 4.59615 0 1.72315.6851 3.3774 1.90385 4.59615 1.21875 1.21875 2.873 1.90385 4.59615 1.90385 1.72315 0 3.3774-.6851 4.59615-1.90385 1.21875-1.21875 1.90385-2.873 1.90385-4.59615 0-1.72315-.6851-3.3774-1.90385-4.59615-1.21875-1.21875-2.873-1.90385-4.59615-1.90385z" stroke-width="2"/></g></g><g><path d="M1569.798 53.843c-1.3715-.6955-6.11-3.1005-7.8-7.8-.76765-2.0865-1.2064-4.27895-1.3-6.5 0-2.0215.3705-3.601-.65-5.2-.7345-1.1505-1.248-.845-1.95-1.95-1.6055-2.548-.143-6.1685 0-6.5 0 0 .0585-.143 1.3-2.6v-2.6c.0871-2.7092.75205-5.369 1.95-7.8 1.47225-2.9328 3.7206-5.40605 6.5-7.15 7.8975-4.8425 16.8545-.9685 17.55-.65 7.735 3.497 11.05 11.141 11.05 13.65v3.25s1.027.9945 1.3 1.3c1.1895 1.3 1.027 3.757.65 5.2-.42575 1.40075-1.08485 2.71895-1.95 3.9 0 0 .117 3.5295 0 5.85-.0546 2.43685-.49335 4.84965-1.3 7.15-1.8525 4.6735-5.941 7.085-7.15 7.8-2.7456 1.5977-5.8435 2.4934-9.01875 2.60715-3.1746.1131-6.3284-.559-9.18125-1.95715z" fill="#eae4dd" stroke="#22267a" stroke-miterlimit="10" stroke-width="2"/><path d="M1576.662 10.332c-1.8525 0-3.3605-1.3-5.2-1.625-1.8395-.325-3.8155.4355-5.4925 1.3-.6396.28925-1.22785.6799-1.742 1.157-.3211.34905-.5694.75855-.7293 1.20575-.15925.44655-.2275.9204-.2002 1.39425.07475.9334.312 1.846.702 2.6975.09295.1729.12545.37245.091.5655-.0819.18005-.21255.3328-.377.442l-1.534 1.2155c-.31135.2002-.5629.481-.728.8125-.06305.2106-.0806.43225-.052.65.0715 1.027.3835 2.0345.533 3.055.1963 1.0283.0065 2.093-.533 2.99l-.65.286c.1495-1.625-.65-3.1135-1.092-4.6475-.16965-.5785-.2548-1.17845-.2535-1.781v-.4615c.0845-1.469-.1625-2.938.403-4.407.5005-1.3.884-2.691 1.4625-3.9975.8086-1.33055 1.7849-2.5519 2.9055-3.6335.9243-.97565 2.0488-1.7407 3.2955-2.2425 2.0605-.78 4.1405-1.6575 6.5065-1.8005 1.3-.091 2.652-.1495 3.965-.338.58565-.04485 1.17455-.00585 1.7485.117.1482.0416.30095.0637.455.065 1.4885-.143 2.782.3835 4.121.832 1.157.29705 2.2789.715 3.3475 1.248 1.37475.72605 2.6806 1.5769 3.9 2.5415.77025.6422 1.44105 1.3962 1.989 2.236.4524.87945.80145 1.80895 1.04 2.769l.6045 1.4885v1.599s-.65-3.9-2.0605-3.6205c-1.053.208-2.041-.5655-2.7755-1.248-.663-.7657-1.4417-1.42415-2.3075-1.95-1.03155-.4108-2.14175-.58825-3.25-.52-.4732-.0078-.94575.0338-1.4105.1235-.8684.2782-1.71405.62335-2.5285 1.0335-.7618.2873-1.5717.42445-2.3855.403zm-6.539 14.261c-.77545 0-1.5197.3081-2.0683.8567-.5486.5486-.8567 1.29285-.8567 2.0683 0 .77545.3081 1.5197.8567 2.0683.5486.5486 1.29285.8567 2.0683.8567.77545 0 1.5197-.3081 2.0683-.8567.5486-.5486.8567-1.29285.8567-2.0683 0-.77545-.3081-1.5197-.8567-2.0683-.5486-.5486-1.29285-.8567-2.0683-.8567zm18.85 0c-.77545 0-1.5197.3081-2.0683.8567-.5486.5486-.8567 1.29285-.8567 2.0683 0 .77545.3081 1.5197.8567 2.0683.5486.5486 1.29285.8567 2.0683.8567.77545 0 1.5197-.3081 2.0683-.8567.5486-.5486.8567-1.29285.8567-2.0683 0-.77545-.3081-1.5197-.8567-2.0683-.5486-.5486-1.29285-.8567-2.0683-.8567z" fill="#22267a"/><path d="M1580.848 27.843l1.3 6.5 1.2415 2.0735c.21645.3549.2964.7774.22295 1.1869-.0728.4095-.29315.77805-.61945 1.0361-.63895.55835-1.4157.93665-2.24965 1.0959-.83395.1586-1.69585.0923-2.49535-.1924" fill="none" stroke="#22267a" stroke-miterlimit="10" stroke-width="2"/><g fill="#eae4dd" stroke="#22267a"><path d="M1529.693 35.643h95.81c1.0855 0 2.1281.4316 2.89575 1.19925.76765.76765 1.19925 1.81025 1.19925 2.89575v48.36c0 1.0855-.4316 2.1281-1.19925 2.89575-.76765.76765-1.81025 1.19925-2.89575 1.19925h-95.81c-1.0855 0-2.1281-.4316-2.89575-1.19925-.76765-.76765-1.19925-1.81025-1.19925-2.89575v-48.36c0-1.0855.4316-2.1281 1.19925-2.89575.76765-.76765 1.81025-1.19925 2.89575-1.19925m-2.587 56.875h100.438c.4719 0 .9256.18785 1.25905.52195.3341.33345.52195.78715.52195 1.25905v.338c0 .4719-.18785.9256-.52195 1.25905-.33345.3341-.78715.52195-1.25905.52195h-100.438c-.4719 0-.9256-.18785-1.25905-.52195-.3341-.33345-.52195-.78715-.52195-1.25905v-.338c0-.4719.18785-.9256.52195-1.25905.33345-.3341.78715-.52195 1.25905-.52195" stroke-width="2"/><path d="M1577.598 57.093c-1.72315 0-3.3774.6851-4.59615 1.90385-1.21875 1.21875-1.90385 2.873-1.90385 4.59615 0 1.72315.6851 3.3774 1.90385 4.59615 1.21875 1.21875 2.873 1.90385 4.59615 1.90385 1.72315 0 3.3774-.6851 4.59615-1.90385 1.21875-1.21875 1.90385-2.873 1.90385-4.59615 0-1.72315-.6851-3.3774-1.90385-4.59615-1.21875-1.21875-2.873-1.90385-4.59615-1.90385z" stroke-width="2"/></g></g><g><path d="M1719.798 53.843c-1.3715-.6955-6.11-3.1005-7.8-7.8-.76765-2.0865-1.2064-4.27895-1.3-6.5 0-2.0215.3705-3.601-.65-5.2-.7345-1.1505-1.248-.845-1.95-1.95-1.6055-2.548-.143-6.1685 0-6.5 0 0 .0585-.143 1.3-2.6v-2.6c.0871-2.7092.75205-5.369 1.95-7.8 1.47225-2.9328 3.7206-5.40605 6.5-7.15 7.8975-4.8425 16.8545-.9685 17.55-.65 7.735 3.497 11.05 11.141 11.05 13.65v3.25s1.027.9945 1.3 1.3c1.1895 1.3 1.027 3.757.65 5.2-.42575 1.40075-1.08485 2.71895-1.95 3.9 0 0 .117 3.5295 0 5.85-.0546 2.43685-.49335 4.84965-1.3 7.15-1.8525 4.6735-5.941 7.085-7.15 7.8-2.7456 1.5977-5.8435 2.4934-9.01875 2.60715-3.1746.1131-6.3284-.559-9.18125-1.95715z" fill="#eae4dd" stroke="#22267a" stroke-miterlimit="10" stroke-width="2"/><path d="M1726.662 10.332c-1.8525 0-3.3605-1.3-5.2-1.625-1.8395-.325-3.8155.4355-5.4925 1.3-.6396.28925-1.22785.6799-1.742 1.157-.3211.34905-.5694.75855-.7293 1.20575-.15925.44655-.2275.9204-.2002 1.39425.07475.9334.312 1.846.702 2.6975.09295.1729.12545.37245.091.5655-.0819.18005-.21255.3328-.377.442l-1.534 1.2155c-.31135.2002-.5629.481-.728.8125-.06305.2106-.0806.43225-.052.65.0715 1.027.3835 2.0345.533 3.055.1963 1.0283.0065 2.093-.533 2.99l-.65.286c.1495-1.625-.65-3.1135-1.092-4.6475-.16965-.5785-.2548-1.17845-.2535-1.781v-.4615c.0845-1.469-.1625-2.938.403-4.407.5005-1.3.884-2.691 1.4625-3.9975.8086-1.33055 1.7849-2.5519 2.9055-3.6335.9243-.97565 2.0488-1.7407 3.2955-2.2425 2.0605-.78 4.1405-1.6575 6.5065-1.8005 1.3-.091 2.652-.1495 3.965-.338.58565-.04485 1.17455-.00585 1.7485.117.1482.0416.30095.0637.455.065 1.4885-.143 2.782.3835 4.121.832 1.157.29705 2.2789.715 3.3475 1.248 1.37475.72605 2.6806 1.5769 3.9 2.5415.77025.6422 1.44105 1.3962 1.989 2.236.4524.87945.80145 1.80895 1.04 2.769l.6045 1.4885v1.599s-.65-3.9-2.0605-3.6205c-1.053.208-2.041-.5655-2.7755-1.248-.663-.7657-1.4417-1.42415-2.3075-1.95-1.03155-.4108-2.14175-.58825-3.25-.52-.4732-.0078-.94575.0338-1.4105.1235-.8684.2782-1.71405.62335-2.5285 1.0335-.7618.2873-1.5717.42445-2.3855.403zm-6.539 14.261c-.77545 0-1.5197.3081-2.0683.8567-.5486.5486-.8567 1.29285-.8567 2.0683 0 .77545.3081 1.5197.8567 2.0683.5486.5486 1.29285.8567 2.0683.8567.77545 0 1.5197-.3081 2.0683-.8567.5486-.5486.8567-1.29285.8567-2.0683 0-.77545-.3081-1.5197-.8567-2.0683-.5486-.5486-1.29285-.8567-2.0683-.8567zm18.85 0c-.77545 0-1.5197.3081-2.0683.8567-.5486.5486-.8567 1.29285-.8567 2.0683 0 .77545.3081 1.5197.8567 2.0683.5486.5486 1.29285.8567 2.0683.8567.77545 0 1.5197-.3081 2.0683-.8567.5486-.5486.8567-1.29285.8567-2.0683 0-.77545-.3081-1.5197-.8567-2.0683-.5486-.5486-1.29285-.8567-2.0683-.8567z" fill="#22267a"/><path d="M1730.848 27.843l1.3 6.5 1.2415 2.0735c.21645.3549.2964.7774.22295 1.1869-.0728.4095-.29315.77805-.61945 1.0361-.63895.55835-1.4157.93665-2.24965 1.0959-.83395.1586-1.69585.0923-2.49535-.1924" fill="none" stroke="#22267a" stroke-miterlimit="10" stroke-width="2"/><g fill="#eae4dd" stroke="#22267a"><path d="M1679.693 35.643h95.81c1.0855 0 2.1281.4316 2.89575 1.19925.76765.76765 1.19925 1.81025 1.19925 2.89575v48.36c0 1.0855-.4316 2.1281-1.19925 2.89575-.76765.76765-1.81025 1.19925-2.89575 1.19925h-95.81c-1.0855 0-2.1281-.4316-2.89575-1.19925-.76765-.76765-1.19925-1.81025-1.19925-2.89575v-48.36c0-1.0855.4316-2.1281 1.19925-2.89575.76765-.76765 1.81025-1.19925 2.89575-1.19925m-2.587 56.875h100.438c.4719 0 .9256.18785 1.25905.52195.3341.33345.52195.78715.52195 1.25905v.338c0 .4719-.18785.9256-.52195 1.25905-.33345.3341-.78715.52195-1.25905.52195h-100.438c-.4719 0-.9256-.18785-1.25905-.52195-.3341-.33345-.52195-.78715-.52195-1.25905v-.338c0-.4719.18785-.9256.52195-1.25905.33345-.3341.78715-.52195 1.25905-.52195" stroke-width="2"/><path d="M1727.598 57.093c-1.72315 0-3.3774.6851-4.59615 1.90385-1.21875 1.21875-1.90385 2.873-1.90385 4.59615 0 1.72315.6851 3.3774 1.90385 4.59615 1.21875 1.21875 2.873 1.90385 4.59615 1.90385 1.72315 0 3.3774-.6851 4.59615-1.90385 1.21875-1.21875 1.90385-2.873 1.90385-4.59615 0-1.72315-.6851-3.3774-1.90385-4.59615-1.21875-1.21875-2.873-1.90385-4.59615-1.90385z" stroke-width="2"/></g></g><g><path d="M1869.798 53.843c-1.3715-.6955-6.11-3.1005-7.8-7.8-.76765-2.0865-1.2064-4.27895-1.3-6.5 0-2.0215.3705-3.601-.65-5.2-.7345-1.1505-1.248-.845-1.95-1.95-1.6055-2.548-.143-6.1685 0-6.5 0 0 .0585-.143 1.3-2.6v-2.6c.0871-2.7092.75205-5.369 1.95-7.8 1.47225-2.9328 3.7206-5.40605 6.5-7.15 7.8975-4.8425 16.8545-.9685 17.55-.65 7.735 3.497 11.05 11.141 11.05 13.65v3.25s1.027.9945 1.3 1.3c1.1895 1.3 1.027 3.757.65 5.2-.42575 1.40075-1.08485 2.71895-1.95 3.9 0 0 .117 3.5295 0 5.85-.0546 2.43685-.49335 4.84965-1.3 7.15-1.8525 4.6735-5.941 7.085-7.15 7.8-2.7456 1.5977-5.8435 2.4934-9.01875 2.60715-3.1746.1131-6.3284-.559-9.18125-1.95715z" fill="#eae4dd" stroke="#22267a" stroke-miterlimit="10" stroke-width="2"/><path d="M1876.662 10.332c-1.8525 0-3.3605-1.3-5.2-1.625-1.8395-.325-3.8155.4355-5.4925 1.3-.6396.28925-1.22785.6799-1.742 1.157-.3211.34905-.5694.75855-.7293 1.20575-.15925.44655-.2275.9204-.2002 1.39425.07475.9334.312 1.846.702 2.6975.09295.1729.12545.37245.091.5655-.0819.18005-.21255.3328-.377.442l-1.534 1.2155c-.31135.2002-.5629.481-.728.8125-.06305.2106-.0806.43225-.052.65.0715 1.027.3835 2.0345.533 3.055.1963 1.0283.0065 2.093-.533 2.99l-.65.286c.1495-1.625-.65-3.1135-1.092-4.6475-.16965-.5785-.2548-1.17845-.2535-1.781v-.4615c.0845-1.469-.1625-2.938.403-4.407.5005-1.3.884-2.691 1.4625-3.9975.8086-1.33055 1.7849-2.5519 2.9055-3.6335.9243-.97565 2.0488-1.7407 3.2955-2.2425 2.0605-.78 4.1405-1.6575 6.5065-1.8005 1.3-.091 2.652-.1495 3.965-.338.58565-.04485 1.17455-.00585 1.7485.117.1482.0416.30095.0637.455.065 1.4885-.143 2.782.3835 4.121.832 1.157.29705 2.2789.715 3.3475 1.248 1.37475.72605 2.6806 1.5769 3.9 2.5415.77025.6422 1.44105 1.3962 1.989 2.236.4524.87945.80145 1.80895 1.04 2.769l.6045 1.4885v1.599s-.65-3.9-2.0605-3.6205c-1.053.208-2.041-.5655-2.7755-1.248-.663-.7657-1.4417-1.42415-2.3075-1.95-1.03155-.4108-2.14175-.58825-3.25-.52-.4732-.0078-.94575.0338-1.4105.1235-.8684.2782-1.71405.62335-2.5285 1.0335-.7618.2873-1.5717.42445-2.3855.403zm-6.539 14.261c-.77545 0-1.5197.3081-2.0683.8567-.5486.5486-.8567 1.29285-.8567 2.0683 0 .77545.3081 1.5197.8567 2.0683.5486.5486 1.29285.8567 2.0683.8567.77545 0 1.5197-.3081 2.0683-.8567.5486-.5486.8567-1.29285.8567-2.0683 0-.77545-.3081-1.5197-.8567-2.0683-.5486-.5486-1.29285-.8567-2.0683-.8567zm18.85 0c-.77545 0-1.5197.3081-2.0683.8567-.5486.5486-.8567 1.29285-.8567 2.0683 0 .77545.3081 1.5197.8567 2.0683.5486.5486 1.29285.8567 2.0683.8567.77545 0 1.5197-.3081 2.0683-.8567.5486-.5486.8567-1.29285.8567-2.0683 0-.77545-.3081-1.5197-.8567-2.0683-.5486-.5486-1.29285-.8567-2.0683-.8567z" fill="#22267a"/><path d="M1880.848 27.843l1.3 6.5 1.2415 2.0735c.21645.3549.2964.7774.22295 1.1869-.0728.4095-.29315.77805-.61945 1.0361-.63895.55835-1.4157.93665-2.24965 1.0959-.83395.1586-1.69585.0923-2.49535-.1924" fill="none" stroke="#22267a" stroke-miterlimit="10" stroke-width="2"/><g fill="#eae4dd" stroke="#22267a"><path d="M1829.693 35.643h95.81c1.0855 0 2.1281.4316 2.89575 1.19925.76765.76765 1.19925 1.81025 1.19925 2.89575v48.36c0 1.0855-.4316 2.1281-1.19925 2.89575-.76765.76765-1.81025 1.19925-2.89575 1.19925h-95.81c-1.0855 0-2.1281-.4316-2.89575-1.19925-.76765-.76765-1.19925-1.81025-1.19925-2.89575v-48.36c0-1.0855.4316-2.1281 1.19925-2.89575.76765-.76765 1.81025-1.19925 2.89575-1.19925m-2.587 56.875h100.438c.4719 0 .9256.18785 1.25905.52195.3341.33345.52195.78715.52195 1.25905v.338c0 .4719-.18785.9256-.52195 1.25905-.33345.3341-.78715.52195-1.25905.52195h-100.438c-.4719 0-.9256-.18785-1.25905-.52195-.3341-.33345-.52195-.78715-.52195-1.25905v-.338c0-.4719.18785-.9256.52195-1.25905.33345-.3341.78715-.52195 1.25905-.52195" stroke-width="2"/><path d="M1877.598 57.093c-1.72315 0-3.3774.6851-4.59615 1.90385-1.21875 1.21875-1.90385 2.873-1.90385 4.59615 0 1.72315.6851 3.3774 1.90385 4.59615 1.21875 1.21875 2.873 1.90385 4.59615 1.90385 1.72315 0 3.3774-.6851 4.59615-1.90385 1.21875-1.21875 1.90385-2.873 1.90385-4.59615 0-1.72315-.6851-3.3774-1.90385-4.59615-1.21875-1.21875-2.873-1.90385-4.59615-1.90385z" stroke-width="2"/></g></g><g><path d="M2019.798 53.843c-1.3715-.6955-6.11-3.1005-7.8-7.8-.76765-2.0865-1.2064-4.27895-1.3-6.5 0-2.0215.3705-3.601-.65-5.2-.7345-1.1505-1.248-.845-1.95-1.95-1.6055-2.548-.143-6.1685 0-6.5 0 0 .0585-.143 1.3-2.6v-2.6c.0871-2.7092.75205-5.369 1.95-7.8 1.47225-2.9328 3.7206-5.40605 6.5-7.15 7.8975-4.8425 16.8545-.9685 17.55-.65 7.735 3.497 11.05 11.141 11.05 13.65v3.25s1.027.9945 1.3 1.3c1.1895 1.3 1.027 3.757.65 5.2-.42575 1.40075-1.08485 2.71895-1.95 3.9 0 0 .117 3.5295 0 5.85-.0546 2.43685-.49335 4.84965-1.3 7.15-1.8525 4.6735-5.941 7.085-7.15 7.8-2.7456 1.5977-5.8435 2.4934-9.01875 2.60715-3.1746.1131-6.3284-.559-9.18125-1.95715z" fill="#eae4dd" stroke="#22267a" stroke-miterlimit="10" stroke-width="2"/><path d="M2026.662 10.332c-1.8525 0-3.3605-1.3-5.2-1.625-1.8395-.325-3.8155.4355-5.4925 1.3-.6396.28925-1.22785.6799-1.742 1.157-.3211.34905-.5694.75855-.7293 1.20575-.15925.44655-.2275.9204-.2002 1.39425.07475.9334.312 1.846.702 2.6975.09295.1729.12545.37245.091.5655-.0819.18005-.21255.3328-.377.442l-1.534 1.2155c-.31135.2002-.5629.481-.728.8125-.06305.2106-.0806.43225-.052.65.0715 1.027.3835 2.0345.533 3.055.1963 1.0283.0065 2.093-.533 2.99l-.65.286c.1495-1.625-.65-3.1135-1.092-4.6475-.16965-.5785-.2548-1.17845-.2535-1.781v-.4615c.0845-1.469-.1625-2.938.403-4.407.5005-1.3.884-2.691 1.4625-3.9975.8086-1.33055 1.7849-2.5519 2.9055-3.6335.9243-.97565 2.0488-1.7407 3.2955-2.2425 2.0605-.78 4.1405-1.6575 6.5065-1.8005 1.3-.091 2.652-.1495 3.965-.338.58565-.04485 1.17455-.00585 1.7485.117.1482.0416.30095.0637.455.065 1.4885-.143 2.782.3835 4.121.832 1.157.29705 2.2789.715 3.3475 1.248 1.37475.72605 2.6806 1.5769 3.9 2.5415.77025.6422 1.44105 1.3962 1.989 2.236.4524.87945.80145 1.80895 1.04 2.769l.6045 1.4885v1.599s-.65-3.9-2.0605-3.6205c-1.053.208-2.041-.5655-2.7755-1.248-.663-.7657-1.4417-1.42415-2.3075-1.95-1.03155-.4108-2.14175-.58825-3.25-.52-.4732-.0078-.94575.0338-1.4105.1235-.8684.2782-1.71405.62335-2.5285 1.0335-.7618.2873-1.5717.42445-2.3855.403zm-6.539 14.261c-.77545 0-1.5197.3081-2.0683.8567-.5486.5486-.8567 1.29285-.8567 2.0683 0 .77545.3081 1.5197.8567 2.0683.5486.5486 1.29285.8567 2.0683.8567.77545 0 1.5197-.3081 2.0683-.8567.5486-.5486.8567-1.29285.8567-2.0683 0-.77545-.3081-1.5197-.8567-2.0683-.5486-.5486-1.29285-.8567-2.0683-.8567zm18.85 0c-.77545 0-1.5197.3081-2.0683.8567-.5486.5486-.8567 1.29285-.8567 2.0683 0 .77545.3081 1.5197.8567 2.0683.5486.5486 1.29285.8567 2.0683.8567.77545 0 1.5197-.3081 2.0683-.8567.5486-.5486.8567-1.29285.8567-2.0683 0-.77545-.3081-1.5197-.8567-2.0683-.5486-.5486-1.29285-.8567-2.0683-.8567z" fill="#22267a"/><path d="M2030.848 27.843l1.3 6.5 1.2415 2.0735c.21645.3549.2964.7774.22295 1.1869-.0728.4095-.29315.77805-.61945 1.0361-.63895.55835-1.4157.93665-2.24965 1.0959-.83395.1586-1.69585.0923-2.49535-.1924" fill="none" stroke="#22267a" stroke-miterlimit="10" stroke-width="2"/><g fill="#eae4dd" stroke="#22267a"><path d="M1979.693 35.643h95.81c1.0855 0 2.1281.4316 2.89575 1.19925.76765.76765 1.19925 1.81025 1.19925 2.89575v48.36c0 1.0855-.4316 2.1281-1.19925 2.89575-.76765.76765-1.81025 1.19925-2.89575 1.19925h-95.81c-1.0855 0-2.1281-.4316-2.89575-1.19925-.76765-.76765-1.19925-1.81025-1.19925-2.89575v-48.36c0-1.0855.4316-2.1281 1.19925-2.89575.76765-.76765 1.81025-1.19925 2.89575-1.19925m-2.587 56.875h100.438c.4719 0 .9256.18785 1.25905.52195.3341.33345.52195.78715.52195 1.25905v.338c0 .4719-.18785.9256-.52195 1.25905-.33345.3341-.78715.52195-1.25905.52195h-100.438c-.4719 0-.9256-.18785-1.25905-.52195-.3341-.33345-.52195-.78715-.52195-1.25905v-.338c0-.4719.18785-.9256.52195-1.25905.33345-.3341.78715-.52195 1.25905-.52195" stroke-width="2"/><path d="M2027.598 57.093c-1.72315 0-3.3774.6851-4.59615 1.90385-1.21875 1.21875-1.90385 2.873-1.90385 4.59615 0 1.72315.6851 3.3774 1.90385 4.59615 1.21875 1.21875 2.873 1.90385 4.59615 1.90385 1.72315 0 3.3774-.6851 4.59615-1.90385 1.21875-1.21875 1.90385-2.873 1.90385-4.59615 0-1.72315-.6851-3.3774-1.90385-4.59615-1.21875-1.21875-2.873-1.90385-4.59615-1.90385z" stroke-width="2"/></g></g><g><path d="M2169.798 53.843c-1.3715-.6955-6.11-3.1005-7.8-7.8-.76765-2.0865-1.2064-4.27895-1.3-6.5 0-2.0215.3705-3.601-.65-5.2-.7345-1.1505-1.248-.845-1.95-1.95-1.6055-2.548-.143-6.1685 0-6.5 0 0 .0585-.143 1.3-2.6v-2.6c.0871-2.7092.75205-5.369 1.95-7.8 1.47225-2.9328 3.7206-5.40605 6.5-7.15 7.8975-4.8425 16.8545-.9685 17.55-.65 7.735 3.497 11.05 11.141 11.05 13.65v3.25s1.027.9945 1.3 1.3c1.1895 1.3 1.027 3.757.65 5.2-.42575 1.40075-1.08485 2.71895-1.95 3.9 0 0 .117 3.5295 0 5.85-.0546 2.43685-.49335 4.84965-1.3 7.15-1.8525 4.6735-5.941 7.085-7.15 7.8-2.7456 1.5977-5.8435 2.4934-9.01875 2.60715-3.1746.1131-6.3284-.559-9.18125-1.95715z" fill="#eae4dd" stroke="#22267a" stroke-miterlimit="10" stroke-width="2"/><path d="M2176.662 10.332c-1.8525 0-3.3605-1.3-5.2-1.625-1.8395-.325-3.8155.4355-5.4925 1.3-.6396.28925-1.22785.6799-1.742 1.157-.3211.34905-.5694.75855-.7293 1.20575-.15925.44655-.2275.9204-.2002 1.39425.07475.9334.312 1.846.702 2.6975.09295.1729.12545.37245.091.5655-.0819.18005-.21255.3328-.377.442l-1.534 1.2155c-.31135.2002-.5629.481-.728.8125-.06305.2106-.0806.43225-.052.65.0715 1.027.3835 2.0345.533 3.055.1963 1.0283.0065 2.093-.533 2.99l-.65.286c.1495-1.625-.65-3.1135-1.092-4.6475-.16965-.5785-.2548-1.17845-.2535-1.781v-.4615c.0845-1.469-.1625-2.938.403-4.407.5005-1.3.884-2.691 1.4625-3.9975.8086-1.33055 1.7849-2.5519 2.9055-3.6335.9243-.97565 2.0488-1.7407 3.2955-2.2425 2.0605-.78 4.1405-1.6575 6.5065-1.8005 1.3-.091 2.652-.1495 3.965-.338.58565-.04485 1.17455-.00585 1.7485.117.1482.0416.30095.0637.455.065 1.4885-.143 2.782.3835 4.121.832 1.157.29705 2.2789.715 3.3475 1.248 1.37475.72605 2.6806 1.5769 3.9 2.5415.77025.6422 1.44105 1.3962 1.989 2.236.4524.87945.80145 1.80895 1.04 2.769l.6045 1.4885v1.599s-.65-3.9-2.0605-3.6205c-1.053.208-2.041-.5655-2.7755-1.248-.663-.7657-1.4417-1.42415-2.3075-1.95-1.03155-.4108-2.14175-.58825-3.25-.52-.4732-.0078-.94575.0338-1.4105.1235-.8684.2782-1.71405.62335-2.5285 1.0335-.7618.2873-1.5717.42445-2.3855.403zm-6.539 14.261c-.77545 0-1.5197.3081-2.0683.8567-.5486.5486-.8567 1.29285-.8567 2.0683 0 .77545.3081 1.5197.8567 2.0683.5486.5486 1.29285.8567 2.0683.8567.77545 0 1.5197-.3081 2.0683-.8567.5486-.5486.8567-1.29285.8567-2.0683 0-.77545-.3081-1.5197-.8567-2.0683-.5486-.5486-1.29285-.8567-2.0683-.8567zm18.85 0c-.77545 0-1.5197.3081-2.0683.8567-.5486.5486-.8567 1.29285-.8567 2.0683 0 .77545.3081 1.5197.8567 2.0683.5486.5486 1.29285.8567 2.0683.8567.77545 0 1.5197-.3081 2.0683-.8567.5486-.5486.8567-1.29285.8567-2.0683 0-.77545-.3081-1.5197-.8567-2.0683-.5486-.5486-1.29285-.8567-2.0683-.8567z" fill="#22267a"/><path d="M2180.848 27.843l1.3 6.5 1.2415 2.0735c.21645.3549.2964.7774.22295 1.1869-.0728.4095-.29315.77805-.61945 1.0361-.63895.55835-1.4157.93665-2.24965 1.0959-.83395.1586-1.69585.0923-2.49535-.1924" fill="none" stroke="#22267a" stroke-miterlimit="10" stroke-width="2"/><g fill="#eae4dd" stroke="#22267a"><path d="M2129.693 35.643h95.81c1.0855 0 2.1281.4316 2.89575 1.19925.76765.76765 1.19925 1.81025 1.19925 2.89575v48.36c0 1.0855-.4316 2.1281-1.19925 2.89575-.76765.76765-1.81025 1.19925-2.89575 1.19925h-95.81c-1.0855 0-2.1281-.4316-2.89575-1.19925-.76765-.76765-1.19925-1.81025-1.19925-2.89575v-48.36c0-1.0855.4316-2.1281 1.19925-2.89575.76765-.76765 1.81025-1.19925 2.89575-1.19925m-2.587 56.875h100.438c.4719 0 .9256.18785 1.25905.52195.3341.33345.52195.78715.52195 1.25905v.338c0 .4719-.18785.9256-.52195 1.25905-.33345.3341-.78715.52195-1.25905.52195h-100.438c-.4719 0-.9256-.18785-1.25905-.52195-.3341-.33345-.52195-.78715-.52195-1.25905v-.338c0-.4719.18785-.9256.52195-1.25905.33345-.3341.78715-.52195 1.25905-.52195" stroke-width="2"/><path d="M2177.598 57.093c-1.72315 0-3.3774.6851-4.59615 1.90385-1.21875 1.21875-1.90385 2.873-1.90385 4.59615 0 1.72315.6851 3.3774 1.90385 4.59615 1.21875 1.21875 2.873 1.90385 4.59615 1.90385 1.72315 0 3.3774-.6851 4.59615-1.90385 1.21875-1.21875 1.90385-2.873 1.90385-4.59615 0-1.72315-.6851-3.3774-1.90385-4.59615-1.21875-1.21875-2.873-1.90385-4.59615-1.90385z" stroke-width="2"/></g></g><g><path d="M2319.798 53.843c-1.3715-.6955-6.11-3.1005-7.8-7.8-.76765-2.0865-1.2064-4.27895-1.3-6.5 0-2.0215.3705-3.601-.65-5.2-.7345-1.1505-1.248-.845-1.95-1.95-1.6055-2.548-.143-6.1685 0-6.5 0 0 .0585-.143 1.3-2.6v-2.6c.0871-2.7092.75205-5.369 1.95-7.8 1.47225-2.9328 3.7206-5.40605 6.5-7.15 7.8975-4.8425 16.8545-.9685 17.55-.65 7.735 3.497 11.05 11.141 11.05 13.65v3.25s1.027.9945 1.3 1.3c1.1895 1.3 1.027 3.757.65 5.2-.42575 1.40075-1.08485 2.71895-1.95 3.9 0 0 .117 3.5295 0 5.85-.0546 2.43685-.49335 4.84965-1.3 7.15-1.8525 4.6735-5.941 7.085-7.15 7.8-2.7456 1.5977-5.8435 2.4934-9.01875 2.60715-3.1746.1131-6.3284-.559-9.18125-1.95715z" fill="#eae4dd" stroke="#22267a" stroke-miterlimit="10" stroke-width="2"/><path d="M2326.662 10.332c-1.8525 0-3.3605-1.3-5.2-1.625-1.8395-.325-3.8155.4355-5.4925 1.3-.6396.28925-1.22785.6799-1.742 1.157-.3211.34905-.5694.75855-.7293 1.20575-.15925.44655-.2275.9204-.2002 1.39425.07475.9334.312 1.846.702 2.6975.09295.1729.12545.37245.091.5655-.0819.18005-.21255.3328-.377.442l-1.534 1.2155c-.31135.2002-.5629.481-.728.8125-.06305.2106-.0806.43225-.052.65.0715 1.027.3835 2.0345.533 3.055.1963 1.0283.0065 2.093-.533 2.99l-.65.286c.1495-1.625-.65-3.1135-1.092-4.6475-.16965-.5785-.2548-1.17845-.2535-1.781v-.4615c.0845-1.469-.1625-2.938.403-4.407.5005-1.3.884-2.691 1.4625-3.9975.8086-1.33055 1.7849-2.5519 2.9055-3.6335.9243-.97565 2.0488-1.7407 3.2955-2.2425 2.0605-.78 4.1405-1.6575 6.5065-1.8005 1.3-.091 2.652-.1495 3.965-.338.58565-.04485 1.17455-.00585 1.7485.117.1482.0416.30095.0637.455.065 1.4885-.143 2.782.3835 4.121.832 1.157.29705 2.2789.715 3.3475 1.248 1.37475.72605 2.6806 1.5769 3.9 2.5415.77025.6422 1.44105 1.3962 1.989 2.236.4524.87945.80145 1.80895 1.04 2.769l.6045 1.4885v1.599s-.65-3.9-2.0605-3.6205c-1.053.208-2.041-.5655-2.7755-1.248-.663-.7657-1.4417-1.42415-2.3075-1.95-1.03155-.4108-2.14175-.58825-3.25-.52-.4732-.0078-.94575.0338-1.4105.1235-.8684.2782-1.71405.62335-2.5285 1.0335-.7618.2873-1.5717.42445-2.3855.403zm-6.539 14.261c-.77545 0-1.5197.3081-2.0683.8567-.5486.5486-.8567 1.29285-.8567 2.0683 0 .77545.3081 1.5197.8567 2.0683.5486.5486 1.29285.8567 2.0683.8567.77545 0 1.5197-.3081 2.0683-.8567.5486-.5486.8567-1.29285.8567-2.0683 0-.77545-.3081-1.5197-.8567-2.0683-.5486-.5486-1.29285-.8567-2.0683-.8567zm18.85 0c-.77545 0-1.5197.3081-2.0683.8567-.5486.5486-.8567 1.29285-.8567 2.0683 0 .77545.3081 1.5197.8567 2.0683.5486.5486 1.29285.8567 2.0683.8567.77545 0 1.5197-.3081 2.0683-.8567.5486-.5486.8567-1.29285.8567-2.0683 0-.77545-.3081-1.5197-.8567-2.0683-.5486-.5486-1.29285-.8567-2.0683-.8567z" fill="#22267a"/><path d="M2330.848 27.843l1.3 6.5 1.2415 2.0735c.21645.3549.2964.7774.22295 1.1869-.0728.4095-.29315.77805-.61945 1.0361-.63895.55835-1.4157.93665-2.24965 1.0959-.83395.1586-1.69585.0923-2.49535-.1924" fill="none" stroke="#22267a" stroke-miterlimit="10" stroke-width="2"/><g fill="#eae4dd" stroke="#22267a"><path d="M2279.693 35.643h95.81c1.0855 0 2.1281.4316 2.89575 1.19925.76765.76765 1.19925 1.81025 1.19925 2.89575v48.36c0 1.0855-.4316 2.1281-1.19925 2.89575-.76765.76765-1.81025 1.19925-2.89575 1.19925h-95.81c-1.0855 0-2.1281-.4316-2.89575-1.19925-.76765-.76765-1.19925-1.81025-1.19925-2.89575v-48.36c0-1.0855.4316-2.1281 1.19925-2.89575.76765-.76765 1.81025-1.19925 2.89575-1.19925m-2.587 56.875h100.438c.4719 0 .9256.18785 1.25905.52195.3341.33345.52195.78715.52195 1.25905v.338c0 .4719-.18785.9256-.52195 1.25905-.33345.3341-.78715.52195-1.25905.52195h-100.438c-.4719 0-.9256-.18785-1.25905-.52195-.3341-.33345-.52195-.78715-.52195-1.25905v-.338c0-.4719.18785-.9256.52195-1.25905.33345-.3341.78715-.52195 1.25905-.52195" stroke-width="2"/><path d="M2327.598 57.093c-1.72315 0-3.3774.6851-4.59615 1.90385-1.21875 1.21875-1.90385 2.873-1.90385 4.59615 0 1.72315.6851 3.3774 1.90385 4.59615 1.21875 1.21875 2.873 1.90385 4.59615 1.90385 1.72315 0 3.3774-.6851 4.59615-1.90385 1.21875-1.21875 1.90385-2.873 1.90385-4.59615 0-1.72315-.6851-3.3774-1.90385-4.59615-1.21875-1.21875-2.873-1.90385-4.59615-1.90385z" stroke-width="2"/></g></g></svg>