<svg xmlns="http://www.w3.org/2000/svg" viewBox="0 0 572.79 308.53"><defs><style>.cls-1{fill:#eae4dd;stroke:#22267a;stroke-miterlimit:10;}</style></defs><title>shareASL</title><g id="Layer_2" data-name="Layer 2"><g id="Layer_1-2" data-name="Layer 1"><g id="tophand"><path class="cls-1" d="M379.8,178.34c1.26-5.26,5.21-9.19,10-10,3.28-.55,7.83.25,10,3.32,2.72,3.89-.69,8.17,0,13.3.61,4.56,4.57,10.62,19.95,16.62,0,0-19.95-10-16.62-23.27L399.75,165a10.31,10.31,0,0,1-6.65-3.32c-3.32-3.33-6.65-13.3-3.32-16.63s6.65-13.3,13.3-13.3h10s3.33,6.65,3.33,10-6.65,6.65,0,10S433,168.37,433,168.37l16.62,13.29s6.65,29.93-10,36.58-53.2-6.65-59.85-10-33.24-6.65-43.22-13.3-13.29-16.62-23.27-16.62-29.92,3.32-43.22-3.32-26.6-16.63-29.92-20-16.62-26.6,0-23.28a10.3,10.3,0,0,1,6.65,3.33c3.32,3.32-3.33-20,26.6-6.65,0,0-3.33-23.27,16.62-13.3s26.6,10,46.54,10,29.93,3.32,36.58,0,19.94-3.33,26.59,3.32l3.33,3.32h10l3.33,6.65s0,6.65-3.33,10l33.25,29.92,49.87,63.17s-39.9,49.87-56.52,43.22c0,0-46.55-63.17-56.52-73.14"/><path class="cls-1" d="M246.82,135.12s38.23,33.25,73.14,19.95"/><path class="cls-1" d="M276.74,128.47s33.25,29.92,86.44,26.6"/><path class="cls-1" d="M238.09,152.91s54.86,29.92,89.77,16.62"/></g><g id="bottomhand"><path class="cls-1" d="M290,209.92s-3.33-3.32-6.65-3.32-19.95-3.33-29.92-6.65-19.95-6.65-26.6-10-20-10-33.25-10-26.59-3.32-33.24,3.33,10,16.62,13.3,16.62,29.92,10,36.57,13.3,33.24,19.95,39.89,23.27,43.22,23.27,56.52,26.6,53.2,3.32,69.82-3.33,33.25-6.65,43.22-13.29L531.08,308S581,298,571,258.13l-46.54-19.95-95.75-36.7c-3.67-2.87-10.91-7.28-18.95-8.18-16.54-1.84-24.81-2.76-33.25,0-10.53,3.45-12,8.32-23.27,10-2,.29-2.39.21-13.3,0,0,0-6.12-.11-29.92,0-13.79.07-14.42,3.54-16.63,6.65-2,2.83-2.05,7.41,0,10,2.4,3,6.17,1.41,13.3,3.32,6.49,1.74,6.4,3.85,13.3,6.65,5.91,2.4,10.67,2.74,20,3.33,9.74.61,11.35-.24,19.95,0,13.37.36,16.2,2.6,26.59,3.32a86.84,86.84,0,0,0,29.93-3.32"/><path class="cls-1" d="M188.62,179.87s29.94,21.74,103.08,38.37"/></g><g id="phone"><path class="cls-1" d="M148.66,194.5l-61-176s-7-13-18-14l-53-4s-18,1-16,12l58,193s7,21,22,19l61-8S154.66,211.5,148.66,194.5Z"/><path class="cls-1" d="M148.66,195.5l-62-177s-6-15-21-15l-53-3s-12,1-8,13l60,186s5,24,21,21l58-9S154.66,211.5,148.66,195.5Z"/></g></g></g></svg>