<svg id="working" class="svgmate" xmlns="http://www.w3.org/2000/svg" viewBox="0 0 1920.5 1038.15"><defs><style>#working {    max-width: 100%;  max-height: 90vh;}
#working .cls-1,.cls-5,.cls-6,.cls-7,.cls-8{
  fill:#f2f2f2;
  stroke-width: 2px;
}
#working .cls-1,.cls-10,.cls-11,.cls-12,.cls-13,.cls-5,.cls-6,.cls-7,.cls-8,.cls-9{
  stroke:#22267A;
}

#working.cls-1,.cls-10,.cls-11,.cls-12,.cls-13,.cls-4,.cls-6,.cls-9{
  stroke-miterlimit:10;
}
#working .cls-11,.cls-2{
  fill:#22267A;
}
#working .cls-3{
  fill:#22267a;
}
#working .cls-12,.cls-4{
  fill:none;
}
#working .cls-4{
  stroke:#22267a;
}
#working .cls-5{
  stroke-miterlimit:10;
}
#working .cls-6{
  stroke-width:2px;
}
#working .cls-7{
  stroke-miterlimit:10;
  stroke-width:2px;
}
#working .cls-8{
  stroke-miterlimit:10;
}
#working .cls-9{
  fill:#938058;
}
#working .cls-10{
  fill:#fff;
}

/*old*/

#working .cls-6{
  fill:#938058;
}


#Lying_Down{
  opacity: 1;
 

}
#Upright{
  opacity: 0;
   
  
}

@keyframes flickerAnimation {
  0%   { opacity:1; }
  48%   { opacity:1; }
  50%  { opacity:0; }
  98%  { opacity:0; }
  100% { opacity:1; }
}
@-o-keyframes flickerAnimation{
  0%   { opacity:1; }
  48%   { opacity:1; }
  50%  { opacity:0; }
  98%  { opacity:0; }
  100% { opacity:1; }
}
@-moz-keyframes flickerAnimation{
 0%   { opacity:1; }
  48%   { opacity:1; }
  50%  { opacity:0; }
  98%  { opacity:0; }
  100% { opacity:1; }
}
@-webkit-keyframes flickerAnimation{
  0%   { opacity:1; }
  48%   { opacity:1; }
  50%  { opacity:0; }
  98%  { opacity:0; }
  100% { opacity:1; }
}
@keyframes flickerAnimationB {
  0%   { opacity:0; }
  48%   { opacity:0; }
  50%  { opacity:1; }
  98%  { opacity:1; }
  100% { opacity:0; }
}
@-o-keyframes flickerAnimationB{
  0%   { opacity:0; }
  48%   { opacity:0; }
  50%  { opacity:1; }
  98%  { opacity:1; }
  100% { opacity:0; }
}
@-moz-keyframes flickerAnimationB{
 0%   { opacity:0; }
  48%   { opacity:0; }
  50%  { opacity:1; }
  98%  { opacity:1; }
  100% { opacity:1; }
}
@-webkit-keyframesB flickerAnimationB{
  0%   { opacity:0; }
  48%   { opacity:0; }
  50%  { opacity:1; }
  98%  { opacity:1; }
  100% { opacity:0; }
}



#Lying_Down{
   -webkit-animation: flickerAnimation 10s infinite;
   -moz-animation: flickerAnimation 10s infinite;
   -o-animation: flickerAnimation 10s infinite;
    animation: flickerAnimation 10s infinite;
  animation-delay: 3s;

}
#Upright{
     -webkit-animation: flickerAnimationB 10s infinite;
   -moz-animation: flickerAnimation 10s infinite;
   -o-animation: flickerAnimationB 10s infinite;
    animation: flickerAnimationB 10s infinite;
  animation-delay: 3s;
  
}
#_Group_ManSleeve_ {
  fill: ##22267A;
}

#_Group_ManSleeve_{

}
#_Group_Mouse_{

}

#eye1{
  
}
#eye2{
  
}

#screenItems{
     -webkit-animation: flickerAnimation 12s infinite;
   -moz-animation: flickerAnimation 12s infinite;
   -o-animation: flickerAnimation 10s infinite;
    animation: flickerAnimation 10s infinite;
  animation-delay: 0s;
}

@keyframes plantone{
    0%,to{
        transform:scaleY(1) rotate(0deg)
    }
    50%{
        transform:scaleY(1.02) rotate(1deg)
    }
}
@keyframes steam{
    0%{
        transform:scaleY(1.02);
        opacity:0
    }
    50%{
        opacity:.5
    }
    to{
        transform:scaleY(1);
        opacity:0
    }
}
@keyframes head{
    0%,to{
        transform:rotate(0deg)
    }
    85%{
        transform:rotate(1deg)
    }
}
@keyframes shapemask{
    0%{
        transform:scaleX(1) scaleY(1) rotate(0deg)
    }
    25%{
        transform:scaleX(1.03) rotate(0deg)
    }
    50%{
        transform:scaleY(1.03) rotate(0deg)
    }
}
@keyframes sleave{
    0%,to{
        transform:rotate(0deg)
    }
    85%{
        transform:rotate(3deg)
    }
}
@keyframes arm{
    0%,to{
        transform:translateX(0) rotate(0deg)
    }
    85%{
        transform:translateX(-15px) rotate(0deg)
    }
}
@keyframes armright{
    0%,10%,80%,to{
        transform:rotate(0deg)
    }
    40%,50%{
        transform:rotate(-1deg)
    }
}
@keyframes veraslidein{
    0%{
        transform:translateX(1200px)
    }
    50%{
        transform:translateX(0)
    }
    75%{
        transform:translateX(50px)
    }
    90%{
        transform:translateX(42px)
    }
    to{
        transform:translateX(45px)
    }
}
@keyframes verascalein{
    0%,15%{
        transform:scale(0)
    }
    50%{
        transform:scale(1.1)
    }
    75%{
        transform:scale(.98)
    }
    90%{
        transform:scale(1.01)
    }
    to{
        transform:scale(1)
    }
}
@keyframes veradropin{
    0%{
        transform:translateY(-1200px)
    }
    50%{
        transform:translateY(45px)
    }
    75%{
        transform:translateY(-5px)
    }
    90%{
        transform:translateY(3px)
    }
    to{
        transform:translateY(0)
    }
}
#working.svgmate .plant{
    animation-name:plantone;
    transform-origin:1907.25px 884.25px;
    transition:all .5s
}
#working.svgmate .plant:hover{
    opacity:.5
}
#working.svgmate .arm,#working.svgmate .plant,#working.svgmate .steam, #_Group_ManSleeve_, #working #_Group_Mouse_, #working #_Group_Man_Face_,#working #right-arm{
    animation-timing-function:ease-in-out;
    animation-iteration-count:infinite
}
#working.svgmate .steam{
    transition:all .5s;
    animation-name:steam
}
#working #_Group_ManArm_{
    animation-name:arm;
    animation-duration:5s;
  animation-iteration-count: infinite;
    transform-origin:1009.149px 711.625px
}
#working.svgmate #_Group_ManSleeve_{
    animation-name:sleave;
    animation-duration:5s;
    transform-origin:1009.149px 711.625px
      
}
#working #_Group_Mouse_{
  animation-name:arm;
    animation-duration:5s;
    transform-origin:1009.149px 711.625px
}
#working #_Group_Man_Face_{
  animation-name:head;
    animation-duration:8s;
    transform-origin:1009.149px 711.625px;
        animation-iteration-count: infinite;
}
#working #right-arm{
  animation-name:armright;
    animation-duration:8s;
    transform-origin:1009.149px 711.625px
}</style></defs><title>workingupdate</title><g id="Layer_2" data-name="Layer 2"><g id="Layer_1-2" data-name="Layer 1"><g id="Layer_2-2" data-name="Layer 2"><g id="Layer_1-2-2" data-name="Layer 1-2"><g id="L1_RoomWalls" data-name="L1 RoomWalls"><path style="fill: none; stroke: none;" class="cls-1" d="M895,0V647L235,990H0"/><path style="fill: none; stroke: none;" class="cls-1" d="M1920,647H895V0"/><path class="cls-1" d="M1920,647H895L235,990H1920Z"/></g><path class="cls-1" d="M1920,756l-285-16c-60-3-255-17-429,117L1032,990h888Z"/><g id="L5_Human_Man" data-name="L5 Human Man"><path id="sholderforman" class="cls-1" d="M1155.61,618.28c59.7,15.13,87.28,19.94,95.16,134.41s-17.27,93.08-33.83,88S1155.61,618.28,1155.61,618.28Z"/><path id="sholderforman-2" class="cls-2" d="M1181.45,736.33c-11.43-58.77-21-120.38-21-120.38,55,16.83,82.41,23.31,87.68,117.3Z"/><path class="cls-1" d="M1178.6,619.27l-5.24,13.94c-1.11,3.64-5.89,6.2,3,19.18s7.71,14.23,7.71,14.23l-74,2.2s-7.11-34.73-7.82-58.8c-.29-9.63,17.69-62.42,21.18-67.34"/><path class="cls-2" d="M1132.85,634.38s13.84,4.7,21.23,3.91,19.45-9.29,19.45-9.29,14.69,24.15,23.92,60.9,15.76,58.29,1,172.46l-88.82,65.85Z"/><path class="cls-2" d="M1030.13,990l82-65.1s7.6-54.87,15.15-102,10.3-97.39,14.42-116.55-6.63-59.07-8-67.86c-.68-8.78-20.14-12-23.58-17.56-3.43-6.39-6.86-20-6.86-20s-39.15,27.94-62.5,38.32C1022.22,648,998.18,684,979,751.81S991,938.31,991,991m188-373s31.75,5.77,43.36,73.56-21.74,88.53-9.35,157.76l-15.42,13.2.77-21c0-13.71,7.74-47.6,6.19-80-1.54-27.41-8-94.24-31.25-131Z"/><g id="_Group_Mouse_" data-name=" Group Mouse "><path class="cls-1" d="M1352.89,952.9c-5.23,4.77-14.81,8.76-31.37,8s-47.06.8-40.09-13.54,14-14.33,51.42-12C1344.18,935.37,1368.58,938.56,1352.89,952.9Z"/><path class="cls-1" d="M1344.18,941.75c-9.59-5.58-20.92-4-12.2,0S1352.89,946.52,1344.18,941.75Z"/></g><g id="_Group_ManSleeve_" data-name=" Group ManSleeve "><path id="_Path_WhiteSleeve_" data-name=" Path WhiteSleeve " class="cls-1" d="M1104.83,680.8c-6.87-15.69-19.85-41.35-49.62-41.35s-74.05,39.92-74.05,130.45.77,150.4,34.36,151.83c5.34,0,10.68-6.42,19.84-12.12,19.09-13.54,45.8-28.51,48.86-33.5,4.58-7.13,5.34-25.66,4.58-39.92s4.58-76.27,13.74-96.94S1112.46,696.48,1104.83,680.8Z"/><g id="_Group_ManSleeve_2" data-name=" Group ManSleeve 2"><path id="_Path_WhiteSleeve_2" data-name=" Path WhiteSleeve 2" class="cls-2" d="M1092,787.77c3.09-11.67,4.07-29,10.3-48.52,8.21-25.75,10.88-45.8,5.21-58.75-6.87-15.68-22.77-41-52.54-41S981,679.42,981,770v17.9a111.46,111.46,0,0,1,63.56-1.3l46.32,13.83Z"/></g></g><g id="_Group_ManArm_" data-name=" Group ManArm "><path class="cls-1" d="M1339,939.36l-13.07-15.93c-2.62-4-7-8-21.79-4.78s-32.24,8-44.44,4-149.89-49.37-162.09-51-26.15-3.18-54,10.36-47.06,28.67-34.86,37.43,35.73,18.31,84.53,20.7,135.07,9.56,152.5,10.36,19.17-2.39,26.15-1.6l9.58,1.6c4.36,0,14.82-11.15,21.79-11.15s12.2,4.77,15.68,7.16,7,2.39,3.49-1.59-8.71-8.76,2.62-.8c1.74,1.6,4.35,3.19,9.58,2.39S1350.28,947.32,1339,939.36Z"/></g><g id="right-arm"><path id="_Path_ArmRight_" data-name=" Path ArmRight " class="cls-1" d="M1275,686.3c-4.62,13.51-97.82,162.19-22.15,169.56,49.83,4.3,53.52-89.7,48.91-159.73-.92-9.22-.92-11.06,3.69-17.82s10.15-16,3.69-23.35-10.15-10.44-14.76-12.9-6.46-4.3-12,6.15c-1.84-3.07-7.38-8.6-13.84-10.45-4.61-1.84-3.69,2.46-.92,4.3s4.61,7.38,4.61,14.75,0,15.36,2.77,18.43S1276.88,680.15,1275,686.3Z"/><path id="_Path_HandShadow_" data-name=" Path HandShadow " class="cls-1" d="M1308.26,670.32a16.74,16.74,0,0,1-10.15,3.08c-6.46,0-18.46-3.69-19.38-12.91,0-3.68,1.85-6.75,2.77-6.14s4.61,9.83,8.3,11.67,5.54,0,8.31,1.85S1301.8,670.94,1308.26,670.32Z"/><g id="_Group_Pencil_Front_" data-name=" Group Pencil Front "><path class="cls-1" d="M1346.09,684.45c-4.61-7.37-25.83-15.36-34.14-19.66l-1.85,4.92C1315.64,672.17,1336.87,683.84,1346.09,684.45Z"/><path class="cls-1" d="M1346.09,684.45l-8.3-6.75-4.62,3.07C1337.79,682.61,1342.4,684.45,1346.09,684.45Z"/><path class="cls-1" d="M1346.09,684.45l-2.76-2.45-1.85,1.84Z"/></g><g id="_Group_Pencil_Back_" data-name=" Group Pencil Back "><path class="cls-1" d="M1255.66,639.69c.92-1.23,1.85-.62,2.77-.62L1252,636h-3.69c-1.85.61-.92,2.46,0,3.07l6.46,2.46Z"/><path class="cls-1" d="M1281.34,650.05l-22.15-11s-2.77-.61-3.69.62v2.45l24.91,11.68Z"/></g></g><g id="_Group_Man_Face_" data-name=" Group Man Face "><path class="cls-1" d="M1156.65,599.5c4.12,9.42,13.15,13.58,16.95,17.1,1.65,1.54,18.76,17.49,28.56,13a13,13,0,0,0,5.85-4.75c4-5.38-.82-9.35,3.58-12.65,2.08-1.56,2.56-.79,4.72-2.34,9.13-6.57,7-10.86,7.73-10.7,0,0,1.62-5.22,2-5.12,0,0,.39-1,.71-.85s9.82,8.64,14.44.64a9.28,9.28,0,0,0,1.14-6.9c-1-6.14.72-18.12.58-25.94a54.49,54.49,0,0,1-.17-7c0-1.19,1.88-2.2,2.25-3.34,6.38-7.52,7-9.16,7-9.16.89-2.39,2.73-4.72.94-11.39-1.43-5.32-1.77-11.45-2.2-15.32s-.87-4.34-1.33-7.9c-.47-3.72-2.79-7.49-2.45-11.31,0,0-20.11-36.4-64.09-34.58s-52.63,51.76-52.63,51.76-7.91,23.89-6.58,31.79"/><ellipse class="cls-3" cx="1223.34" cy="554.21" rx="5.39" ry="1.87" transform="translate(155.77 1369.07) rotate(-61.73)"/><path class="cls-4" d="M1220.58,606.44a77,77,0,0,0-11.54-5.9c-2.34-.95-4.31-2.63-6.18-3.18"/><path class="cls-3" d="M1239.6,542.69c.49-2.93-6.15-7.4-12.63-8.75-7-1.46-15.61.39-16.3,3.63-.43,2,2.18,4.82,4.89,5.52,2.46.63,3.32-.89,8.15-1.82,2.8-.53,8-1.53,10.59,1,1.21,1.17,1.31,2.6,2.45,2.76A3,3,0,0,0,1239.6,542.69Z"/><path class="cls-4" d="M1233.26,558.69a29.42,29.42,0,0,0-7,9.16,28.05,28.05,0,0,0-2.26,6.83"/><path class="cls-4" d="M1160.19,529.27c2.11-4,2.16-8.43-.19-11.31-3.61-4.41-11.29-3.16-15.48-.89-4.89,2.65-6.45,7.45-8.11,12.58-1.07,3.32-2.67,8.47-.93,14.72a22.92,22.92,0,0,0,4.91,9"/><path class="cls-3" d="M1118.66,543.11c-2.27-7.7,2.45-42.36,2.45-42.36s1.25-43.18,44.6-50.5c67.3-11.36,84.77,38.19,84.77,38.19s6.46,22.94-8.31,20.23-33.83-20.94-33.83-20.94-21.44-7.58-16.91,7.83-.58,21.76-.58,21.76L1182,523c-4.41,2.84-8.81,5.67-10.24,12.7s-11.79,1.48-11.79,1.48l2.85-14.06s-2.78-12.68-16.52-7.29-8.63,30.82-8.63,30.82S1121.17,555,1118.66,543.11Z"/></g></g><g id="L4_ScreenLamp" data-name="L4 ScreenLamp"><g id="_Group_SCREEN_" data-name=" Group SCREEN "><path class="cls-1" d="M1544.46,709.46c2.78,3.37,5.91,4,2.35,24.86-7,33.33-10.71,52-17,83.8-6.17,27.77-16.15,82.21-22.27,99.83-1.73,3.85-4.56.11-7.39-3.62,0,0-21.8-37.76-33.35-60.22-4-9.11-4.51-10-3.57-16.13l31-141c.86-3.9.93-10.07,5.78-8.83s32,13.77,35.41,16.23C1537.6,705.38,1541,708.41,1544.46,709.46Z"/><path class="cls-1" d="M1527.12,811.22c7.1-34.37,17.59-89.38,17.59-89.38l-47.82-26.91L1465,839.4l41.62,67.6S1516.34,868.18,1527.12,811.22Z"/><path class="cls-1" d="M1508.87,896.32,1506.62,907l-41.92-67,3-12.09Z"/><path class="cls-1" d="M1531.34,773.32q-4,26.14-9.55,49.83l-41.72-51.64,8.43-35.32ZM1517.94,842l-10,34.92-38.22-59.71,7.67-31.56Z"/><path id="screenItems" class="cls-1" d="M1493.41,751.4l12.09,12.28-5.73,23.06-11-12.75Zm18.6,18.42,11.3,9.93-5.49,28.72-11-12.75Zm-13.64,55.08L1509,840.47l-4.68,20.71-10.9-17Zm-17-24.08,10.83,15.11-4.47,20.24-11.62-17.47Z"/></g></g><g id="L4_Cup" data-name="L4 Cup"><path class="cls-6" d="M1438.68,770.9,1435,818.66c.16,4-9.92,8.26-24.19,8.85s-26-2.18-26.14-6.2l-7.45-40.82"/><path class="cls-1" d="M1371.88,748.27l9.84,59.25.8,4.57s4.6,3.76,12.9,4.77,9.52,1,13.32.8,12-1.32,12-1.32a72.23,72.23,0,0,0,9.91-3.36c4-1.83,4.88-3.14,4.88-3.14l4.63-58Z"/><path class="cls-1" d="M1370,738.66l2.46,14,1,5.67a38.89,38.89,0,0,0,17.1,6.32c10.28,1.25,11.8,1.3,16.52,1S1422,764,1422,764a90.06,90.06,0,0,0,12.28-4.16c4.93-2.27,6-3.9,6-3.9l2.2-21.18Z"/><path class="cls-1" d="M1367.09,724.3l2,14s.3,4.71,10.2,8.38,26.47,3.14,26.47,3.14,19.93-1.33,25.31-3.43a57.89,57.89,0,0,0,9.42-4.7,5.46,5.46,0,0,0,1.56-1.47c1-1.19,2.78-20,2.78-20l-47.2-5.18Z"/><path class="cls-6" d="M1363,714.6l1.62,10.83s0,1.52,10.8,4,17.2,3.29,21.3,3.27a116.67,116.67,0,0,0,17.63-.64c8.54-.94,19.54-3,23.68-4.54a37,37,0,0,0,8.52-5l1.67-10-4.93-2-69.86,1.59Z"/><ellipse class="cls-7" cx="1405.81" cy="713" rx="42.66" ry="11.58" transform="translate(-28.4 58.99) rotate(-2.38)"/><ellipse class="cls-7" cx="1404.68" cy="712.76" rx="32.31" ry="7.6" transform="translate(-28.39 58.95) rotate(-2.38)"/><path class="cls-1" d="M1397.49,653.17s2.23-3.27,5-1.2l5.49,59.84s.12,1.07-2,1.3a3.45,3.45,0,0,1-3.15-1.16Z"/></g><g id="L_PencilBox_TopLayer" data-name="L  PencilBox TopLayer"><g id="_Group_PencilBlue_" data-name=" Group PencilBlue "><path class="cls-1" d="M1696,840v-1"/></g></g><g id="L4_ScreenLamp-2" data-name="L4 ScreenLamp-2"><g id="_Group_SCREEN_2" data-name=" Group SCREEN 2"><path class="cls-1" d="M1336.93,905.16c0-8.61-2.52-45.17-2.74-50.2s6-3.73,10-3.7l105.47.32c6.29.43,10.49-1.69,14.59,4.38,11.55,22.55,34.62,60.4,34.62,60.4,3.14,3.6,3.6.14,2.08,8-18.88,2.1-51.86.14-80.88.06-13.72,0-47.39-.39-61.73-.54-21.58-1.12-17.46-2.26-20.25-5.73C1337.81,914.53,1337,908.58,1336.93,905.16Z"/><path class="cls-1" d="M1338.5,901.09c0-8.59-2.31-45-2.52-50s5.85-3.79,9.85-3.82l103.38-1c6.17.35,10.29-1.81,14.29,4.19,11.25,22.34,33.72,59.8,33.72,59.8,3.06,3.54,6.13,7.09,2,8-18.51,2.32-50.84.76-79.28,1-13.45.19-46.45.19-60.51.21-21.15-.86-17.11-2-19.83-5.46C1339.32,910.41,1338.5,904.5,1338.5,901.09Z"/><path class="cls-1" d="M1488.68,915.1l-33.44-65.79-76,.2,13.39,66.37s45.82-.38,50.08-.63C1451.5,915.5,1488.68,915.1,1488.68,915.1Z"/></g></g><g id="dog"><path id="Lying_Down" data-name="Lying Down" class="cls-9" d="M900.07,812.76c-4.3-10.4-13.21-27.16-31-40-34.89-25.19-79.24-17.51-91-9-2.46,1.77-6.28,5.6-14,10-7.11,4-12.07,5.48-12,8,.08,2.92,6.81,2.59,10,8,3.46,5.86,0,13.78-1,16-2.91,6.61-8.39,7.6-8,10,.35,2.14,4.95,4.37,23,5"/><g id="Upright"><path class="cls-9" d="M849.07,716.76a9.21,9.21,0,0,1,0-6c.71-1.85,1.62-2,4-5,2.72-3.47,2.8-4.92,4-5,1.74-.13,3.3,2.79,5,6a24.45,24.45,0,0,1,3,8c.52,3.14,1.36,8.17-1,10C860.69,727.36,851.12,723.2,849.07,716.76Z"/><path class="cls-9" d="M790.07,765.76a54.94,54.94,0,0,1,6-24c4.33-7.84,6.49-11.75,8-13a5.52,5.52,0,0,0,2-3,7.44,7.44,0,0,0,0-2v-4c0-3.89-.21-6.33,0-10a18.13,18.13,0,0,1,1-5,8.32,8.32,0,0,1,1-2c.63-1,1.18-1.76,2-2,1.42-.43,3,1,4,2s1,1.28,3,4c2.16,3,2.17,2.58,3,4,.93,1.59,1,2.28,2,3a5.63,5.63,0,0,0,3,1,10.3,10.3,0,0,0,5-1c1.47-.63,4.65-.75,11-1,1.12,0,6.33-.24,10,0,6.16.39,15.74,1,22,7,2.48,2.36,1.73,3,9,20,4.1,9.6,4.29,9.29,5,12,1,3.68,3.12,12.41,0,22-1.76,5.39-3.22,5-4,9-1.9,9.72,6.24,14.79,5,20-2.23,9.34-34.07,16.48-61,5C811.33,801,790.43,785.06,790.07,765.76Z"/><path class="cls-10" d="M861.07,741.76c2.31.91,4.43,1.75,6,4s2.64,5.83,1,9aÀOÃäXU  ÀOÃäXU                  @Â4äXU          @ÂäXU  (PÃäXU          àOÃäXU  Z      àOÃäXU          15.77,15.77,0,0,1,861.07,741.76Z"/><path class="cls-11" d="M833.07,736.76a6.13,6.13,0,0,1,5-2c1.54.19,3.95,1.23,4,3a3.47,3.47,0,0,1-3,3,4.53,4.53,0,0,1-3-1A9.55,9.55,0,0,1,833.07,736.76Z"/><path class="cls-11" d="M866.57,733.26c.46.24,1.15.59,2,1a9.35,9.35,0,0,1,2,1c1.12,1,1.48,3.77,0,5s-3.85.15-5-1-2.09-3.63-1-5A3,3,0,0,1,866.57,733.26Z"/><path class="cls-11" d="M865.57,746.26c-1-1.35-2.67-.35-3-.35s-2.15-1-3,.35a3.37,3.37,0,0,0,0,3,3.76,3.76,0,0,0,2,2,3.53,3.53,0,0,0,4-1A3.42,3.42,0,0,0,865.57,746.26Z"/><path class="cls-12" d="M867.07,746.76a6.79,6.79,0,0,1,2,4.47c0,2-.9,4.5-3,5.37-1,.41-2.58.55-3,0-.23-.29-.07-.7,0-.89a10.85,10.85,0,0,0,0-5.37s1.23,4.58-1,6.26c-1.4,1-3.78.7-6,0"/></g><g id="Body"><path class="cls-9" d="M884.57,790.26a54,54,0,0,0,7.5,1,58.46,58.46,0,0,0,6.75,0s1.91-.12,4.5,0c2.32.1,3.06.3,3.75,1a6,6,0,0,1,1.5,4,6.74,6.74,0,0,1-1.5,4,5,5,0,0,1-2.25,2,3.61,3.61,0,0,1-2.25,0c-2.93-.87-6,0-9,0h-7.5"/><path class="cls-9" d="M878.57,801.76c3.76.54,7.13.81,10,.94,1.67.07,5,.17,9,0,0,0,2.54-.11,6,0,3.09.1,4.08.28,5,.94a5,5,0,0,1,2,3.77,5.5,5.5,0,0,1-2,3.78,5.91,5.91,0,0,1-6,1.88c-3.91-.81-8,0-12,0h-10"/><path class="cls-9" d="M903.57,815.26a532.73,532.73,0,0,0-57-42c-24.27-15.49-33.64-18.63-44-17-14.1,2.21-26.22,12.66-32,25-8.49,18.11-1.08,35.46,3,45,3.15,7.37,11.81,27.64,29,32,3.38.85,3.23.11,29,0,13.62-.07,12,.15,18,0,18.57-.47,19.7-2.16,34-2,5.72.06,11.17.39,21,1,8.51.52,12.77.78,14,1a53.43,53.43,0,0,0,11,1c4.62-.1,6.18-.8,7-2a5.12,5.12,0,0,0,0-5s-.9-1.36-8-3h0a9.06,9.06,0,0,0-4-5c-1.21-.64-1.57-.36-5-1,0,0-.93-.18-8-2h0v-7c-.08-3-.85-7.38-4-13Z"/><path class="cls-9" d="M802.07,843.76c3.22-3.53,5.57-3.25,7-5,2.09-2.59-1.24-5.34,0-11,1-4.52,3.43-4.27,4-8,.73-4.8-2.74-8.93-7-14-2.89-3.45-5-5.84-8-6-2.69-.15-3.66,1.57-6,1-3.12-.77-2.78-4.17-6-6-4.61-2.62-12.68.16-14,4-.39,1.12-.12,2.1-1,3-1.39,1.4-3.2.16-5,1-3.48,1.61-1.28,8.38-5,11-2.45,1.72-4.31-.57-7,1-4.36,2.54-1.57,9.78-6,13-3.32,2.4-6.52-.45-9,2-2.31,2.27-1.45,6.62,0,14,1.07,5.42,1.6,8.14,3,10,4.52,6,13.86,6,18,6,11.09,0,12.25-4.75,22-4,8.26.62,12.57,4.41,15,2s.37-8.23,4.23-13.11C801.65,844.21,802.07,843.76,802.07,843.76Z"/><polyline class="cls-12" points="911.69 841.29 911.69 844.75 911.69 845.75"/><ellipse class="cls-13" cx="933.57" cy="857.01" rx="1.5" ry="0.75"/><ellipse class="cls-13" cx="932.57" cy="857.76" rx="1.5" ry="0.5"/><ellipse class="cls-12" cx="906.57" cy="812.02" rx="1.5" ry="0.15"/><ellipse class="cls-13" cx="905.57" cy="812.56" rx="1.5" ry="0.23"/><ellipse class="cls-13" cx="904.57" cy="813.1" rx="1.5" ry="0.15"/><ellipse class="cls-12" cx="905.57" cy="811.41" rx="1.5" ry="0.15"/><path class="cls-13" d="M901.07,811.26a9.57,9.57,0,0,1,2,.3c.2.06,1.25.37,1,.62a5,5,0,0,1-1,.31,5.76,5.76,0,0,1-1,.3,4.27,4.27,0,0,1-2-.3c-.27-.15.1-.21,0-.62,0-.16-.1-.21,0-.31A2.37,2.37,0,0,1,901.07,811.26Z"/><ellipse class="cls-13" cx="904.57" cy="800.49" rx="1.5" ry="0.92"/><ellipse class="cls-13" cx="902.57" cy="800.64" rx="1.5" ry="0.62"/><line class="cls-12" x1="928.07" y1="848.76" x2="911.07" y2="846.76"/></g></g></g></g></g></g></svg>